<svg width="99" height="55" viewBox="0 0 99 55" fill="none" xmlns="http://www.w3.org/2000/svg">
<g style="mix-blend-mode:screen" clip-path="url(#clip0_559_1160)">
<path d="M8.84209 47.3568C8.84209 46.089 7.94955 45.3221 6.45361 45.3064H0.727539V51.999H1.69864V49.5605H6.35618C7.19215 49.5605 7.69499 49.9768 7.69499 50.6749V51.999H8.68495V50.6843C8.69877 50.3509 8.6086 50.0215 8.42683 49.7412C8.24507 49.461 7.98062 49.2436 7.66985 49.1191C8.02579 48.9845 8.33036 48.742 8.54066 48.4258C8.75096 48.1096 8.85638 47.7357 8.84209 47.3568ZM6.4599 48.6809H1.69864V46.1766H6.4599C7.76099 46.1766 7.86155 47.1314 7.86155 47.4288C7.86155 47.7261 7.76099 48.6809 6.4599 48.6809ZM25.9103 46.6243C25.4138 45.6257 24.8481 45.2188 23.9555 45.2188C23.063 45.2188 22.4721 45.6382 21.9945 46.6243L19.4426 51.83L19.3608 51.9959H20.4042L20.4356 51.9301L21.3439 50.077H26.5609L27.4691 51.9301L27.5005 51.9959H28.5533L28.4716 51.83L25.9103 46.6243ZM21.787 49.1974L22.9216 46.8872C23.1887 46.3363 23.4873 46.1109 23.9555 46.1109C24.4238 46.1109 24.7129 46.3363 24.9832 46.8872L26.1177 49.1974H21.787ZM38.7264 48.6527C38.7264 50.9159 39.7132 51.9802 41.8377 51.999H47.0986V51.0599H41.9131C40.3166 51.0599 39.7132 50.4088 39.7132 48.6621C39.7132 46.9154 40.3072 46.2612 41.9131 46.2612H47.1112V45.3221H41.8503C39.6944 45.3283 38.7264 46.3582 38.7264 48.6527ZM58.1108 51.9959H59.0788V45.3033H58.1108V51.9959ZM78.1678 51.0317C77.2438 51.0317 77.0207 50.7187 75.3393 48.4837L75.2639 48.3835C73.4505 45.9669 72.9634 45.3189 71.3794 45.3033H70.5938V51.9959H71.5523V46.2737C72.426 46.2737 72.646 46.5585 74.2928 48.7059L74.497 48.9689C76.323 51.3479 76.8164 51.9865 78.3437 51.999H79.1451V45.3064H78.1835V51.0349L78.1678 51.0317ZM97.7407 48.5463V51.0505H93.4855C91.8889 51.0505 91.2855 50.3963 91.2855 48.6433C91.2855 46.8903 91.8795 46.2518 93.4855 46.2518H98.6584V45.3127H93.41C91.2887 45.3314 90.3019 46.3926 90.3019 48.6496C90.3019 50.9065 91.2887 51.9834 93.4132 52.0053H98.7118V48.5619H97.7376L97.7407 48.5463Z" fill="white"/>
<path d="M25.8412 41.1719H24.845C13.8674 41.1719 0.711914 41.4035 0.711914 41.5788C0.711914 41.7541 11.5732 42.1704 24.8481 42.1704H74.5914C85.569 42.1704 98.7245 41.9388 98.7245 41.7635C98.7245 41.5882 87.8632 41.1719 74.5883 41.1719H25.8412Z" fill="white"/>
<path d="M42.9426 29.0615V33.1872C42.9196 33.5186 42.7711 33.8289 42.5273 34.0556C42.2835 34.2822 41.9624 34.4082 41.6289 34.4082C41.2954 34.4082 40.9743 34.2822 40.7305 34.0556C40.4867 33.8289 40.3383 33.5186 40.3153 33.1872V29.0615H38.0336V33.6286C38.0336 35.175 39.6396 36.4271 41.6195 36.4271C43.5994 36.4271 45.2054 35.175 45.2054 33.6286V29.0646L42.9426 29.0615ZM50.3594 24.1562V36.1704H52.6568V24.1562H50.3594ZM46.475 36.1704H48.7724V24.1562H46.475V36.1704ZM35.2209 29.9348C35.535 29.6531 35.7872 29.3097 35.9614 28.9261C36.1355 28.5424 36.228 28.127 36.2328 27.706C36.2316 26.9404 35.9358 26.2044 35.4063 25.6494C34.8595 25.0484 33.8884 24.7103 32.5778 24.7103H28.6494V36.1735H33.7218C35.6671 36.1422 37.2322 34.6804 37.2322 32.8867C37.2322 31.5751 36.7702 30.6454 35.2209 29.9348ZM33.2975 34.1858H31.0976V26.673H32.6313C32.9614 26.6892 33.2725 26.8317 33.4997 27.0708C33.727 27.3099 33.8527 27.6272 33.8506 27.9564C33.8506 28.2786 33.7222 28.5875 33.4935 28.8153C33.2648 29.0431 32.9547 29.171 32.6313 29.171H31.833V31.2308H33.2975C33.6779 31.2482 34.0369 31.411 34.2998 31.6853C34.5628 31.9596 34.7096 32.3243 34.7096 32.7036C34.7096 33.0828 34.5628 33.4475 34.2998 33.7218C34.0369 33.9961 33.6779 34.1589 33.2975 34.1764V34.1858Z" fill="white"/>
<path d="M8.39268 28.0942C8.38438 27.1887 8.01569 26.3234 7.36755 25.6884C6.71941 25.0534 5.84478 24.7005 4.93567 24.7072H0.727539V36.1704H3.17259V26.6762H4.42968C4.63344 26.6686 4.83665 26.7017 5.02744 26.7733C5.21823 26.8449 5.39276 26.9537 5.54083 27.0933C5.68891 27.2329 5.80754 27.4006 5.8898 27.5864C5.97206 27.7722 6.01629 27.9725 6.01991 28.1756C6.00276 28.5902 5.82096 28.9811 5.5145 29.2623C5.20804 29.5435 4.802 29.692 4.38569 29.675H3.81685V32.4172L6.25876 36.1735H9.14065L5.76535 31.3841C6.51023 31.2087 7.17427 30.7888 7.65077 30.1922C8.12727 29.5955 8.38856 28.8566 8.39268 28.0942ZM12.6668 28.7672C11.666 28.7957 10.7159 29.2117 10.0181 29.9269C9.32037 30.642 8.93003 31.5999 8.93003 32.5971C8.93003 33.5944 9.32037 34.5523 10.0181 35.2674C10.7159 35.9826 11.666 36.3986 12.6668 36.4271C14.2696 36.4271 15.5173 35.704 16.1615 34.5739L14.2947 33.7162C14.1624 33.9824 13.9568 34.2055 13.702 34.3596C13.4471 34.5137 13.1535 34.5924 12.8554 34.5865C12.658 34.5957 12.4608 34.5661 12.275 34.4994C12.0892 34.4326 11.9184 34.33 11.7724 34.1974C11.6265 34.0648 11.5082 33.9048 11.4244 33.7267C11.3406 33.5485 11.2929 33.3556 11.284 33.159V33.0651H16.347C16.347 32.9086 16.3689 32.7521 16.3689 32.5831C16.4129 30.1226 14.7661 28.7672 12.6668 28.7672ZM11.284 31.7692C11.284 31.3981 11.432 31.0422 11.6955 30.7798C11.9589 30.5173 12.3162 30.3699 12.6888 30.3699C13.0614 30.3699 13.4187 30.5173 13.6821 30.7798C13.9456 31.0422 14.0936 31.3981 14.0936 31.7692H11.284ZM25.5017 36.1735V24.1562H23.2107V29.8409C22.9081 29.537 22.5484 29.2954 22.152 29.13C21.7557 28.9645 21.3305 28.8785 20.9008 28.8768C19.0151 28.8768 17.4658 30.5546 17.4658 32.6331C17.4658 34.7117 19.0026 36.3895 20.9008 36.3895C21.3342 36.3859 21.7625 36.2962 22.1607 36.1259C22.5589 35.9555 22.9191 35.7078 23.2201 35.3972V36.1954L25.5017 36.1735ZM21.5513 34.4143C21.1797 34.4471 20.8069 34.3673 20.4816 34.1854C20.1563 34.0035 19.8938 33.7279 19.7285 33.3948C19.5632 33.0617 19.5028 32.6867 19.5552 32.3188C19.6076 31.9509 19.7703 31.6074 20.0221 31.3332C20.2739 31.0591 20.603 30.8671 20.9662 30.7825C21.3295 30.6978 21.7099 30.7245 22.0577 30.8589C22.4054 30.9933 22.7043 31.2293 22.9151 31.5359C23.1259 31.8424 23.2388 32.2052 23.239 32.5768C23.2577 33.0425 23.0908 33.4968 22.7747 33.8404C22.4585 34.1841 22.0188 34.3892 21.5513 34.4112V34.4143Z" fill="white"/>
<path d="M78.0234 37.7641C82.3592 37.7641 85.874 34.2631 85.874 29.9445C85.874 25.6259 82.3592 22.125 78.0234 22.125C73.6877 22.125 70.1729 25.6259 70.1729 29.9445C70.1729 34.2631 73.6877 37.7641 78.0234 37.7641Z" fill="white"/>
<path d="M98.6135 35.1829C98.6026 35.1617 98.5931 35.1397 98.5852 35.1172C98.5852 35.0765 98.5852 35.0264 98.5632 34.9763C98.5527 34.8478 98.5241 34.7213 98.4784 34.6007C98.4344 34.5048 98.3682 34.4207 98.2851 34.3554C98.202 34.29 98.1045 34.2454 98.0007 34.225C97.9877 34.1602 97.962 34.0985 97.9253 34.0435C97.7961 33.8758 97.6348 33.7353 97.4507 33.6303L97.347 33.5583L97.3061 33.527C97.2104 33.4517 97.0919 33.4109 96.9699 33.4112C96.8619 33.418 96.7567 33.4478 96.6613 33.4986C96.5659 33.5493 96.4825 33.6199 96.4167 33.7054C96.3947 33.6459 96.357 33.5082 96.335 33.4299C96.313 33.3517 96.2785 33.2202 96.2502 33.1419V33.1075C96.2165 32.9741 96.1464 32.8527 96.0477 32.7565C95.9489 32.6604 95.8254 32.5934 95.6908 32.5628C95.5929 32.5488 95.4942 32.5404 95.3954 32.5378C95.2996 32.5417 95.2041 32.5246 95.1156 32.4877C95.1156 32.4721 95.1157 32.447 95.1471 32.4063C95.1779 32.3318 95.2041 32.2555 95.2256 32.1778C95.3219 31.8626 95.3455 31.5298 95.2948 31.2043C95.3895 31.2182 95.4851 31.2255 95.5808 31.2262C95.8972 31.2255 96.2104 31.1617 96.5016 31.0384C96.8206 30.8919 97.0912 30.6582 97.2821 30.3645C97.4729 30.0708 97.5761 29.7292 97.5796 29.3793V29.3198C97.5167 28.6531 97.1427 28.0207 96.4419 27.3978C96.6387 27.3543 96.8261 27.2759 96.995 27.1662C97.2521 26.9813 97.4469 26.7233 97.5541 26.4261C97.6612 26.1289 97.6756 25.8063 97.5953 25.5008V25.4539C97.5845 25.3462 97.5344 25.2462 97.4544 25.1729C97.3744 25.0996 97.2702 25.0581 97.1616 25.0563C97.0514 25.0566 96.9455 25.0992 96.8661 25.1753L96.8127 25.2254C96.7731 25.2656 96.73 25.3023 96.6839 25.3349C96.5464 25.3994 96.4004 25.4437 96.2502 25.4664C96.112 25.4924 95.9755 25.5269 95.8416 25.5697C95.2131 25.7857 94.8171 26.1238 94.6631 26.5714C94.618 26.7218 94.6048 26.8798 94.6243 27.0356C94.6438 27.1913 94.6955 27.3413 94.7762 27.4761V27.498C94.9772 27.788 95.2125 28.0529 95.4771 28.2868C95.8165 28.5999 96.1339 28.9129 96.1999 29.2823C96.1999 29.348 96.2313 29.4732 96.0082 29.6391C95.9001 29.6931 95.7801 29.7189 95.6593 29.7143C95.4502 29.7116 95.2446 29.6601 95.0591 29.564C94.7736 29.4128 94.4976 29.2445 94.2325 29.06C93.8001 28.7421 93.3251 28.4861 92.8214 28.2993C92.5873 28.2062 92.344 28.138 92.0955 28.0959C91.8286 28.065 91.5719 27.9752 91.3444 27.8329L91.3161 27.8142C91.2312 27.7609 91.1464 27.6983 91.0647 27.6389C90.8028 27.4258 90.5033 27.2634 90.1815 27.1599C90.0639 27.123 89.9428 27.0978 89.8201 27.0848C89.7292 27.0809 89.6402 27.0574 89.5593 27.0159L89.3896 26.8938C89.1572 26.7141 88.9101 26.5539 88.651 26.4149C88.2124 26.2136 87.7498 26.0684 87.2745 25.9829C87.2494 25.9829 87.1834 25.8953 87.1362 25.8421C87.0538 25.7331 86.9564 25.6362 86.8471 25.5541C86.4768 25.2176 85.9996 25.0215 85.4989 25H85.3543C85.0473 25.0437 84.7628 25.1854 84.5435 25.4038C84.1318 25.7638 83.6824 26.0862 83.2487 26.3993C82.5364 26.8788 81.8751 27.4294 81.275 28.0427C80.6465 28.6969 80.4076 29.5139 80.2034 30.2339C80.1751 30.3372 80.1436 30.4405 80.1122 30.5469C80.0556 30.7441 80.0054 30.9476 79.9582 31.1448C79.7099 32.1434 79.4742 33.0856 78.5377 33.6929C78.4642 33.7392 78.4052 33.8051 78.3675 33.8831C78.3297 33.9611 78.3146 34.0481 78.324 34.1343C78.3346 34.2221 78.3697 34.3053 78.4252 34.3745C78.4807 34.4436 78.5545 34.4959 78.6383 34.5256C78.7536 34.5644 78.8748 34.5835 78.9965 34.5819C79.0019 34.6838 79.0417 34.7809 79.1097 34.8574C79.1609 34.9138 79.2235 34.9589 79.2933 34.9896C79.3632 35.0203 79.4387 35.0361 79.5151 35.0358H79.5308C79.8184 35.0169 80.0994 34.9407 80.3569 34.8116C80.6144 34.6826 80.8433 34.5033 81.0299 34.2845C81.1828 34.4363 81.3738 34.5444 81.583 34.5975H81.6459H81.715C81.9289 34.5617 82.1455 34.545 82.3624 34.5475C82.551 34.6069 82.7458 34.6789 82.9375 34.7509C83.1292 34.8229 83.2518 34.8636 83.3932 34.9168L83.4687 34.9419H83.5347C83.6929 34.9214 83.8437 34.8629 83.974 34.7712C84.1044 34.6796 84.2103 34.5576 84.2826 34.416V34.3878V34.3596C84.297 34.3273 84.3085 34.2938 84.3172 34.2595L84.3423 34.3471C84.384 34.5439 84.4653 34.7303 84.5812 34.8949C84.6388 34.9624 84.7106 35.0165 84.7915 35.0533C84.8725 35.0901 84.9605 35.1087 85.0495 35.1078C85.1095 35.1067 85.1693 35.1014 85.2286 35.0921H85.2412L85.26 35.1141C85.3569 35.2306 85.4841 35.3183 85.6277 35.3676C85.8006 35.424 85.9734 35.4709 86.1431 35.5147C86.3561 35.5639 86.566 35.6256 86.7717 35.6994H86.7937C86.9516 35.7585 87.1184 35.7903 87.2871 35.7933C87.503 35.7949 87.7117 35.7155 87.8716 35.5711C88.0602 35.4227 88.1931 35.2154 88.2488 34.9826L88.3745 34.9513C88.6605 34.8574 88.9433 34.3252 88.9433 34.3252C88.9621 34.2895 88.9831 34.255 89.0062 34.2219C89.0756 34.1241 89.1119 34.0068 89.1099 33.887C89.1091 33.7558 89.0566 33.6301 88.9637 33.537C88.8709 33.4439 88.7451 33.3909 88.6133 33.3892H88.5693C88.5473 33.3892 88.0068 33.3892 87.8528 33.3892C87.7896 33.3919 87.7272 33.4035 87.6674 33.4237C87.6265 33.3736 87.5825 33.2578 87.5228 33.2296H87.5448L87.6956 33.2453C87.7931 33.2453 87.8905 33.2609 87.9879 33.2609C88.3048 33.2521 88.6203 33.2155 88.9307 33.1513C89.1967 33.1206 89.4649 33.1133 89.7321 33.1294H89.8296C89.9493 33.1308 90.0688 33.1381 90.1878 33.1513C90.3256 33.1666 90.4641 33.175 90.6027 33.1764H90.7535C90.8879 33.1704 91.021 33.1473 91.1495 33.1075L91.1967 33.3579L91.2155 33.4425C91.2495 33.6667 91.3309 33.8812 91.4545 34.0717C91.578 34.2622 91.7408 34.4244 91.932 34.5475L92.0138 34.6007C92.2417 34.7709 92.5104 34.8788 92.7932 34.9137C92.9231 34.9287 93.0546 34.9234 93.1829 34.8981C93.4306 34.8508 93.6854 34.8557 93.9311 34.9123C94.1768 34.9689 94.4079 35.076 94.6097 35.2267L94.6474 35.2518C94.6932 35.2813 94.7364 35.3148 94.7762 35.3519C94.8877 35.4548 95.0164 35.5375 95.1565 35.5961C95.2661 35.6374 95.3819 35.6597 95.4991 35.6619C95.6584 35.6641 95.8152 35.6218 95.9516 35.5398C95.9673 35.5599 95.982 35.5808 95.9956 35.6024C96.073 35.7169 96.1638 35.822 96.2659 35.9154C96.4609 36.0872 96.7163 36.175 96.9762 36.1596C97.0673 36.1596 97.1553 36.1596 97.2338 36.1596H97.3219H97.4601C97.5167 36.1596 97.5544 36.1439 97.5733 36.1408C97.6477 36.1938 97.7364 36.2232 97.8278 36.2253C97.8684 36.2254 97.9087 36.2191 97.9473 36.2065L98.3967 36.0594C98.4586 36.0403 98.5158 36.0084 98.5645 35.9657C98.6133 35.9231 98.6524 35.8708 98.6795 35.8121C98.7185 35.7094 98.7329 35.599 98.7214 35.4897C98.71 35.3805 98.673 35.2754 98.6135 35.1829ZM84.4492 32.9635L84.4146 32.9134C84.4146 32.8915 84.3863 32.8727 84.3675 32.8446C84.3069 32.7626 84.2553 32.6745 84.2135 32.5816C84.3486 32.5816 84.49 32.6098 84.6409 32.6161L84.4492 32.9635Z" fill="white"/>
<path d="M77.7724 33.5475L77.5367 33.4317C77.3303 33.2758 77.1644 33.0729 77.0527 32.8401C76.9835 32.7274 76.9144 32.6085 76.839 32.502C76.7643 32.4003 76.6766 32.3087 76.5781 32.2297L76.5278 32.1859C76.2219 31.4239 76.0241 30.6232 75.9402 29.8068C75.8988 29.5127 75.8017 29.2291 75.6542 28.971C75.2286 28.3445 74.7636 27.7454 74.2619 27.1774C74.2274 27.1398 74.1897 27.1022 74.1551 27.0709L74.1299 27.0459L72.4643 25.6654L72.4392 25.6466C72.2121 25.4737 71.9584 25.3384 71.688 25.246C71.213 25.0932 70.6993 25.111 70.2361 25.296H70.2078C70.0632 25.3712 69.9281 25.4588 69.7992 25.5402C69.6198 25.6672 69.4256 25.7723 69.221 25.8532H69.1864C69.0135 25.926 68.8361 25.9877 68.6553 26.0379C68.2124 26.1436 67.7989 26.3468 67.4453 26.6327L67.2191 26.8424C67.1311 26.9269 67.0462 27.0052 67.0116 27.0302H66.9394C66.3734 27.0097 65.8203 27.2019 65.39 27.5687H65.3743C65.1308 27.8189 64.8418 28.0207 64.5226 28.1634C64.3792 28.2045 64.2316 28.2297 64.0826 28.2385H64.0669C63.8612 28.2507 63.657 28.2822 63.4572 28.3324C62.9759 28.4903 62.5328 28.7462 62.1561 29.0837C61.9927 29.2089 61.8858 29.2903 61.8418 29.3185L61.7381 29.3842C61.3934 29.6341 60.9873 29.7866 60.5627 29.8256H60.5407C60.4268 29.8148 60.318 29.7732 60.2261 29.7054C60.1342 29.6375 60.0626 29.546 60.019 29.4406C59.9861 29.3064 59.99 29.1658 60.0304 29.0336C60.0708 28.9014 60.1461 28.7825 60.2485 28.6893C60.3899 28.5484 60.5627 28.4076 60.7167 28.273C60.9971 28.0556 61.2512 27.8067 61.4741 27.5311C61.6266 27.3122 61.7022 27.0493 61.6891 26.7832C61.676 26.5171 61.575 26.2628 61.4019 26.0598C61.0845 25.7801 60.6947 25.5947 60.2768 25.5246H60.2453H60.1762H60.1542L60.0285 25.5026L59.821 25.4619C59.6755 25.4072 59.5388 25.3313 59.4156 25.2366C59.3146 25.1632 59.2097 25.0953 59.1014 25.0331L58.7871 24.8672L58.5954 25.1614C58.4492 25.3869 58.3838 25.655 58.41 25.9221V25.944C58.4586 26.2228 58.5736 26.486 58.7453 26.7114C58.9169 26.9369 59.1404 27.1181 59.3968 27.24L59.4502 27.2619C59.5588 27.3047 59.6732 27.331 59.7896 27.3401C59.5042 27.5695 59.2411 27.8253 59.0039 28.1039C58.7964 28.3689 58.6615 28.6831 58.6125 29.0156C58.5635 29.3481 58.602 29.6877 58.7242 30.0009C58.863 30.3278 59.0861 30.6123 59.3709 30.8256C59.6557 31.0389 59.9921 31.1734 60.3459 31.2155C60.4499 31.2312 60.5549 31.2396 60.6602 31.2405C60.845 31.2386 61.0292 31.2187 61.2101 31.181C61.2139 31.3663 61.2276 31.5513 61.251 31.7351C61.3028 31.9584 61.3754 32.1764 61.4679 32.3862C61.4679 32.3862 61.4679 32.3862 61.4679 32.4019C61.3371 32.4798 61.198 32.5428 61.053 32.5897C60.9462 32.5897 60.8267 32.6085 60.7387 32.6147H60.6067C60.4798 32.6286 60.3612 32.6849 60.2705 32.7744C60.1391 32.9347 60.0418 33.1201 59.9845 33.319C59.9468 33.4192 59.9059 33.5225 59.8651 33.607C59.8297 33.6585 59.7862 33.704 59.7362 33.7416C59.6718 33.6394 59.5887 33.5502 59.4911 33.4787C59.3992 33.4139 59.2894 33.379 59.1768 33.379C59.0642 33.379 58.9544 33.4139 58.8625 33.4787L58.7777 33.535L58.7557 33.5507C58.6156 33.6392 58.4812 33.7364 58.3534 33.8418C58.2551 33.9293 58.187 34.0454 58.1585 34.1736C58.1243 34.1786 58.0906 34.187 58.058 34.1987C57.9285 34.2532 57.8147 34.3389 57.7269 34.4483C57.6392 34.5576 57.5801 34.687 57.5551 34.8247C57.5504 34.9297 57.5389 35.0343 57.5206 35.1378L57.4986 35.1659C57.4147 35.2581 57.3682 35.378 57.3682 35.5024C57.3682 35.6268 57.4147 35.7468 57.4986 35.8389C57.7258 35.9806 57.9808 36.0724 58.2465 36.1082H58.2717H58.3345H58.3628L58.4508 36.0737H58.5702C58.6453 36.0834 58.7198 36.097 58.7934 36.1144C58.9416 36.1509 59.0933 36.1719 59.2459 36.177C59.4135 36.1796 59.5789 36.1397 59.7268 36.0612C59.937 35.9462 60.1061 35.769 60.2108 35.5541C60.239 35.5071 60.2642 35.4602 60.2925 35.4226H60.3333C60.4163 35.447 60.5016 35.4627 60.5879 35.4696C60.9409 35.4665 61.2819 35.3415 61.5527 35.1158C61.625 35.0595 61.691 34.9969 61.7538 34.9405C61.8175 34.8793 61.8846 34.8219 61.955 34.7684C62.0379 34.7404 62.1252 34.7276 62.2127 34.7308C62.3998 34.7373 62.5859 34.7604 62.7689 34.7997C63.1234 34.8937 63.5005 34.8513 63.8249 34.6807C63.9852 34.59 64.1392 34.5086 64.2743 34.4397H64.2963L64.4786 34.3427C64.7705 34.1466 65.0005 33.8719 65.1417 33.5507C65.2077 33.4161 65.3114 33.1688 65.3397 33.0999H65.4434C65.6385 33.095 65.8328 33.0751 66.0248 33.0404C66.1505 33.0217 66.2668 33.0029 66.358 32.9966H66.4805C66.6628 32.9966 66.9236 33.0185 67.1091 33.0404C67.2945 33.0624 67.3856 33.0749 67.6025 33.0843H67.6968C67.7659 33.0843 67.8445 33.0843 67.9293 33.0843C68.1199 33.0854 68.3081 33.0425 68.4793 32.9591C68.5202 32.9998 68.5893 33.0968 68.6364 33.1375H68.6144C68.5468 33.1367 68.4797 33.1499 68.4175 33.1763C68.3553 33.2027 68.2993 33.2417 68.253 33.2909C68.0881 33.2363 67.9126 33.2213 67.7408 33.247C67.5294 33.266 67.3194 33.2984 67.1122 33.3441C67.0362 33.3553 66.9642 33.3852 66.9028 33.4311C66.8413 33.477 66.7923 33.5375 66.7602 33.607C66.7262 33.6837 66.7108 33.7673 66.7151 33.851C66.7195 33.9348 66.7436 34.0163 66.7854 34.0891C66.8985 34.2926 67.0085 34.4741 67.1248 34.6682L67.1751 34.7527C67.2235 34.8301 67.292 34.893 67.3733 34.9349C67.4546 34.9767 67.5457 34.996 67.637 34.9906H67.7502L67.7722 35.0282C67.8621 35.2129 67.9894 35.377 68.1462 35.5103C68.3457 35.6749 68.5974 35.7636 68.8564 35.7607C68.9714 35.7601 69.0857 35.7432 69.1958 35.7106C69.7015 35.5654 70.1936 35.3769 70.6666 35.1471H70.7861H70.8803C71.1415 35.1538 71.3947 35.057 71.5843 34.8779L71.6063 34.856L71.622 34.831C71.71 34.7058 71.7886 34.5774 71.864 34.4491C71.8626 34.4647 71.8626 34.4804 71.864 34.496C71.9229 34.6423 72.0258 34.7669 72.1586 34.8527C72.2914 34.9384 72.4476 34.9811 72.6057 34.975H72.6214C72.9165 34.9513 73.206 34.8815 73.4794 34.7684H73.4951L73.602 34.7308H73.6271C73.8846 34.6455 74.1605 34.6315 74.4254 34.6901H74.4694H74.5134C74.8281 34.6599 75.1246 34.5292 75.3587 34.3176C75.563 34.5351 75.8111 34.7072 76.0868 34.8227C76.3624 34.9381 76.6595 34.9943 76.9584 34.9875H77.0307H77.1344H77.1627C77.2606 34.9675 77.3494 34.9164 77.4157 34.8419C77.482 34.7674 77.5222 34.6735 77.5304 34.5743C77.5351 34.5348 77.5351 34.4949 77.5304 34.4553C77.5685 34.4521 77.6064 34.4459 77.6435 34.4366C77.7381 34.4174 77.8245 34.37 77.8914 34.3006C77.9582 34.2313 78.0022 34.1433 78.0175 34.0484C78.0367 33.9497 78.0232 33.8475 77.979 33.7572C77.9348 33.6668 77.8623 33.5932 77.7724 33.5475ZM72.2694 32.4958L72.2129 32.5459C72.0842 32.6548 71.9691 32.7788 71.8703 32.9152C71.7949 32.79 71.7446 32.6992 71.7038 32.6022C71.8695 32.578 72.0313 32.5317 72.1846 32.4645H72.2726C72.2757 32.4691 72.2774 32.4745 72.2774 32.4801C72.2774 32.4857 72.2757 32.4911 72.2726 32.4958H72.2694Z" fill="white"/>
<path d="M58.2344 34.5421H58.2155C58.151 34.572 58.0936 34.6154 58.0475 34.6695C58.0014 34.7235 57.9676 34.7868 57.9484 34.8551C57.917 35.2621 57.9075 35.3059 57.7944 35.4311C57.763 35.4655 57.741 35.5469 57.7787 35.5814C57.9321 35.6504 58.0922 35.7039 58.2564 35.741C58.2941 35.741 58.3224 35.6377 58.4041 35.356C58.4481 35.2057 58.4984 35.0429 58.5518 34.877C58.5518 34.877 58.5518 34.852 58.5204 34.7988C58.4889 34.7456 58.3224 34.5421 58.2344 34.5421ZM58.6806 34.5421C58.7221 34.5793 58.7757 34.6004 58.8315 34.6016C58.8755 34.6001 58.9186 34.5883 58.9572 34.5671C59.1565 34.42 59.3181 34.228 59.4286 34.0068C59.4538 33.9379 59.3752 33.8753 59.2746 33.7971C59.2486 33.7796 59.218 33.7702 59.1866 33.7702C59.1553 33.7702 59.1246 33.7796 59.0986 33.7971L58.9886 33.8722C58.8603 33.9528 58.7375 34.0417 58.6209 34.1383C58.5748 34.1828 58.5477 34.2434 58.5455 34.3073C58.5398 34.3433 58.5476 34.3801 58.5675 34.4106C58.6023 34.4549 58.6401 34.4967 58.6806 34.5358V34.5421ZM77.6031 33.8941L77.3548 33.772C77.0853 33.5873 76.8687 33.336 76.7262 33.0427C76.6634 32.9362 76.5943 32.8236 76.522 32.7296C76.4634 32.655 76.397 32.5868 76.324 32.5262C76.2732 32.4872 76.2287 32.4408 76.192 32.3884C75.8636 31.5737 75.652 30.717 75.5634 29.8435C75.527 29.6066 75.4471 29.3785 75.3277 29.1705C74.9159 28.5652 74.4666 27.986 73.9826 27.4363L73.8852 27.3392L73.8601 27.3142L72.2164 25.9556C72.0174 25.8007 71.7931 25.681 71.5533 25.6019C71.3874 25.5453 71.2132 25.5167 71.0379 25.5174C70.8128 25.5157 70.5896 25.5582 70.3811 25.6426C70.2491 25.7115 70.1234 25.7929 70.0008 25.8711C69.7951 26.0147 69.5723 26.1324 69.3377 26.2217C69.1512 26.3007 68.9602 26.3686 68.7657 26.4252C68.3774 26.5147 68.0144 26.6902 67.7034 26.9386L67.4803 27.1452C67.1975 27.4112 67.166 27.4363 66.9366 27.4363C66.4592 27.4161 65.992 27.5772 65.6292 27.887C65.3493 28.1741 65.015 28.4028 64.6456 28.5601C64.4729 28.6122 64.2946 28.6437 64.1144 28.654C63.9203 28.6638 63.7276 28.6932 63.5393 28.7416C63.1137 28.8903 62.7218 29.1211 62.3859 29.4209C62.2728 29.5085 62.1188 29.6275 62.0465 29.6745L61.9271 29.7496C61.525 30.0369 61.0506 30.2071 60.5569 30.241H60.5191C60.3267 30.2267 60.1425 30.1574 59.9886 30.0413C59.8347 29.9253 59.7178 29.7674 59.6518 29.5868C59.5971 29.3877 59.5974 29.1776 59.6527 28.9787C59.7081 28.7798 59.8163 28.5995 59.966 28.4568C60.1169 28.3065 60.2803 28.1594 60.4563 28.0185C60.7136 27.8187 60.9476 27.5909 61.154 27.3392C61.2527 27.1914 61.3014 27.0159 61.2929 26.8385C61.2845 26.6611 61.2192 26.4911 61.1068 26.3532C60.8336 26.1351 60.5091 25.9897 60.164 25.9306H60.1294H60.0572C59.9346 25.9056 59.8183 25.8899 59.6989 25.8617C59.4123 25.7376 59.1403 25.5822 58.8881 25.3984C58.7884 25.5548 58.7441 25.74 58.7624 25.9243C58.8022 26.1392 58.8924 26.3416 59.0256 26.5152C59.1589 26.6887 59.3314 26.8284 59.5292 26.9229L59.5763 26.9417C59.6916 26.9854 59.8145 27.0056 59.9377 27.0012H60.1012C60.1812 26.9983 60.2614 27.0046 60.34 27.0199C60.3811 27.0323 60.4179 27.0558 60.4462 27.0879C60.4746 27.12 60.4933 27.1593 60.5003 27.2015C60.5003 27.2547 60.4814 27.2985 60.4123 27.3518L60.2206 27.5114C59.8779 27.7716 59.562 28.0652 59.2778 28.3879C59.1149 28.6017 59.01 28.8537 58.9732 29.1196C58.9363 29.3854 58.9687 29.6563 59.0672 29.9061C59.1813 30.1691 59.3632 30.3975 59.5944 30.5679C59.8257 30.7383 60.0981 30.8448 60.384 30.8765C60.4735 30.8901 60.5638 30.8975 60.6543 30.8984C60.9408 30.888 61.2248 30.8417 61.4997 30.7607H61.5248C61.5248 30.7607 61.5594 30.7607 61.5657 30.8233C61.5657 30.9422 61.5814 31.08 61.5845 31.2114C61.5845 31.4274 61.6034 31.6278 61.6191 31.7154C61.6669 31.9128 61.7321 32.1055 61.814 32.2914C61.8422 32.3571 61.8611 32.4072 61.8705 32.4323C61.8837 32.4728 61.8854 32.5161 61.8754 32.5576C61.8654 32.599 61.8441 32.6369 61.814 32.667C61.6069 32.8298 61.3683 32.9481 61.1131 33.0145C60.9906 33.0302 60.8586 33.0364 60.7611 33.0427H60.6543C60.6106 33.0466 60.5695 33.0654 60.538 33.0959C60.4523 33.2222 60.3856 33.3604 60.34 33.506C60.296 33.6218 60.2489 33.7376 60.2017 33.8378C60.0565 34.0378 59.863 34.1982 59.6392 34.3042L59.482 34.3981C59.4031 34.5338 59.3058 34.6581 59.1929 34.7675C59.1036 34.8388 58.993 34.8784 58.8786 34.8802C58.7305 35.0816 58.6374 35.3178 58.6084 35.5657C58.6084 35.6033 58.5927 35.6408 58.5832 35.6784V35.7128H58.6052C58.6932 35.7128 58.7812 35.741 58.8724 35.7598C58.9939 35.7897 59.1181 35.8076 59.2432 35.813C59.3527 35.8157 59.4611 35.7898 59.5575 35.7379C59.6969 35.6544 59.8068 35.5296 59.8717 35.381C59.9222 35.286 59.9845 35.1976 60.0572 35.1181C60.078 35.0938 60.1041 35.0747 60.1335 35.0622C60.163 35.0498 60.1949 35.0442 60.2269 35.0461C60.2929 35.0502 60.3583 35.0617 60.4217 35.0805C60.4812 35.0979 60.5423 35.1095 60.604 35.1149C60.8638 35.1064 61.1131 35.0104 61.3111 34.8426C61.3708 34.7957 61.4305 34.7393 61.4871 34.6861C61.5718 34.6013 61.6644 34.5248 61.7637 34.4576C61.9022 34.3972 62.0525 34.3683 62.2037 34.3731C62.4151 34.3809 62.6254 34.4071 62.8322 34.4513C62.9348 34.478 63.0404 34.4917 63.1465 34.492C63.314 34.4942 63.4793 34.4543 63.6273 34.3762L64.0862 34.1289L64.2841 34.0225C64.5046 33.8612 64.6791 33.6454 64.7901 33.3964C64.8593 33.2587 64.9787 32.9644 64.9787 32.9613L64.7053 32.7547V32.7735C64.6153 32.9231 64.5167 33.0673 64.4099 33.2054C63.929 33.8597 63.1528 33.9411 62.5242 33.9411H62.3954C62.046 33.9257 61.6976 33.9873 61.3749 34.1215C61.0522 34.2556 60.7632 34.4591 60.5286 34.7174C60.5239 34.7227 60.518 34.727 60.5115 34.7299C60.505 34.7328 60.498 34.7344 60.4909 34.7344C60.4837 34.7344 60.4767 34.7328 60.4702 34.7299C60.4637 34.727 60.4579 34.7227 60.4531 34.7174C60.449 34.7086 60.4468 34.699 60.4468 34.6892C60.4468 34.6795 60.449 34.6698 60.4531 34.661C60.4626 34.6158 60.4796 34.5724 60.5034 34.5327C60.9906 33.844 61.8234 33.7407 62.4959 33.7282C62.9018 33.7167 63.3009 33.6219 63.6682 33.4496C64.0567 33.2234 64.3477 32.8622 64.4853 32.4354C64.5542 32.1975 64.6046 31.9547 64.6361 31.7092C64.6618 31.5165 64.6974 31.3253 64.743 31.1363C64.7473 31.1247 64.755 31.1147 64.7651 31.1074C64.7751 31.1002 64.7872 31.0961 64.7996 31.0956H64.8153C64.8404 31.0956 64.8876 31.1175 64.8907 31.1551C64.7697 31.5914 64.7697 32.0523 64.8907 32.4886C64.9421 32.5796 65.0203 32.6527 65.1147 32.698C65.2091 32.7434 65.3152 32.7588 65.4187 32.7422C65.5938 32.737 65.7682 32.7182 65.9404 32.6858C66.0755 32.6639 66.2044 32.6451 66.3144 32.6389H66.4558C66.6676 32.6464 66.8781 32.6747 67.0843 32.7234C67.2655 32.7634 67.4493 32.7906 67.6343 32.8048H67.7412C67.8072 32.8048 67.8732 32.8048 67.9423 32.8048C68.0684 32.8146 68.194 32.7802 68.2974 32.7077C68.354 32.6608 68.3351 32.5919 68.2974 32.5011V32.4855C68.2932 32.4685 68.2879 32.4518 68.2817 32.4354C68.244 32.3164 68.1906 32.1411 68.2817 32.0598C68.2965 32.0495 68.314 32.0441 68.332 32.0441C68.3414 32.0435 68.3507 32.0459 68.3586 32.051C68.3666 32.056 68.3726 32.0635 68.376 32.0723C68.376 32.1067 68.3948 32.1411 68.4074 32.1756C68.4404 32.3223 68.4989 32.4622 68.5803 32.5888C68.8154 32.868 69.1066 33.0951 69.4351 33.2555C69.5813 33.3428 69.7063 33.4614 69.8008 33.6027C69.8954 33.744 69.9573 33.9045 69.9819 34.0726C69.9819 34.2447 69.8122 34.3668 69.6897 34.4419C69.4747 34.5573 69.2384 34.6276 68.9951 34.6485C68.908 34.6412 68.8249 34.6085 68.7563 34.5546C68.5646 34.3793 68.5866 34.3167 68.4608 34.1101C68.3956 33.9947 68.321 33.8847 68.2377 33.7814C68.1784 33.7171 68.104 33.6683 68.0213 33.6394C67.9385 33.6104 67.8499 33.6022 67.7632 33.6155C67.5644 33.6356 67.3671 33.668 67.1723 33.7126C67.1512 33.7162 67.1312 33.725 67.1143 33.7381C67.0973 33.7512 67.0838 33.7682 67.0749 33.7877C67.0636 33.8095 67.0577 33.8336 67.0577 33.8581C67.0577 33.8826 67.0636 33.9068 67.0749 33.9285C67.1849 34.1258 67.2949 34.3073 67.408 34.4983L67.4583 34.5828C67.4741 34.6027 67.4949 34.6182 67.5187 34.6275C67.5424 34.6369 67.5682 34.6398 67.5935 34.636H67.7757C67.8134 34.631 67.8516 34.6352 67.8872 34.6483C67.9228 34.6614 67.9547 34.683 67.98 34.7111C68.0146 34.7643 68.046 34.8207 68.0743 34.8739C68.1412 35.0165 68.2376 35.1435 68.3571 35.2464C68.488 35.3538 68.6528 35.4114 68.8223 35.4092C68.899 35.409 68.9752 35.3974 69.0485 35.3748C69.5634 35.2293 70.0633 35.0354 70.5413 34.7957H70.6985H70.8022C70.9677 34.8046 71.1305 34.751 71.2579 34.6454C71.4076 34.4291 71.541 34.202 71.657 33.9661C71.7074 33.8779 71.7339 33.7781 71.7339 33.6766C71.7339 33.575 71.7074 33.4753 71.657 33.387C71.4554 33.0968 71.2936 32.7809 71.1762 32.4479L71.0693 32.4104C70.9931 32.3756 70.911 32.3554 70.8273 32.3509C70.7236 32.3509 70.6513 32.3853 70.6231 32.4448L71.173 33.5279C71.2217 33.619 71.2404 33.723 71.2265 33.8253C71.1407 34.0481 71.0139 34.253 70.8525 34.4294C70.8389 34.44 70.8225 34.4465 70.8053 34.4482C70.8053 34.4482 70.7708 34.4482 70.7896 34.3793C70.8534 34.1435 70.8862 33.9004 70.887 33.6562C70.745 33.3308 70.578 33.0169 70.3873 32.7171C70.3037 32.609 70.2555 32.4778 70.2491 32.3415C70.2521 32.3128 70.2636 32.2856 70.282 32.2633C70.3005 32.2411 70.3251 32.2247 70.3528 32.2163C70.4308 32.1906 70.5106 32.1707 70.5916 32.1568C70.7865 32.113 70.9908 32.0691 71.063 31.9596C71.2905 31.6067 71.4404 31.2098 71.503 30.7951C71.503 30.7732 71.5219 30.7325 71.5533 30.7325C71.5847 30.7325 71.5879 30.7325 71.5973 30.7795C71.6353 31.0089 71.6271 31.2436 71.5731 31.4698C71.5192 31.6961 71.4205 31.9094 71.283 32.0973C71.2633 32.1279 71.2565 32.1651 71.2642 32.2006C71.2728 32.2285 71.2905 32.2527 71.3145 32.2695C71.5776 32.3305 71.8541 32.2891 72.0876 32.1537C72.2926 32.1504 72.4967 32.1273 72.6973 32.0848L72.8827 32.0504C72.8992 32.0597 72.9124 32.0739 72.9204 32.0911C72.7583 32.2757 72.6497 32.5008 72.6061 32.7422C72.5621 32.7891 72.5087 32.8361 72.4615 32.8799C72.2636 33.0179 72.1263 33.2263 72.0781 33.4621C72.0773 33.4737 72.0788 33.4854 72.0827 33.4964C72.0866 33.5074 72.0927 33.5175 72.1007 33.526C72.1086 33.5345 72.1183 33.5413 72.129 33.5459C72.1397 33.5506 72.1513 33.5529 72.163 33.5529C72.1949 33.5516 72.2261 33.543 72.2541 33.5279C72.2836 33.5134 72.3156 33.5049 72.3484 33.5028C72.3622 33.5054 72.3747 33.5122 72.3844 33.5223C72.394 33.5325 72.4001 33.5454 72.4018 33.5592L72.1976 33.8722C72.1704 33.9328 72.1564 33.9984 72.1564 34.0647C72.1564 34.1311 72.1704 34.1967 72.1976 34.2572C72.2196 34.3292 72.1976 34.3825 72.229 34.4451C72.2632 34.5152 72.3177 34.5735 72.3855 34.6125C72.4533 34.6516 72.5312 34.6695 72.6093 34.6642C72.8655 34.6406 73.1166 34.5783 73.3541 34.4795L73.4798 34.4357C73.8042 34.3195 74.1549 34.2967 74.4918 34.3699C74.8069 34.3163 75.0947 34.1586 75.3089 33.9223C75.433 33.9388 75.5457 34.0028 75.6232 34.1007C75.7911 34.2862 75.9976 34.4329 76.2282 34.5307C76.4589 34.6286 76.7082 34.6752 76.9588 34.6673H77.0719C77.1285 34.6673 77.1442 34.6266 77.1474 34.5922C77.1505 34.5577 77.1191 34.5077 77.0562 34.4795L76.742 34.3198C76.4887 34.1954 76.2841 33.9906 76.1606 33.7376C76.078 33.4915 75.9661 33.2561 75.8274 33.0364C75.8054 33.002 75.7834 32.9675 75.7583 32.9331C75.7133 32.8728 75.6734 32.809 75.6389 32.7422C75.9757 32.8925 76.2406 33.1676 76.3774 33.5091C76.4831 33.6861 76.6299 33.8353 76.8054 33.9442C76.9809 34.0532 77.1801 34.1186 77.3862 34.1352C77.439 34.1348 77.4916 34.1295 77.5434 34.1195C77.5627 34.1166 77.5806 34.1078 77.5946 34.0944C77.6087 34.0809 77.6182 34.0634 77.6219 34.0444C77.6423 34.0423 77.6611 34.0322 77.6741 34.0164C77.687 34.0005 77.6932 33.9802 77.6911 33.9599C77.689 33.9395 77.6789 33.9208 77.663 33.9079C77.647 33.895 77.6266 33.8889 77.6062 33.891L77.6031 33.8941ZM71.6979 29.0014C71.6979 29.0327 71.6696 29.0547 71.6476 29.0547C71.6256 29.0547 71.6162 29.0546 71.6067 29.0077C71.5666 28.7133 71.4862 28.4258 71.3679 28.1531C71.3378 28.0945 71.302 28.0389 71.261 27.9872C71.1887 27.887 71.1227 27.7994 71.195 27.6742C71.2108 27.6548 71.231 27.6396 71.254 27.6297C71.277 27.6199 71.3021 27.6158 71.327 27.6178C71.354 27.6182 71.3806 27.6235 71.4056 27.6335C71.5207 27.7086 71.6087 27.8182 71.657 27.9465C71.781 28.2853 71.7953 28.6542 71.6979 29.0014ZM74.4541 33.3839C74.4487 33.4483 74.4235 33.5096 74.3818 33.5592C74.2649 33.6171 74.135 33.644 74.0046 33.6374C73.8946 33.6374 73.8569 33.6187 73.8349 33.5842C73.8129 33.5498 73.8506 33.4715 73.8506 33.4715C73.8895 33.387 73.9452 33.3112 74.0143 33.2488C74.0835 33.1864 74.1646 33.1386 74.2529 33.1084C74.3054 33.0875 74.3639 33.0875 74.4163 33.1084C74.498 33.146 74.4635 33.3432 74.4541 33.3839ZM75.2083 31.6653C75.2006 31.7264 75.1825 31.7856 75.1549 31.8406C75.1464 31.8637 75.131 31.8836 75.1108 31.8976C75.0905 31.9117 75.0664 31.9191 75.0417 31.9189C74.96 31.9189 74.9663 31.8219 74.9632 31.8093C74.9603 31.6797 74.9391 31.5512 74.9003 31.4274C74.8437 31.3053 74.586 30.9579 74.4163 30.9704C74.3285 31.0003 74.2526 31.0574 74.1995 31.1332C74.1083 31.2521 74.1084 31.2678 74.0801 31.2834C74.0518 31.2991 74.0141 31.2834 74.0015 31.2208C73.9795 31.1345 73.9795 31.0442 74.0015 30.9579C74.0263 30.8672 74.0621 30.78 74.1083 30.6981C74.1083 30.6981 74.1901 30.5103 74.2215 30.4633C74.2412 30.428 74.2699 30.3984 74.3046 30.3776C74.3393 30.3567 74.3789 30.3453 74.4195 30.3443C74.4651 30.3435 74.5102 30.354 74.5508 30.3747C74.5913 30.3955 74.6261 30.4259 74.652 30.4633C74.7029 30.5213 74.7462 30.5854 74.7809 30.6542C74.8293 30.7322 74.8863 30.8046 74.9506 30.8702C75.0627 31.001 75.1443 31.155 75.1895 31.321C75.2159 31.4306 75.2223 31.5441 75.2083 31.6559V31.6653ZM68.7091 33.8566C68.7563 33.9325 68.7973 34.012 68.8317 34.0945C68.8945 34.2322 68.948 34.348 69.0108 34.3699C69.0399 34.375 69.0697 34.375 69.0988 34.3699C69.2753 34.3565 69.4437 34.2911 69.5828 34.1821C69.6645 34.1132 69.6362 34.0694 69.6017 34.0099C69.5871 33.9881 69.5745 33.9651 69.5639 33.9411C69.5309 33.8703 69.5035 33.797 69.4822 33.7219C69.4414 33.5842 69.41 33.4684 69.2622 33.4872C69.0489 33.5179 68.8335 33.5325 68.618 33.531C68.618 33.531 68.5426 33.531 68.5206 33.5811C68.4986 33.6312 68.552 33.6906 68.6148 33.747C68.6514 33.7762 68.6842 33.8098 68.7123 33.8472L68.7091 33.8566Z" fill="black"/>
<path d="M98.2686 35.3403C98.2454 35.2989 98.2275 35.2547 98.2152 35.2089C98.2152 35.1463 98.1932 35.0805 98.1837 35.0179C98.1768 34.9241 98.1578 34.8315 98.1272 34.7425C98.1049 34.6954 98.0698 34.6555 98.0259 34.6273C97.982 34.5991 97.9311 34.5837 97.8789 34.5828C97.8429 34.5837 97.8075 34.5922 97.7752 34.6079C97.6212 34.6861 97.53 34.7675 97.5552 34.9397C97.6287 35.1636 97.6896 35.3914 97.7375 35.6221C97.7375 35.6596 97.7689 35.7849 97.8286 35.7849L98.2717 35.6409C98.282 35.6378 98.2916 35.6326 98.2997 35.6256C98.3078 35.6186 98.3144 35.6099 98.3189 35.6002C98.3597 35.5344 98.3126 35.4374 98.2686 35.3403ZM97.6117 34.251C97.5091 34.1254 97.3846 34.0194 97.2441 33.938C97.1875 33.9004 97.1372 33.866 97.1026 33.8378L97.0775 33.819C97.0499 33.7944 97.014 33.781 96.9769 33.7814C96.9122 33.7901 96.8509 33.8154 96.7991 33.8549C96.7472 33.8945 96.7067 33.9468 96.6815 34.0068C96.6815 34.0913 96.7978 34.2416 96.9549 34.4263L96.9895 34.467C97.0516 34.5501 97.1443 34.6052 97.2472 34.6204C97.2924 34.6203 97.3372 34.611 97.3788 34.5933C97.4203 34.5755 97.4579 34.5496 97.4892 34.5171C97.5426 34.4639 97.6715 34.323 97.6117 34.251ZM87.2219 33.6249C87.1416 33.6347 87.0608 33.64 86.9799 33.6406H86.763C86.7191 33.6371 86.675 33.6371 86.631 33.6406C86.5477 33.7782 86.4991 33.934 86.4896 34.0945C86.5116 34.2792 86.7002 34.3167 86.8447 34.3449C86.9005 34.3574 86.9573 34.3648 87.0144 34.3668C87.055 34.3719 87.0961 34.3648 87.1325 34.3464C87.1689 34.328 87.1989 34.2991 87.2187 34.2635C87.2929 34.08 87.3466 33.889 87.379 33.6938C87.3834 33.6856 87.3857 33.6765 87.3857 33.6672C87.3857 33.6579 87.3834 33.6488 87.379 33.6406C87.3512 33.6165 87.3152 33.6042 87.2784 33.6062L87.2219 33.6249ZM97.2786 34.924C97.0241 34.9397 96.8638 34.7331 96.7098 34.5327C96.6636 34.469 96.6132 34.4083 96.5589 34.3512C96.4828 34.2663 96.4009 34.1868 96.3138 34.1133C96.2362 34.0552 96.1692 33.9843 96.1158 33.9035C96.0686 33.7867 96.0308 33.6663 96.0027 33.5435C95.9744 33.4434 95.9492 33.3495 95.9272 33.2837C95.9272 33.2837 95.9272 33.2587 95.9272 33.243C95.8801 33.121 95.8235 32.9676 95.6632 32.93C95.5799 32.919 95.4959 32.9127 95.4118 32.9112C95.3044 32.9207 95.1962 32.9063 95.0951 32.8689C94.994 32.8315 94.9025 32.7722 94.8273 32.6952C94.7851 32.6287 94.7627 32.5516 94.7627 32.473C94.7627 32.3943 94.7851 32.3172 94.8273 32.2507C94.8534 32.191 94.8744 32.1292 94.8901 32.066C94.9784 31.7855 94.9945 31.4874 94.9373 31.1989C94.9373 31.1614 94.9153 31.1207 94.9027 31.0831C94.8595 30.9848 94.8432 30.8767 94.8556 30.7701C94.8636 30.7515 94.8773 30.736 94.8949 30.7258C94.9125 30.7157 94.9328 30.7114 94.953 30.7137C94.9979 30.7163 95.0423 30.7247 95.085 30.7388L95.1699 30.7607C95.5726 30.8655 95.9991 30.8313 96.3798 30.6637C96.6325 30.5503 96.8477 30.3677 97.0002 30.1371C97.1526 29.9065 97.2361 29.6375 97.2409 29.3614C97.1812 28.751 96.8041 28.1625 96.0844 27.5615L96.031 27.5177C95.9367 27.4394 95.8235 27.3455 95.8204 27.2579C95.8172 27.1702 96.0404 27.1201 96.1818 27.0857L96.2698 27.0638H96.3075C96.4899 27.0279 96.6644 26.9601 96.8229 26.8635C97.0117 26.7138 97.1533 26.5133 97.2307 26.2857C97.3082 26.0581 97.3183 25.8131 97.2598 25.58C97.258 25.5697 97.258 25.5591 97.2598 25.5487C97.2598 25.5049 97.2378 25.4517 97.1969 25.4517C97.1897 25.4521 97.1826 25.454 97.1761 25.4572C97.1696 25.4604 97.1639 25.4649 97.1592 25.4705L97.1121 25.5143C97.0522 25.5759 96.9846 25.6295 96.9109 25.6739C96.7389 25.763 96.5529 25.8223 96.3609 25.8492C96.2386 25.8717 96.1179 25.9021 95.9995 25.94C95.7935 25.9864 95.6011 26.0798 95.4375 26.2129C95.2738 26.346 95.1435 26.5151 95.0567 26.7069C95.0291 26.8078 95.0227 26.9132 95.0379 27.0166C95.053 27.12 95.0894 27.2192 95.1447 27.308C95.3252 27.5707 95.5362 27.8113 95.7733 28.0248C96.141 28.3754 96.5212 28.7385 96.6092 29.2331C96.6308 29.3778 96.6081 29.5257 96.5442 29.6574C96.4804 29.7892 96.3782 29.8987 96.251 29.9719C96.0805 30.0675 95.8871 30.1151 95.6915 30.1096C95.42 30.1069 95.153 30.0404 94.9121 29.9155C94.613 29.7571 94.3234 29.5815 94.0447 29.3896C93.6348 29.0889 93.1854 28.8456 92.7091 28.6665C92.4957 28.5803 92.2733 28.5183 92.046 28.4818C91.7199 28.4412 91.4079 28.3254 91.1346 28.1438C91.0434 28.0843 90.9523 28.0185 90.8674 27.9559C90.6401 27.7693 90.3801 27.626 90.1006 27.5333C89.9979 27.5025 89.8928 27.4805 89.7863 27.4676C89.6335 27.4582 89.4855 27.4108 89.3558 27.3299L89.1735 27.1984C88.958 27.0315 88.7288 26.8828 88.4884 26.7539C88.0762 26.5674 87.6423 26.4328 87.1967 26.3532C87.0549 26.3052 86.934 26.2102 86.8542 26.084C86.792 25.9986 86.7167 25.9236 86.631 25.8618C86.3272 25.5746 85.9305 25.4048 85.5122 25.3828H85.3928C85.1699 25.4264 84.9652 25.5354 84.8051 25.6958C84.3808 26.0652 83.9251 26.397 83.482 26.7132C82.7887 27.1784 82.1452 27.7134 81.5618 28.3097C80.9898 28.8982 80.7824 29.6307 80.5813 30.3412C80.553 30.4445 80.5215 30.551 80.4901 30.6543C80.4367 30.8483 80.3864 31.0487 80.3393 31.2428C80.0784 32.2914 79.805 33.3369 78.7679 34.0162C78.754 34.0251 78.7429 34.0377 78.7359 34.0526C78.7289 34.0675 78.7262 34.084 78.7282 34.1004C78.7301 34.1167 78.7367 34.1321 78.747 34.1449C78.7574 34.1577 78.7711 34.1674 78.7867 34.1727C78.9493 34.2182 79.1216 34.2158 79.2827 34.1658C79.4439 34.1158 79.5871 34.0204 79.695 33.891C79.9684 33.578 80.1067 33.2649 80.4273 32.9206C80.4273 32.9206 80.4744 32.8768 80.5058 32.883C80.5373 32.8893 80.5373 32.9018 80.5278 32.9425C80.4818 33.0765 80.4126 33.2015 80.3236 33.3119C80.2346 33.428 80.1637 33.5568 80.113 33.6938C79.9722 33.9958 79.7557 34.2567 79.4844 34.4513C79.461 34.4659 79.4398 34.4838 79.4216 34.5045C79.3996 34.5327 79.3996 34.5452 79.3996 34.5452C79.3996 34.611 79.4467 34.6517 79.5504 34.6579C80.1381 34.6579 80.5593 34.2416 80.9647 33.8378C80.9736 33.8287 80.9844 33.8218 80.9964 33.8174C81.0083 33.8131 81.0211 33.8115 81.0338 33.8128C81.0554 33.807 81.0782 33.807 81.0998 33.8128C81.1483 33.8484 81.1945 33.8871 81.2381 33.9286C81.3598 34.058 81.5138 34.1531 81.6844 34.204C81.8849 34.1715 82.0877 34.1537 82.2909 34.1508H82.4512C82.6649 34.2166 82.8817 34.2948 83.0797 34.3731C83.2274 34.4294 83.394 34.4858 83.5291 34.5359C83.724 34.5359 83.8654 34.348 83.9691 34.1853C84.0036 34.0763 84.0036 33.9593 83.9691 33.8503C83.9542 33.7867 83.9468 33.7216 83.9471 33.6562C83.9921 33.6417 84.0405 33.6417 84.0854 33.6562C84.1314 33.6613 84.1777 33.6613 84.2237 33.6562C84.2393 33.6529 84.254 33.6465 84.2671 33.6374C84.2801 33.6284 84.2912 33.6168 84.2997 33.6034C84.3082 33.5899 84.3139 33.575 84.3165 33.5593C84.3191 33.5437 84.3185 33.5277 84.3148 33.5122C84.27 33.342 84.1897 33.1831 84.0791 33.0458C83.9913 32.9284 83.9214 32.7986 83.8717 32.6608C83.7919 32.4828 83.6776 32.3221 83.5354 32.1881C83.3766 32.0461 83.2583 31.8646 83.1929 31.6622C83.1929 31.6622 83.1929 31.6184 83.1929 31.6027C83.1929 31.5871 83.2494 31.6027 83.2494 31.6027C83.3186 31.6528 83.3909 31.7123 83.46 31.7687C83.6642 31.968 83.918 32.1095 84.1954 32.1787C84.4693 32.2156 84.7459 32.2271 85.0219 32.2132C85.0378 32.2115 85.053 32.2064 85.0667 32.1982C85.0803 32.1901 85.092 32.179 85.101 32.166C85.1099 32.1529 85.1159 32.138 85.1186 32.1224C85.1212 32.1067 85.1204 32.0907 85.1162 32.0754C84.9933 31.8309 84.8944 31.5751 84.8208 31.3116C84.7002 30.9351 84.6807 30.5336 84.7642 30.1472C84.7672 30.132 84.7754 30.1183 84.7875 30.1086C84.7996 30.0988 84.8147 30.0937 84.8302 30.0939C84.8522 30.1028 84.8713 30.1173 84.8857 30.136C84.9001 30.1547 84.9092 30.177 84.912 30.2004V30.2536C84.9497 30.8139 84.9874 31.3429 85.3331 31.7968C85.4239 31.9235 85.5448 32.0257 85.6851 32.0942C85.7791 32.1379 85.8643 32.1984 85.9365 32.2726C85.9717 32.3222 85.9933 32.3799 85.9994 32.4403C86.0055 32.5006 85.9957 32.5615 85.9711 32.617L85.5499 33.243C85.4457 33.3769 85.3668 33.5286 85.3174 33.6907C85.2954 33.8412 85.2954 33.9941 85.3174 34.1446V34.179C85.3032 34.1715 85.2921 34.1593 85.2859 34.1446C85.2089 34.0341 85.1581 33.9077 85.1374 33.7748C85.1167 33.6419 85.1267 33.5061 85.1665 33.3776C85.2231 33.2493 85.5656 32.7516 85.6662 32.6045C85.6976 32.5544 85.7228 32.5012 85.6976 32.4667C85.5899 32.3919 85.468 32.3397 85.3394 32.3133C85.2815 32.3372 85.2337 32.3803 85.2042 32.4354L85.1822 32.4698L84.6605 33.4089V33.4434C84.6215 33.533 84.6105 33.6323 84.6291 33.7282C84.6579 33.8645 84.6935 33.9993 84.736 34.1321C84.736 34.1634 84.7548 34.1947 84.7611 34.226C84.791 34.3692 84.8463 34.5059 84.9245 34.6298C84.9464 34.6555 84.974 34.6759 85.005 34.6895C85.0361 34.703 85.0698 34.7094 85.1037 34.708C85.1434 34.711 85.1833 34.711 85.2231 34.708C85.2855 34.6973 85.3493 34.6973 85.4116 34.708C85.4867 34.7345 85.5523 34.7824 85.6002 34.8458C85.6523 34.9145 85.7232 34.9667 85.8045 34.996C85.9648 35.0492 86.1188 35.0931 86.2979 35.1369C86.5203 35.1907 86.7396 35.2565 86.9547 35.3341C87.076 35.3776 87.2031 35.403 87.3319 35.4092C87.3958 35.4101 87.4592 35.3984 87.5185 35.3748C87.5779 35.3511 87.6319 35.316 87.6776 35.2715C87.8229 35.1555 87.9184 34.9887 87.9447 34.8051C87.9793 34.6266 88.039 34.6141 88.1678 34.6079C88.2139 34.6098 88.2599 34.6023 88.303 34.5859C88.4512 34.4674 88.5713 34.3177 88.6549 34.1477L88.7367 34.01C88.7618 33.9752 88.776 33.9338 88.7775 33.891C88.7775 33.8743 88.7742 33.8578 88.7677 33.8424C88.7611 33.827 88.7516 33.813 88.7396 33.8013C88.7276 33.7897 88.7134 33.7805 88.6977 33.7744C88.6821 33.7683 88.6654 33.7654 88.6487 33.7658H88.6172C88.6172 33.7658 88.061 33.7658 87.9101 33.7658C87.6807 33.7658 87.5958 33.9974 87.5016 34.1884C87.4741 34.2595 87.4416 34.3286 87.4041 34.395C87.3726 34.4496 87.3266 34.4945 87.2712 34.5248C87.2158 34.5552 87.153 34.5698 87.0899 34.5672C87.0271 34.5598 86.9651 34.5472 86.9044 34.5296C86.5902 34.4576 86.2948 34.3793 86.169 34.0851C86.1559 34.0439 86.1531 34.0001 86.1607 33.9576C86.1684 33.915 86.1863 33.875 86.213 33.8409C86.3904 33.6272 86.5871 33.4302 86.8007 33.2524C86.9605 33.2138 87.1109 33.1438 87.2431 33.0465C87.3753 32.9492 87.4867 32.8266 87.5707 32.6858C87.6032 32.6372 87.6266 32.5831 87.6398 32.5262C87.6566 32.4425 87.7021 32.3672 87.7687 32.3133C87.819 32.2883 87.8567 32.2977 87.8661 32.3384C87.879 32.4948 87.8486 32.6518 87.7781 32.7923L87.7404 32.8893V32.9144H87.7656C87.8503 32.9191 87.9353 32.9191 88.0201 32.9144C88.319 32.906 88.6167 32.8714 88.9095 32.8111C89.1981 32.7509 89.4916 32.7163 89.7863 32.7078H89.8838C90.0189 32.7078 90.1478 32.7078 90.2735 32.7297C90.3767 32.7434 90.4805 32.7528 90.5846 32.7578H90.7134C90.8723 32.7681 91.0304 32.7283 91.1652 32.644C91.3 32.5597 91.4048 32.4352 91.4646 32.2883C91.5445 31.8874 91.5359 31.4741 91.4394 31.0769C91.4405 31.0612 91.4405 31.0455 91.4394 31.0299C91.4394 31.008 91.4394 30.9861 91.4677 30.9736C91.496 30.961 91.5431 30.9736 91.5588 31.0205C91.691 31.411 91.7836 31.8137 91.8354 32.2226C91.8997 32.572 92.0379 32.9039 92.2408 33.1961C92.3791 33.4003 92.5667 33.5666 92.7864 33.6798C93.006 33.793 93.2507 33.8495 93.4979 33.8441C93.6191 33.8393 93.7398 33.8267 93.8593 33.8065C93.9157 33.8007 93.9726 33.8007 94.029 33.8065C94.3502 33.805 94.6672 33.8784 94.9548 34.0208C95.2424 34.1633 95.4926 34.3707 95.6852 34.6266C95.6872 34.6305 95.6882 34.6348 95.6882 34.6392C95.6882 34.6435 95.6872 34.6478 95.6852 34.6517C95.6835 34.658 95.6804 34.664 95.6762 34.6691C95.672 34.6742 95.6668 34.6784 95.6608 34.6813C95.6549 34.6843 95.6484 34.686 95.6418 34.6862C95.6352 34.6865 95.6286 34.6854 95.6224 34.683L95.5658 34.6392C95.2206 34.317 94.7935 34.0951 94.3307 33.9974C94.2415 33.982 94.151 33.9747 94.0605 33.9755C93.9238 33.9779 93.7873 33.9884 93.6519 34.0068C93.5248 34.0238 93.3967 34.0332 93.2685 34.035C93.1191 34.0374 92.9708 34.0108 92.8317 33.9567C92.5693 33.8402 92.3326 33.6732 92.1352 33.4653C91.9378 33.2574 91.7836 33.0127 91.6814 32.7453C91.6758 32.7343 91.6672 32.725 91.6567 32.7184C91.6462 32.7118 91.6341 32.7081 91.6217 32.7078C91.6049 32.7087 91.5886 32.7141 91.5746 32.7234C91.5117 32.7641 91.4991 32.786 91.4897 32.8236C91.5023 32.9711 91.5254 33.1175 91.5588 33.2618C91.5787 33.4503 91.64 33.6321 91.7383 33.7944C91.8366 33.9567 91.9695 34.0955 92.1277 34.2009C92.3313 34.3678 92.5769 34.4761 92.8379 34.5139C92.9193 34.5249 93.0017 34.5249 93.0831 34.5139C93.2233 34.4825 93.3667 34.4668 93.5105 34.467C93.9828 34.4714 94.4416 34.6248 94.821 34.9052C94.8868 34.9455 94.9489 34.9916 95.0064 35.043C95.0859 35.1193 95.1785 35.1808 95.2798 35.2245C95.3463 35.2492 95.4164 35.2629 95.4873 35.2652C95.6118 35.2633 95.7326 35.2228 95.833 35.1494C95.8788 35.1262 95.9292 35.1134 95.9807 35.1118C96.1221 35.1118 96.2007 35.2214 96.2949 35.3623C96.3588 35.4574 96.4325 35.5455 96.5149 35.6252C96.6399 35.7276 96.7998 35.7781 96.9612 35.7661H97.1906C97.2629 35.7661 97.3509 35.7661 97.398 35.7661H97.4672V35.7473C97.4557 35.4573 97.3874 35.1723 97.2661 34.9084L97.2786 34.924ZM82.5077 33.6093C82.4884 33.6352 82.4625 33.6556 82.4327 33.6682C82.4029 33.6809 82.3702 33.6854 82.338 33.6813C82.2704 33.6818 82.204 33.6633 82.1463 33.6281C82.0909 33.5851 82.0462 33.53 82.0156 33.467C81.9851 33.4041 81.9696 33.3349 81.9703 33.2649C81.9663 33.2432 81.9685 33.2207 81.9769 33.2002C81.9852 33.1796 81.9993 33.1619 82.0175 33.1491C82.0391 33.136 82.0646 33.1305 82.0898 33.1335C82.2235 33.1434 82.3483 33.2039 82.4386 33.3025C82.4386 33.3025 82.5549 33.4716 82.4889 33.5936L82.5077 33.6093ZM82.6523 31.2929C82.6383 31.3188 82.6152 31.3388 82.5875 31.3492C82.5598 31.3595 82.5292 31.3595 82.5015 31.3492C82.4444 31.3188 82.3991 31.2703 82.3726 31.2115C82.3349 31.1489 82.3066 31.0925 82.2218 31.0988C82.15 31.1087 82.0831 31.1404 82.0301 31.1895C81.9986 31.2146 81.8792 31.3022 81.8478 31.3304C81.6751 31.4442 81.5447 31.6114 81.4769 31.8062C81.4769 31.8751 81.4769 31.8751 81.4549 31.9095C81.454 31.9427 81.4463 31.9754 81.4322 32.0056C81.4182 32.0357 81.3981 32.0627 81.3732 32.0848H81.3418C81.3151 32.0845 81.2894 32.0745 81.2695 32.0566C81.2587 32.0494 81.2499 32.0396 81.2439 32.0281C81.2379 32.0166 81.2348 32.0039 81.2349 31.9909C81.2169 31.8349 81.2359 31.6768 81.2905 31.5294C81.3451 31.3821 81.4337 31.2495 81.5492 31.1426C81.6955 31.0132 81.8273 30.8684 81.9421 30.7106C81.9986 30.6355 82.0583 30.5604 82.1212 30.4884C82.1841 30.4164 82.2438 30.4884 82.3726 30.6198C82.4904 30.7825 82.5895 30.9579 82.668 31.1426C82.6716 31.1662 82.6704 31.1903 82.6644 31.2134C82.6585 31.2365 82.648 31.2582 82.6335 31.2772L82.6523 31.2929ZM85.4274 27.4144L85.2294 27.5959C84.9912 27.7967 84.78 28.0271 84.6008 28.2815C84.5281 28.3868 84.466 28.499 84.4154 28.6164C84.4154 28.6164 84.3965 28.654 84.3714 28.654C84.3583 28.6535 84.3459 28.6479 84.3368 28.6383C84.3059 28.4648 84.3233 28.2862 84.3871 28.1218C84.5583 27.7192 84.8392 27.3722 85.1979 27.1201C85.2406 27.0944 85.2894 27.0803 85.3394 27.0794C85.3708 27.0774 85.4021 27.085 85.4291 27.1012C85.4561 27.1174 85.4774 27.1415 85.4902 27.1702C85.505 27.2122 85.5046 27.258 85.4891 27.2997C85.4736 27.3414 85.444 27.3765 85.4054 27.3987L85.4274 27.4144Z" fill="black"/>
<path d="M43.0366 14.2641H49.5106L46.0913 8.76418L39.8059 18.6935H36.9366L44.5891 6.77642C44.7562 6.53477 44.9802 6.33763 45.2416 6.20228C45.5029 6.06693 45.7936 5.99751 46.0882 6.0001C46.3774 5.99702 46.663 6.06409 46.9203 6.19553C47.1777 6.32696 47.399 6.51881 47.5653 6.75451L55.2336 18.6935H52.3737L51.0254 16.4804H44.4697L43.0397 14.2704M72.7449 16.4804V6.12532H70.3124V17.4946C70.3136 17.6502 70.3459 17.8039 70.4074 17.9469C70.4689 18.0898 70.5584 18.2192 70.6707 18.3273C70.7856 18.4446 70.9229 18.5378 71.0746 18.6012C71.2263 18.6647 71.3893 18.6971 71.5538 18.6967H82.61L84.0493 16.4773H72.7355M32.587 14.6241C33.6984 14.5941 34.7542 14.1332 35.5297 13.3396C36.3051 12.5459 36.739 11.4822 36.739 10.3747C36.739 9.26727 36.3051 8.20353 35.5297 7.40989C34.7542 6.61625 33.6984 6.15537 32.587 6.12532H21.9771V18.6967H24.4033V8.34158H32.4456C32.9874 8.34158 33.5069 8.55595 33.89 8.93753C34.2731 9.31912 34.4884 9.83665 34.4884 10.3763C34.4884 10.9159 34.2731 11.4335 33.89 11.815C33.5069 12.1966 32.9874 12.411 32.4456 12.411H25.6007L32.8478 18.6967H36.3677L31.4996 14.6273H32.6059M7.05854 18.6967H14.3937C16.0674 18.6967 17.6725 18.0344 18.856 16.8556C20.0394 15.6768 20.7043 14.0781 20.7043 12.411C20.7043 10.7439 20.0394 9.14514 18.856 7.96635C17.6725 6.78756 16.0674 6.12532 14.3937 6.12532H7.04597C6.21724 6.12532 5.39664 6.2879 4.631 6.60378C3.86536 6.91967 3.16968 7.38267 2.58369 7.96635C1.99769 8.55003 1.53285 9.24295 1.21572 10.0056C0.898577 10.7682 0.735352 11.5855 0.735352 12.411C0.735352 13.2364 0.898577 14.0538 1.21572 14.8164C1.53285 15.579 1.99769 16.272 2.58369 16.8556C3.16968 17.4393 3.86536 17.9023 4.631 18.2182C5.39664 18.5341 6.21724 18.6967 7.04597 18.6967M14.2177 16.4804H7.20939C6.12583 16.4804 5.08665 16.0517 4.32046 15.2885C3.55427 14.5253 3.12383 13.4903 3.12383 12.411C3.12383 11.3317 3.55427 10.2966 4.32046 9.53349C5.08665 8.77032 6.12583 8.34158 7.20939 8.34158H14.2177C15.3013 8.34158 16.3404 8.77032 17.1066 9.53349C17.8728 10.2966 18.3033 11.3317 18.3033 12.411C18.3033 13.4903 17.8728 14.5253 17.1066 15.2885C16.3404 16.0517 15.3013 16.4804 14.2177 16.4804ZM60.2997 18.6935H67.7888L69.2156 16.4804H60.4631C59.3795 16.4804 58.3404 16.0517 57.5742 15.2885C56.808 14.5253 56.3775 13.4903 56.3775 12.411C56.3775 11.3317 56.808 10.2966 57.5742 9.53349C58.3404 8.77032 59.3795 8.34158 60.4631 8.34158H67.5782L69.0145 6.11906H60.3028C59.462 6.10037 58.626 6.24918 57.8437 6.55674C57.0615 6.86431 56.3488 7.32444 55.7475 7.91011C55.1463 8.49579 54.6685 9.1952 54.3424 9.96731C54.0162 10.7394 53.8482 11.5686 53.8482 12.4063C53.8482 13.244 54.0162 14.0732 54.3424 14.8453C54.6685 15.6174 55.1463 16.3168 55.7475 16.9025C56.3488 17.4882 57.0615 17.9483 57.8437 18.2559C58.626 18.5634 59.462 18.7122 60.3028 18.6935M89.9765 16.4804C89.0869 16.4805 88.2215 16.1913 87.5119 15.6568C86.8023 15.1224 86.2872 14.3718 86.045 13.5191H96.416L97.8459 11.3029H86.045C86.2872 10.4502 86.8023 9.69962 87.5119 9.16514C88.2215 8.63066 89.0869 8.3415 89.9765 8.34158H97.098L98.5216 6.11906H89.8163C88.1426 6.11906 86.5374 6.7813 85.354 7.96009C84.1705 9.13889 83.5056 10.7377 83.5056 12.4047C83.5056 14.0718 84.1705 15.6706 85.354 16.8494C86.5374 18.0282 88.1426 18.6904 89.8163 18.6904H97.3054L98.7291 16.4773H89.9765" fill="white"/>
</g>
<defs>
<clipPath id="clip0_559_1160">
<rect width="98" height="54.4604" fill="white" transform="translate(0.727539)"/>
</clipPath>
</defs>
</svg>
