<svg width="102" height="30" viewBox="0 0 102 30" fill="none" xmlns="http://www.w3.org/2000/svg">
<path d="M44.7538 12.2559C43.8538 12.2559 43.4441 12.4506 42.8718 13.0343C42.2989 13.7154 40.9898 15.2716 40.744 15.7586C40.5802 15.9534 40.6621 16.2449 40.744 16.4397C41.3989 17.8018 42.626 18.1907 44.4267 18.1907H57.7663C58.6663 18.1907 59.0759 17.9959 59.6483 17.4122C60.2212 16.7312 61.5303 15.1749 61.776 14.688C61.9399 14.4932 61.858 14.2017 61.776 14.0069C61.1212 12.6447 59.894 12.2559 58.0934 12.2559H44.7538Z" fill="white"/>
<path d="M79.1253 9.14941C78.3072 8.66313 77.8976 8.56574 77.1614 8.85723C76.3433 9.14941 74.6246 9.82979 74.2155 10.122C73.9697 10.2194 73.9697 10.5109 73.9697 10.7056C74.0517 12.2626 75.0336 13.3325 76.5885 14.3051L88.5371 21.5047C89.3552 21.991 89.7648 22.0884 90.501 21.7969C91.3191 21.5047 93.0378 20.8243 93.4469 20.5321C93.6927 20.4347 93.6927 20.1432 93.6927 19.9485C93.6107 18.3915 92.6288 17.3216 91.0739 16.349L79.1253 9.14941Z" fill="white"/>
<path d="M69.1377 0.782384C68.9739 0.684989 68.8106 0.587594 68.5648 0.782384C68.1558 1.07457 66.928 2.53341 66.4371 3.21448C65.9461 3.89555 65.7822 4.28444 65.7822 5.2577V25.591C65.7822 27.5368 66.1094 28.899 67.1732 29.6775C67.3371 29.7748 67.5004 29.8722 67.7462 29.6775C68.1552 29.3853 69.383 27.9264 69.8739 27.2454C70.3649 26.5643 70.5288 26.1754 70.5288 25.2021V4.9662C70.6113 2.92299 70.2836 1.56085 69.1377 0.782384Z" fill="white"/>
<path d="M100.325 0.782384C100.161 0.684989 99.9981 0.587594 99.7523 0.782384C99.3433 1.07457 98.1155 2.53341 97.6246 3.21448C97.1336 3.89555 96.9697 4.28444 96.9697 5.2577V25.591C96.9697 27.5368 97.2969 28.899 98.3607 29.6775C98.5246 29.7748 98.6879 29.8722 98.9337 29.6775C99.3427 29.3853 100.57 27.9264 101.061 27.2454C101.552 26.5643 101.716 26.1754 101.716 25.2021V4.9662C101.798 2.92299 101.471 1.56085 100.325 0.782384Z" fill="white"/>
<path d="M13.9847 9.14941C13.1666 8.66313 12.757 8.56574 12.0208 8.85723C11.2027 9.14941 9.48394 9.82979 9.07488 10.122C8.8291 10.2194 8.8291 10.4142 8.8291 10.7056C8.91103 12.2626 9.89299 13.3325 11.4479 14.3051L23.3964 21.5047C24.2145 21.991 24.6242 22.0884 25.3604 21.7969C26.1785 21.5047 27.8972 20.8243 28.3063 20.5321C28.552 20.4347 28.552 20.1432 28.552 19.9485C28.4701 18.3915 27.4882 17.3216 25.9333 16.349L13.9847 9.14941Z" fill="white"/>
<path d="M4.00114 0.782384C3.83728 0.684989 3.67401 0.587594 3.51016 0.782384C3.1011 1.07457 1.87336 2.53341 1.38238 3.21448C0.891394 3.79816 0.727539 4.18705 0.727539 5.2577V25.591C0.727539 27.5368 1.05466 28.899 2.11855 29.6775C2.28241 29.7748 2.44568 29.8722 2.69146 29.6775C3.10052 29.3853 4.32826 27.9264 4.81924 27.2454C5.31022 26.5643 5.47408 26.1754 5.47408 25.2021V4.9662C5.47408 2.92299 5.14696 1.56085 4.00114 0.782384Z" fill="white"/>
<path d="M35.1846 0.782384C35.0208 0.684989 34.8575 0.587594 34.6117 0.782384C34.2027 1.07457 32.9749 2.53341 32.4839 3.21448C31.993 3.89555 31.8291 4.28444 31.8291 5.2577V25.591C31.8291 27.5368 32.1562 28.899 33.2201 29.6775C33.384 29.7748 33.5472 29.8722 33.793 29.6775C34.2021 29.3853 35.4298 27.9264 35.9208 27.2454C36.4118 26.5643 36.5756 26.1754 36.5756 25.2021V4.9662C36.5756 2.92299 36.2485 1.56085 35.1846 0.782384Z" fill="white"/>
</svg>
