<svg width="112" height="29" viewBox="0 0 112 29" fill="none" xmlns="http://www.w3.org/2000/svg">
<g style="mix-blend-mode:screen" clip-path="url(#clip0_559_1171)">
<path d="M24.3759 16.1875C24.3759 22.8139 19.0813 28.1875 12.552 28.1875C6.02212 28.1875 0.727539 22.8139 0.727539 16.1875C0.727539 9.5611 6.02212 4.1875 12.552 4.1875C19.0813 4.1875 24.3759 9.5611 24.3759 16.1875Z" fill="white"/>
<path d="M19.3328 10.413C19.0494 9.67976 18.5737 9.03716 18.0426 8.49836C17.4825 7.96858 16.8306 7.54641 16.1192 7.25276C15.6587 7.06577 15.1754 6.94127 14.6822 6.88256C12.9187 6.62336 11.0609 7.17296 9.71342 8.54336C8.15763 10.1226 7.61099 12.4344 8.29728 14.5866V14.6076C7.86622 14.8807 7.47138 15.2077 7.12223 15.5808C6.58096 16.1568 6.14233 16.8264 5.85826 17.5596C5.57991 18.2952 5.44028 19.0765 5.44649 19.8636C5.44649 20.6634 5.61179 21.4236 5.92152 22.1304C6.20558 22.8636 6.68121 23.5062 7.21175 24.045C7.77186 24.5747 8.42375 24.9969 9.13515 25.2906C9.83158 25.5786 10.5829 25.7088 11.3426 25.7088C11.2352 25.7088 11.1296 25.7034 11.0245 25.6986C11.8432 25.7433 12.662 25.6126 13.4266 25.3151C14.1913 25.0176 14.8843 24.5601 15.4598 23.973C16.224 23.203 16.7618 22.2358 17.014 21.178C17.2662 20.1202 17.223 19.013 16.889 17.9784C17.3486 17.6989 17.7677 17.3571 18.1345 16.9626C18.6758 16.3866 19.115 15.717 19.3985 14.9838C19.6771 14.2482 19.8172 13.4669 19.8114 12.6798C19.8122 11.899 19.6502 11.1268 19.3358 10.413M14.2352 10.8396C14.194 10.6514 14.1746 10.4592 14.1773 10.2666C14.3903 10.3038 14.5926 10.3674 14.795 10.4526C15.079 10.5726 15.3261 10.7676 15.5176 10.9914C15.7015 11.2236 15.8644 11.4744 15.9563 11.7624C16.0565 12.0504 16.0852 12.3384 16.0852 12.6264C16.0533 13.1733 15.8244 13.6899 15.4413 14.0796L14.2358 10.8426L14.2352 10.8396ZM15.6125 14.5386C15.6489 14.5038 15.6859 14.469 15.7176 14.4288C15.964 14.1678 16.1192 13.8906 16.2481 13.5648C16.377 13.2396 16.4033 12.8874 16.4033 12.5706C16.4033 12.2184 16.3114 11.901 16.1825 11.613C16.0536 11.325 15.8357 11.0634 15.6149 10.8426C15.3941 10.6476 15.1101 10.4526 14.8266 10.3596C14.6219 10.2852 14.3981 10.2528 14.1725 10.2372C14.1814 9.86247 14.2757 9.49482 14.4482 9.16256C14.7054 9.21296 14.9525 9.29036 15.1918 9.40256C15.6304 9.59696 15.9796 9.88496 16.2899 10.2024C16.5739 10.5546 16.8311 10.9356 16.9863 11.3544C17.1415 11.7732 17.2071 12.2106 17.2071 12.6636C17.2071 13.1172 17.1152 13.5648 16.9236 13.9464C16.7663 14.3478 16.519 14.7073 16.201 14.997C16.0982 15.0904 15.9894 15.1768 15.8751 15.2556L15.6096 14.541L15.6125 14.5386ZM16.0404 15.6876C16.2046 15.5642 16.3601 15.4297 16.5059 15.285C16.8264 14.9328 17.1098 14.4852 17.265 14.0394C17.4566 13.557 17.5222 13.0746 17.5222 12.5994C17.5222 12.1254 17.4041 11.6424 17.2101 11.1972C17.02 10.7611 16.7427 10.369 16.3955 10.0452C16.0482 9.73016 15.6728 9.46916 15.2336 9.31136C14.9858 9.22474 14.7299 9.16402 14.4697 9.13016C14.5795 8.92496 14.7138 8.73536 14.8791 8.56496C15.008 8.43416 15.15 8.32256 15.2968 8.22656C15.415 8.26856 15.5308 8.31656 15.6436 8.37056C16.1921 8.6051 16.6853 8.95304 17.0913 9.39176C17.5043 9.81056 17.814 10.3572 18.0348 10.8954C18.2556 11.4714 18.3476 12.0744 18.3476 12.6504C18.3225 13.2439 18.1953 13.8285 17.9716 14.3784C17.7508 14.8902 17.4046 15.3624 16.9917 15.7812C16.7796 15.9967 16.5445 16.1878 16.2905 16.3512L16.0404 15.6822V15.6876ZM9.88947 24.2958C9.79676 24.2604 9.70558 24.2212 9.61615 24.1782C9.06765 23.9436 8.57437 23.5957 8.16837 23.157C7.75541 22.7382 7.44568 22.1916 7.22487 21.6504C7.01527 21.0894 6.91008 20.4945 6.91455 19.8954C6.93837 19.3017 7.06562 18.7168 7.29052 18.1674C7.51133 17.6556 7.85805 17.1834 8.27102 16.7652C8.46664 16.5654 8.68222 16.3865 8.91434 16.2312L9.16917 16.9032C9.02383 17.0148 8.88606 17.1361 8.75679 17.2662C8.43633 17.6184 8.15226 18.0666 7.9977 18.5118C7.80554 18.9942 7.73989 19.4772 7.73989 19.9518C7.73989 20.4258 7.85805 20.9088 8.0526 21.3546C8.24274 21.7906 8.52001 22.1827 8.8672 22.5066C9.21392 22.821 9.58929 23.0826 10.0309 23.2398C10.2547 23.3196 10.4886 23.3754 10.7226 23.4102C10.6145 23.6074 10.48 23.7887 10.3227 23.949C10.1932 24.0804 10.0486 24.1958 9.89186 24.2928M10.0679 23.1438C9.62928 22.9488 9.28016 22.6608 8.96984 22.3434C8.68578 21.9918 8.43096 21.6102 8.27341 21.1914C8.12222 20.7718 8.04742 20.3284 8.0526 19.8822C8.0526 19.4292 8.1445 18.981 8.33666 18.5994C8.49183 18.1914 8.74844 17.8374 9.05876 17.5494C9.14589 17.469 9.23779 17.397 9.33208 17.3274L9.60541 18.0534C9.58452 18.0744 9.56363 18.093 9.54275 18.117C9.29568 18.3756 9.14052 18.6558 9.01162 18.981C8.88271 19.3062 8.85646 19.6584 8.85646 19.9758C8.85646 20.3298 8.94836 20.6448 9.07726 20.9328C9.20616 21.2208 9.42399 21.4824 9.64479 21.7038C9.8656 21.8982 10.1497 22.0932 10.4331 22.1862C10.6223 22.2528 10.8246 22.2882 11.0323 22.3038C11.0157 22.6768 10.9159 23.0414 10.7405 23.3706C10.5086 23.3203 10.283 23.2443 10.0679 23.1438ZM10.9851 21.6954C11.0245 21.8874 11.0377 22.0794 11.0323 22.269C10.8394 22.2298 10.651 22.1709 10.4701 22.0932C10.1861 21.9732 9.939 21.7782 9.74744 21.5544C9.56363 21.3222 9.40071 21.0714 9.30881 20.7834C9.20855 20.4954 9.17991 20.2074 9.17991 19.9194C9.21063 19.3939 9.42347 18.8959 9.78146 18.5118L10.9851 21.6954ZM7.35676 23.9436C6.81489 23.3946 6.44191 22.7622 6.15784 22.0584C5.91137 21.3888 5.78187 20.6184 5.78187 19.8852C5.81887 19.1514 5.97404 18.4182 6.2581 17.7492C6.54157 17.0712 6.9802 16.4664 7.48507 15.957C7.79204 15.6484 8.13628 15.3797 8.50973 15.1572L8.70428 15.669C8.40708 15.8664 8.13137 16.0878 7.88968 16.3572C7.44914 16.8258 7.10695 17.3788 6.88352 17.9832C6.66271 18.5862 6.5732 19.2288 6.5732 19.869C6.6102 20.5008 6.72836 21.141 6.98557 21.717C7.24129 22.2929 7.60545 22.8137 8.05797 23.2506C8.50286 23.6772 9.02461 24.0147 9.59526 24.2448C9.67642 24.2772 9.75818 24.3036 9.83994 24.333C9.46652 24.5554 9.04321 24.6792 8.60939 24.693C8.45484 24.6959 8.30053 24.6797 8.14987 24.645C7.86545 24.4381 7.60074 24.2051 7.35915 23.949M19.01 14.8026C18.7259 15.4794 18.2873 16.0848 17.7824 16.5942C17.4587 16.9208 17.093 17.2025 16.6951 17.4318L16.5059 16.9218C16.828 16.7191 17.1222 16.4746 17.3808 16.1946C17.8194 15.7194 18.1685 15.1728 18.3869 14.5674C18.6077 13.965 18.6973 13.3224 18.6973 12.6822C18.6603 12.0504 18.5421 11.4102 18.2843 10.8342C17.7747 9.68248 16.8388 8.77574 15.6752 8.30636C15.5685 8.26441 15.4598 8.22796 15.3494 8.19716C15.8811 7.87617 16.5153 7.77305 17.1206 7.90916C17.407 8.11676 17.672 8.35136 17.9083 8.60516C18.4502 9.15416 18.8232 9.78356 19.1066 10.4904C19.3537 11.1594 19.4826 11.9304 19.4826 12.6636C19.4462 13.3968 19.2911 14.133 19.007 14.7996" fill="#001731"/>
<path d="M31.9739 24.0432C30.8019 23.6958 29.859 23.2482 29.1494 22.6962L30.3973 19.8852C31.0776 20.3922 31.8874 20.8002 32.8255 21.1068C33.7637 21.4128 34.7012 21.5682 35.6393 21.5682C36.6855 21.5682 37.4553 21.4104 37.9548 21.096C38.4537 20.7816 38.7032 20.3628 38.7032 19.8402C38.7032 19.4562 38.5564 19.1358 38.2616 18.8826C37.9674 18.6294 37.589 18.4266 37.1265 18.2718C36.664 18.117 36.0416 17.949 35.2532 17.7654C34.0418 17.4744 33.0511 17.1816 32.2813 16.8906C31.5112 16.5997 30.8276 16.116 30.2952 15.4854C29.7432 14.8398 29.4675 13.9812 29.4675 12.9066C29.4675 11.9706 29.7169 11.1198 30.2158 10.3602C30.7153 9.60001 31.4667 8.99761 32.4734 8.55181C33.4796 8.10661 34.7096 7.88281 36.1621 7.88281C37.1766 7.88281 38.1673 8.00521 39.134 8.25061C40.1008 8.49601 40.95 8.85061 41.6775 9.30961L40.5424 12.144C39.0738 11.3016 37.6075 10.8774 36.1382 10.8774C35.1088 10.8774 34.3491 11.0478 33.858 11.3838C33.3668 11.7228 33.1198 12.168 33.1198 12.72C33.1198 13.272 33.4032 13.6854 33.9708 13.9518C34.5383 14.2218 35.4054 14.4858 36.5697 14.7468C37.7812 15.0372 38.7718 15.3306 39.5416 15.621C40.3079 15.908 40.9906 16.383 41.5277 17.0028C42.0797 17.6322 42.3554 18.4848 42.3554 19.56C42.3629 20.4588 42.0982 21.3386 41.5963 22.0824C41.0891 22.8426 40.327 23.445 39.3155 23.8908C38.3009 24.336 37.0686 24.5568 35.6155 24.5568C34.3823 24.5601 33.1552 24.3851 31.9716 24.0372M46.7381 22.6476C45.4742 21.3732 44.844 19.5516 44.844 17.1894V8.15941H48.5201V17.0508C48.5201 19.9386 49.6993 21.381 52.062 21.381C53.2102 21.381 54.0904 21.0318 54.6949 20.3334C55.2989 19.6344 55.6038 18.5412 55.6038 17.0508V8.16001H59.2352V17.1894C59.2352 19.5546 58.602 21.3732 57.3404 22.6476C56.0771 23.9226 54.3112 24.5598 52.0411 24.5598C49.7703 24.5598 48.0045 23.9226 46.7411 22.6476M72.5486 8.87461C73.584 9.34861 74.3831 10.0266 74.9423 10.9014C75.5021 11.7756 75.7831 12.813 75.7831 14.0106C75.7831 15.2076 75.505 16.2264 74.9423 17.109C74.3831 17.9916 73.584 18.669 72.5486 19.1358C71.5138 19.605 70.2892 19.8396 68.8832 19.8396H65.6827V24.2856H62.0066V8.15941H68.8832C70.2916 8.15941 71.5138 8.39641 72.5486 8.87341V8.87461ZM71.1981 16.0716C71.7734 15.5892 72.0599 14.9016 72.0599 14.0106C72.0599 13.1196 71.7734 12.4104 71.1981 11.928C70.6228 11.445 69.782 11.202 68.6785 11.202H65.6827V16.8H68.6785C69.782 16.8 70.6228 16.557 71.1981 16.074M88.5643 24.285L85.5004 19.7916H82.1185V24.2856H78.4424V8.15941H85.319C86.7274 8.15941 87.9496 8.39641 88.9844 8.87341C90.0198 9.34861 90.8189 10.0254 91.3781 10.9008C91.9378 11.775 92.2189 12.8124 92.2189 14.01C92.2189 15.207 91.9354 16.242 91.3679 17.1084C90.8004 17.9784 89.9935 18.639 88.9504 19.1004L92.5137 24.2844L88.5643 24.285ZM87.6339 11.928C87.0586 11.445 86.2177 11.202 85.1143 11.202H82.1185V16.824H85.1143C86.2177 16.824 87.0586 16.578 87.6339 16.0878C88.2092 15.597 88.4956 14.9064 88.4956 14.016C88.4956 13.125 88.2092 12.4158 87.6339 11.9304M106.388 20.829H99.0114L97.603 24.285H93.835L100.917 8.16001H104.548L111.653 24.285H107.796L106.388 20.829ZM105.229 17.9946L102.708 11.8206L100.189 17.9946H105.229Z" fill="white"/>
</g>
<defs>
<clipPath id="clip0_559_1171">
<rect width="111" height="28.4141" fill="white" transform="translate(0.727539 0.0234375)"/>
</clipPath>
</defs>
</svg>
