<svg width="322" height="159" viewBox="0 0 322 159" fill="none" xmlns="http://www.w3.org/2000/svg">
<path opacity="0.3" d="M30 1L30 139" stroke="#273F58" stroke-linecap="round" stroke-dasharray="1 2 1 2"/>
<path d="M30 1H144C145.105 1 146 1.89543 146 3V31C146 32.1046 145.105 33 144 33H30V1Z" fill="#4DA2FF"/>
<path d="M30 109H322V140H30V109Z" fill="#4C5565"/>
<path d="M30 73H322V104H30V73Z" fill="#4C5565"/>
<path d="M30 37H260C261.105 37 262 37.8954 262 39V67C262 68.1046 261.105 69 260 69H30V37Z" fill="#4C5565"/>
<path d="M3.58 21.11C2.01 21.11 0.93 20.21 0.72 18.71H1.77C1.89 19.74 2.59 20.26 3.59 20.26C4.66 20.26 5.28 19.7 5.28 18.91C5.28 18.08 4.74 17.91 3.66 17.63L2.78 17.4C1.73 17.13 0.91 16.55 0.91 15.4C0.91 14.19 2.07 13.29 3.47 13.29C4.95 13.29 5.9 14.13 6.1 15.38H5.05C4.85 14.51 4.26 14.14 3.47 14.14C2.63 14.14 1.91 14.6 1.91 15.3C1.91 16.02 2.36 16.25 3.39 16.52L4.27 16.75C5.65 17.11 6.28 17.61 6.28 18.8C6.28 20.16 5.17 21.11 3.58 21.11ZM9.77195 21.11C8.59195 21.11 7.98195 20.18 7.98195 18.98V15.64H8.96195V18.83C8.96195 19.91 9.42195 20.39 10.172 20.39C10.922 20.39 11.372 19.9 11.372 18.81V15.64H12.352V21H11.372V19.93C11.152 20.55 10.632 21.11 9.77195 21.11ZM14.4439 21V20.26H16.5939V16.38H14.7539V15.64H17.5739V20.26H19.7239V21H14.4439ZM16.3339 14.64V13.4H17.5739V14.64H16.3339Z" fill="#ACC8E5"/>
<path d="M144.797 158.11C142.987 158.11 141.857 156.73 141.857 154.2C141.857 151.67 142.987 150.29 144.797 150.29C146.607 150.29 147.737 151.67 147.737 154.2C147.737 156.73 146.607 158.11 144.797 158.11ZM142.877 154.2C142.877 154.86 142.947 155.42 143.087 155.87L145.977 151.57C145.667 151.25 145.267 151.08 144.797 151.08C143.597 151.08 142.877 152.15 142.877 154.2ZM143.617 156.82C143.927 157.15 144.327 157.32 144.797 157.32C145.997 157.32 146.717 156.25 146.717 154.2C146.717 153.54 146.647 152.98 146.497 152.52L143.617 156.82ZM150.879 158V156.76H152.119V158H150.879ZM158.451 158.11C156.971 158.11 155.931 157.31 155.771 155.99H156.791C156.871 156.77 157.501 157.32 158.431 157.32C159.351 157.32 160.111 156.7 160.111 155.46C160.111 154.19 159.271 153.61 158.451 153.61C157.651 153.61 157.061 154.05 156.781 154.72L155.821 154.62L156.191 150.4H160.691V151.22H157.091L156.851 154.03C157.131 153.39 157.811 152.82 158.751 152.82C159.931 152.82 161.131 153.72 161.131 155.46C161.131 157.2 159.861 158.11 158.451 158.11Z" fill="#ACC8E5"/>
<path d="M270.629 158V157.18H272.909V152.33H270.779V151.51H271.639C272.629 151.51 272.959 151.21 273.109 150.63L273.169 150.4H273.909V157.18H276.069V158H270.629Z" fill="#ACC8E5"/>
<path d="M3.58 57.11C2.01 57.11 0.93 56.21 0.72 54.71H1.77C1.89 55.74 2.59 56.26 3.59 56.26C4.66 56.26 5.28 55.7 5.28 54.91C5.28 54.08 4.74 53.91 3.66 53.63L2.78 53.4C1.73 53.13 0.91 52.55 0.91 51.4C0.91 50.19 2.07 49.29 3.47 49.29C4.95 49.29 5.9 50.13 6.1 51.38H5.05C4.85 50.51 4.26 50.14 3.47 50.14C2.63 50.14 1.91 50.6 1.91 51.3C1.91 52.02 2.36 52.25 3.39 52.52L4.27 52.75C5.65 53.11 6.28 53.61 6.28 54.8C6.28 56.16 5.17 57.11 3.58 57.11ZM10.212 57.11C8.65195 57.11 7.67195 55.98 7.67195 54.32C7.67195 52.66 8.65195 51.53 10.212 51.53C11.772 51.53 12.742 52.66 12.742 54.32C12.742 55.98 11.772 57.11 10.212 57.11ZM8.67195 54.32C8.67195 55.57 9.22195 56.39 10.212 56.39C11.202 56.39 11.742 55.57 11.742 54.32C11.742 53.07 11.202 52.25 10.212 52.25C9.22195 52.25 8.67195 53.07 8.67195 54.32ZM14.4439 57V56.26H16.5939V50.14H14.7539V49.4H17.5739V56.26H19.7239V57H14.4439Z" fill="#ACC8E5"/>
<path d="M0.23 93L2.49 85.4H4.52L6.78 93H5.7L5.07 90.84H1.94L1.31 93H0.23ZM2.2 89.94H4.81L3.51 85.45L2.2 89.94ZM9.25195 93L7.55195 87.64H8.55195L10.212 92.95L11.862 87.64H12.862L11.162 93H9.25195ZM16.2839 93.11C15.3139 93.11 14.5339 92.38 14.5339 91.39C14.5339 90.14 15.7439 89.9 16.6839 89.8L18.0839 89.65V89.56V89.54C18.0839 88.84 17.7039 88.25 16.8939 88.25C16.1739 88.25 15.7639 88.71 15.7039 89.22H14.7039C14.8139 88.21 15.6739 87.53 16.8939 87.53C18.4839 87.53 19.0639 88.55 19.0639 89.55V89.57V93H18.0839V91.9C17.7239 92.65 17.2939 93.11 16.2839 93.11ZM15.5339 91.39C15.5339 92.08 16.0539 92.46 16.6539 92.46C17.6039 92.46 18.0839 91.67 18.0839 90.72V90.32L17.0539 90.43C16.4239 90.5 15.5339 90.6 15.5339 91.39Z" fill="#ACC8E5"/>
<path d="M1.26 129V121.4H6.09V122.3H2.27V124.63H6.02V125.53H2.27V128.1H6.19V129H1.26ZM10.952 129C9.95195 129 9.29195 128.51 9.29195 127.53V127.51V124.38H7.28195V123.64H9.29195V122.37H10.272V123.64H12.652V124.38H10.272V127.51V127.53C10.272 128.05 10.512 128.26 11.052 128.26H12.652V129H10.952ZM14.7539 129V121.4H15.7339V124.72C15.9739 124.08 16.4939 123.53 17.3639 123.53C18.5439 123.53 19.1739 124.46 19.1739 125.66V125.68V129H18.1939V125.83V125.81C18.1939 124.72 17.7139 124.25 16.9639 124.25C16.2139 124.25 15.7339 124.73 15.7339 125.83V129H14.7539Z" fill="#ACC8E5"/>
<path opacity="0.3" d="M152 1L152 139" stroke="#ACC8E5" stroke-linecap="round" stroke-dasharray="1 2 1 2"/>
<path opacity="0.3" d="M274 1L274 139" stroke="#ACC8E5" stroke-linecap="round" stroke-dasharray="1 2 1 2"/>
</svg>
