<svg width="303" height="157" viewBox="0 0 303 157" fill="none" xmlns="http://www.w3.org/2000/svg">
<path d="M77.0293 4.00001C77.0293 1.79087 78.8202 0 81.0293 0H146C148.21 0 150 1.79086 150 4V135.998C150 137.102 149.105 137.998 148 137.998H79.0293C77.9247 137.998 77.0293 137.102 77.0293 135.998V4.00001Z" fill="#F7F7F8" fill-opacity="0.1"/>
<path d="M77 91.2891C77 89.0799 78.7909 87.2891 81 87.2891H146C148.209 87.2891 150 89.0799 150 91.2891V138H77V91.2891Z" fill="#ACC8E5" fill-opacity="0.25"/>
<path d="M154 4C154 1.79086 155.791 0 158 0H222C224.209 0 226 1.79086 226 4V136C226 137.105 225.105 138 224 138H156C154.895 138 154 137.105 154 136V4Z" fill="#F7F7F8" fill-opacity="0.1"/>
<path d="M154 122C154 119.791 155.791 118 158 118H222C224.209 118 226 119.791 226 122V138H154V122Z" fill="#ACC8E5" fill-opacity="0.25"/>
<path d="M230 4C230 1.79086 231.791 0 234 0H299C301.209 0 303 1.79086 303 4V136C303 137.105 302.105 138 301 138H232C230.895 138 230 137.105 230 136V4Z" fill="#F7F7F8" fill-opacity="0.1"/>
<mask id="mask0_994_1139" style="mask-type:alpha" maskUnits="userSpaceOnUse" x="230" y="0" width="73" height="138">
<path d="M230 4C230 1.79086 231.791 0 234 0H299C301.209 0 303 1.79086 303 4V136C303 137.105 302.105 138 301 138H232C230.895 138 230 137.105 230 136V4Z" fill="#F7F7F8"/>
</mask>
<g mask="url(#mask0_994_1139)">
<path d="M230 138C230 136.895 230.895 136 232 136H301C302.105 136 303 136.895 303 138V138H230V138Z" fill="#ACC8E5" fill-opacity="0.25"/>
</g>
<path d="M29.58 156.11C28.01 156.11 26.93 155.21 26.72 153.71H27.77C27.89 154.74 28.59 155.26 29.59 155.26C30.66 155.26 31.28 154.7 31.28 153.91C31.28 153.08 30.74 152.91 29.66 152.63L28.78 152.4C27.73 152.13 26.91 151.55 26.91 150.4C26.91 149.19 28.07 148.29 29.47 148.29C30.95 148.29 31.9 149.13 32.1 150.38H31.05C30.85 149.51 30.26 149.14 29.47 149.14C28.63 149.14 27.91 149.6 27.91 150.3C27.91 151.02 28.36 151.25 29.39 151.52L30.27 151.75C31.65 152.11 32.28 152.61 32.28 153.8C32.28 155.16 31.17 156.11 29.58 156.11ZM35.772 156.11C34.592 156.11 33.982 155.18 33.982 153.98V150.64H34.962V153.83C34.962 154.91 35.422 155.39 36.172 155.39C36.922 155.39 37.372 154.9 37.372 153.81V150.64H38.352V156H37.372V154.93C37.152 155.55 36.632 156.11 35.772 156.11ZM40.4439 156V155.26H42.5939V151.38H40.7539V150.64H43.5739V155.26H45.7239V156H40.4439ZM42.3339 149.64V148.4H43.5739V149.64H42.3339Z" fill="#ACC8E5"/>
<path d="M106.58 156.11C105.01 156.11 103.93 155.21 103.72 153.71H104.77C104.89 154.74 105.59 155.26 106.59 155.26C107.66 155.26 108.28 154.7 108.28 153.91C108.28 153.08 107.74 152.91 106.66 152.63L105.78 152.4C104.73 152.13 103.91 151.55 103.91 150.4C103.91 149.19 105.07 148.29 106.47 148.29C107.95 148.29 108.9 149.13 109.1 150.38H108.05C107.85 149.51 107.26 149.14 106.47 149.14C105.63 149.14 104.91 149.6 104.91 150.3C104.91 151.02 105.36 151.25 106.39 151.52L107.27 151.75C108.65 152.11 109.28 152.61 109.28 153.8C109.28 155.16 108.17 156.11 106.58 156.11ZM113.212 156.11C111.652 156.11 110.672 154.98 110.672 153.32C110.672 151.66 111.652 150.53 113.212 150.53C114.772 150.53 115.742 151.66 115.742 153.32C115.742 154.98 114.772 156.11 113.212 156.11ZM111.672 153.32C111.672 154.57 112.222 155.39 113.212 155.39C114.202 155.39 114.742 154.57 114.742 153.32C114.742 152.07 114.202 151.25 113.212 151.25C112.222 151.25 111.672 152.07 111.672 153.32ZM117.444 156V155.26H119.594V149.14H117.754V148.4H120.574V155.26H122.724V156H117.444Z" fill="#ACC8E5"/>
<path d="M178.23 156L180.49 148.4H182.52L184.78 156H183.7L183.07 153.84H179.94L179.31 156H178.23ZM180.2 152.94H182.81L181.51 148.45L180.2 152.94ZM187.252 156L185.552 150.64H186.552L188.212 155.95L189.862 150.64H190.862L189.162 156H187.252ZM194.284 156.11C193.314 156.11 192.534 155.38 192.534 154.39C192.534 153.14 193.744 152.9 194.684 152.8L196.084 152.65V152.56V152.54C196.084 151.84 195.704 151.25 194.894 151.25C194.174 151.25 193.764 151.71 193.704 152.22H192.704C192.814 151.21 193.674 150.53 194.894 150.53C196.484 150.53 197.064 151.55 197.064 152.55V152.57V156H196.084V154.9C195.724 155.65 195.294 156.11 194.284 156.11ZM193.534 154.39C193.534 155.08 194.054 155.46 194.654 155.46C195.604 155.46 196.084 154.67 196.084 153.72V153.32L195.054 153.43C194.424 153.5 193.534 153.6 193.534 154.39Z" fill="#ACC8E5"/>
<path d="M258.26 156V148.4H263.09V149.3H259.27V151.63H263.02V152.53H259.27V155.1H263.19V156H258.26ZM267.952 156C266.952 156 266.292 155.51 266.292 154.53V154.51V151.38H264.282V150.64H266.292V149.37H267.272V150.64H269.652V151.38H267.272V154.51V154.53C267.272 155.05 267.512 155.26 268.052 155.26H269.652V156H267.952ZM271.754 156V148.4H272.734V151.72C272.974 151.08 273.494 150.53 274.364 150.53C275.544 150.53 276.174 151.46 276.174 152.66V152.68V156H275.194V152.83V152.81C275.194 151.72 274.714 151.25 273.964 151.25C273.214 151.25 272.734 151.73 272.734 152.83V156H271.754Z" fill="#ACC8E5"/>
<path d="M0 4.00001C0 1.79087 1.79086 0 4 0H69C71.2091 0 73 1.79086 73 4V137.998H0V4.00001Z" fill="#F7F7F8" fill-opacity="0.1"/>
<path d="M0 4C0 1.79086 1.79086 0 4 0H69C71.2091 0 73 1.79086 73 4V138H0V4Z" fill="#4DA2FF"/>
</svg>
