<svg width="108" height="48" viewBox="0 0 108 48" fill="none" xmlns="http://www.w3.org/2000/svg">
<path d="M12.1253 34L0 27.0027V13.0081L12.1182 6L24.2399 12.9973L24.2471 26.9919L12.1253 34Z" fill="white"/>
<path d="M41.6212 18.9211V22.0366H45.4922C45.4922 22.384 45.4922 27.2577 45.4922 27.4905C44.2353 28.1601 42.3911 28.5505 40.4 28.5505C35.7447 28.5505 32.2317 24.9551 32.2317 20.178C32.2317 15.8307 35.3794 11.7734 39.9273 11.7734C41.6176 11.7734 44.0419 12.1637 45.9721 14.0259L48.3033 11.5406C46.8101 9.99362 43.8844 8.34277 40.1494 8.34277C32.6435 8.34277 28.7617 14.4771 28.7617 20.1816C28.7617 25.17 31.956 31.666 40.4573 31.666C45.6283 31.666 48.7904 29.6105 48.7904 29.6105V18.9247H41.6176L41.6212 18.9211Z" fill="white"/>
<path d="M56.2506 18.9178C56.2506 18.5668 56.2506 12.4827 56.2506 12.1389H60.4082C62.4887 12.1389 64.8522 12.7262 64.8522 15.5266C64.8522 17.8041 63.4807 18.9142 60.4117 18.9214H56.2542L56.2506 18.9178ZM68.333 15.5266C68.2936 13.5785 67.6418 9.19173 61.2282 9.19531H52.9453V31.1506H56.2542C56.2542 31.1506 56.2506 22.4057 56.2506 22.0476C56.58 22.0476 59.7063 22.0476 59.8817 22.0476C59.9928 22.2052 66.4816 31.147 66.4816 31.147H70.6141C70.6141 31.147 63.5236 21.9187 63.1799 21.4603C66.1843 20.9805 68.401 18.3484 68.333 15.5301" fill="white"/>
<path d="M87.772 9.18164L72.9932 9.1888V31.1405L87.772 31.1333V28.0142H76.2949C76.2949 27.6633 76.2913 21.8692 76.2913 21.5147H84.9932V18.392H76.2913V12.315H87.772V9.18522V9.18164Z" fill="white"/>
<path d="M106.714 9.18164L91.9316 9.1888V31.1405L106.714 31.1333V28.0142H95.2405C95.2405 27.6633 95.2369 21.8692 95.2369 21.5147H103.939V18.392H95.2369C95.2369 18.0447 95.2369 12.6588 95.2369 12.315H106.718V9.18522L106.714 9.18164Z" fill="white"/>
</svg>
