<svg width="106" height="48" viewBox="0 0 106 48" fill="none" xmlns="http://www.w3.org/2000/svg">
<path d="M4.60081 13.899H76.76V10H0V12.0553V13.899V29.8236V31.1492V33.7226H32.59L38.3828 29.9573V25.3119L31.4314 29.8236H4.60081V13.899Z" fill="white"/>
<path d="M101.735 33.7227H105.695V19.0625H101.735V33.7227ZM103.673 17.9374C104.787 17.9374 105.695 17.035 105.701 15.921C105.701 14.807 104.798 13.8991 103.684 13.8936C102.57 13.8936 101.662 14.7959 101.657 15.9099C101.657 17.0239 102.559 17.9262 103.673 17.9318V17.9374ZM93.4189 18.7951C91.5696 18.7784 89.8485 19.7253 88.8738 21.2961C87.4311 18.8676 84.2897 18.0655 81.8556 19.5137C81.4991 19.7253 81.1705 19.9815 80.8753 20.2712V19.0625H77.1712V33.7227H81.1259V24.8609C81.176 23.4572 82.329 22.3432 83.7382 22.3488C85.0973 22.3599 86.1946 23.4684 86.1835 24.8274C86.1835 24.8441 86.1835 24.8664 86.1835 24.8831V33.7227H90.1437V24.8609C90.1939 23.4517 91.3524 22.3432 92.7616 22.3488C94.1207 22.3599 95.218 23.4684 95.2068 24.8274C95.2068 24.8386 95.2068 24.8497 95.2068 24.8609V33.7227H99.1448V24.6269C99.2451 21.5077 96.7943 18.8954 93.6751 18.7951C93.5915 18.7951 93.508 18.7951 93.4189 18.7951ZM70.5262 28.0859C70.4872 29.5174 69.312 30.6536 67.8805 30.6425C66.5103 30.6314 65.4018 29.5174 65.413 28.1416C65.413 28.1249 65.413 28.1026 65.413 28.0859V19.0625H61.4583V28.2585C61.4583 32.2467 64.338 34.1739 67.2901 34.1739C68.6491 34.1962 69.9358 33.5779 70.7713 32.5029V33.7171H74.4809V19.0625H70.5262V28.0859ZM55.0584 20.0707C53.8942 19.2296 52.4906 18.784 51.0536 18.7951C46.8092 18.6782 43.2723 22.0313 43.1553 26.2756C43.0383 30.52 46.3915 34.0569 50.6358 34.1739C50.7751 34.1739 50.9143 34.1739 51.048 34.1739C52.4739 34.1906 53.8664 33.7561 55.0305 32.9318C54.9191 34.9815 53.1813 36.5578 51.1315 36.4687C49.6499 36.4798 48.2686 35.7446 47.4498 34.5081L44.3974 36.491C45.5114 38.7524 48.0959 40.0001 51.0814 40.0001C56.5901 40.0001 58.8181 36.2125 58.8181 31.9682V19.0625H55.0528V20.0707H55.0584ZM51.0591 30.6091C48.7699 30.5255 46.9875 28.6039 47.071 26.3146C47.149 24.1479 48.8924 22.4045 51.0591 22.3265C53.276 22.4045 55.0138 24.2482 54.9581 26.465C55.0138 28.6819 53.276 30.5255 51.0591 30.6091Z" fill="white"/>
</svg>
