<svg width="144" height="48" viewBox="0 0 144 48" fill="none" xmlns="http://www.w3.org/2000/svg">
<path d="M18.1807 12.3907C20.6748 13.8489 23.5083 14.7572 26.5277 14.9566C26.9459 14.9842 27.3676 14.9982 27.7926 14.9982C30.3921 14.9982 32.8732 14.4735 35.1429 13.5209V5.80939C32.8732 6.76212 30.3921 7.28682 27.7926 7.28682C24.2996 7.28682 21.0202 6.33942 18.1807 4.67922C18.1203 4.64389 18.0601 4.60819 18 4.57227V12.2811C18.0605 12.3173 18.1207 12.3538 18.1807 12.3907Z" fill="white"/>
<path d="M8.20767 32.6997C11.7006 32.6997 14.9801 33.647 17.8196 35.3073C17.8878 35.3472 17.9558 35.3875 18.0235 35.4282V27.7194C17.9553 27.6786 17.8873 27.6374 17.8197 27.5959C15.3255 26.1376 12.492 25.2293 9.47254 25.0299C9.05434 25.0022 8.63262 24.9883 8.20767 24.9883C5.60822 24.9883 3.12704 25.5129 0.857422 26.4656V34.1771C3.12704 33.2244 5.60822 32.6997 8.20767 32.6997Z" fill="white"/>
<path d="M8.20767 21.1334C8.29339 21.1334 8.37897 21.1339 8.46439 21.1351C9.50382 21.1489 10.5238 21.2466 11.5182 21.4221C13.7734 21.8198 15.8973 22.617 17.8195 23.7409C17.9408 23.8118 18.0613 23.8841 18.1811 23.9576C20.6751 25.4158 23.5086 26.3241 26.528 26.5235C26.7933 26.541 27.06 26.553 27.3282 26.5596C27.3974 26.5612 27.4668 26.5625 27.5361 26.5634C27.6216 26.5646 27.7071 26.5651 27.7929 26.5651C30.3924 26.5651 32.8735 26.0405 35.1432 25.0878V17.3763C32.8735 18.329 30.3924 18.8537 27.7929 18.8537C27.7071 18.8537 27.6216 18.8531 27.5361 18.852C26.4967 18.8382 25.4768 18.7404 24.4824 18.565C22.2271 18.1672 20.1033 17.37 18.181 16.2462C18.0597 16.1752 17.9392 16.103 17.8195 16.0295C15.3255 14.5712 12.492 13.6629 9.47254 13.4635C9.20719 13.446 8.94049 13.434 8.67244 13.4275C8.60314 13.4259 8.53384 13.4245 8.46439 13.4236C8.37897 13.4225 8.29339 13.4219 8.20767 13.4219C5.60822 13.4219 3.12704 13.9466 0.857422 14.8993V22.6107C3.12704 21.658 5.60822 21.1334 8.20767 21.1334Z" fill="white"/>
<path d="M50.0996 31.2492V9.64922H58.6646C60.1246 9.64922 61.3196 9.94419 62.2496 10.5342C63.1896 11.1142 63.8846 11.8592 64.3346 12.7692C64.7946 13.6792 65.0246 14.6192 65.0246 15.5892C65.0246 16.7792 64.7396 17.7892 64.1696 18.6192C63.6096 19.4492 62.8446 20.0092 61.8746 20.2992V19.5492C63.2346 19.8592 64.2646 20.5042 64.9646 21.4842C65.6746 22.4642 66.0296 23.5792 66.0296 24.8292C66.0296 26.1092 65.7846 27.2292 65.2946 28.1892C64.8046 29.1492 64.0746 29.8992 63.1046 30.4392C62.1446 30.9792 60.9546 31.2492 59.5346 31.2492H50.0996ZM53.7596 27.8442H59.0846C59.7146 27.8442 60.2796 27.7192 60.7796 27.4692C61.2796 27.2092 61.6696 26.8492 61.9496 26.3892C62.2396 25.9192 62.3846 25.3642 62.3846 24.7242C62.3846 24.1442 62.2596 23.6242 62.0096 23.1642C61.7596 22.7042 61.3946 22.3392 60.9146 22.0692C60.4346 21.7892 59.8596 21.6492 59.1896 21.6492H53.7596V27.8442ZM53.7596 18.2742H58.6196C59.1396 18.2742 59.6046 18.1742 60.0146 17.9742C60.4246 17.7742 60.7496 17.4792 60.9896 17.0892C61.2296 16.6992 61.3496 16.2192 61.3496 15.6492C61.3496 14.8992 61.1096 14.2742 60.6296 13.7742C60.1496 13.2742 59.4796 13.0242 58.6196 13.0242H53.7596V18.2742ZM68.1254 31.2492V9.19922H71.7404V31.2492H68.1254ZM81.1084 31.7142C79.9084 31.7142 78.9184 31.5142 78.1384 31.1142C77.3584 30.7142 76.7389 30.2042 76.2784 29.5842C75.8186 28.9642 75.4789 28.3042 75.2584 27.6042C75.0386 26.9042 74.8936 26.2442 74.8236 25.6242C74.7636 24.9942 74.7336 24.4842 74.7336 24.0942V15.0492H78.3934V22.8492C78.3934 23.3492 78.4286 23.9142 78.4984 24.5442C78.5689 25.1642 78.7286 25.7642 78.9784 26.3442C79.2386 26.9142 79.6189 27.3842 80.1184 27.7542C80.6284 28.1242 81.3139 28.3092 82.1734 28.3092C82.6339 28.3092 83.0884 28.2342 83.5384 28.0842C83.9884 27.9342 84.3934 27.6792 84.7534 27.3192C85.1239 26.9492 85.4186 26.4442 85.6384 25.8042C85.8589 25.1642 85.9684 24.3542 85.9684 23.3742L88.1134 24.2892C88.1134 25.6692 87.8434 26.9192 87.3034 28.0392C86.7739 29.1592 85.9886 30.0542 84.9484 30.7242C83.9089 31.3842 82.6286 31.7142 81.1084 31.7142ZM86.4034 31.2492V26.2242H85.9684V15.0492H89.5984V31.2492H86.4034ZM99.9776 31.6992C98.3381 31.6992 96.8981 31.3442 95.6576 30.6342C94.4179 29.9242 93.4481 28.9392 92.7476 27.6792C92.0576 26.4192 91.7126 24.9692 91.7126 23.3292C91.7126 21.5592 92.0531 20.0242 92.7326 18.7242C93.4129 17.4142 94.3579 16.3992 95.5676 15.6792C96.7781 14.9592 98.1776 14.5992 99.7676 14.5992C101.448 14.5992 102.873 14.9942 104.043 15.7842C105.223 16.5642 106.098 17.6692 106.668 19.0992C107.238 20.5292 107.453 22.2142 107.313 24.1542H103.728V22.8342C103.718 21.0742 103.408 19.7892 102.798 18.9792C102.188 18.1692 101.228 17.7642 99.9176 17.7642C98.4379 17.7642 97.3376 18.2242 96.6176 19.1442C95.8976 20.0542 95.5376 21.3892 95.5376 23.1492C95.5376 24.7892 95.8976 26.0592 96.6176 26.9592C97.3376 27.8592 98.3876 28.3092 99.7676 28.3092C100.658 28.3092 101.423 28.1142 102.063 27.7242C102.713 27.3242 103.213 26.7492 103.563 25.9992L107.133 27.0792C106.513 28.5392 105.553 29.6742 104.253 30.4842C102.963 31.2942 101.538 31.6992 99.9776 31.6992ZM94.3976 24.1542V21.4242H105.543V24.1542H94.3976ZM110.87 31.2492V14.7942C110.87 14.3842 110.885 13.9342 110.915 13.4442C110.945 12.9442 111.03 12.4492 111.17 11.9592C111.31 11.4692 111.565 11.0242 111.935 10.6242C112.395 10.1142 112.89 9.76419 113.42 9.57422C113.96 9.37419 114.49 9.26424 115.01 9.24422C115.53 9.21422 115.985 9.19922 116.375 9.19922H118.4V12.1392H116.525C115.835 12.1392 115.32 12.3142 114.98 12.6642C114.65 13.0042 114.485 13.4542 114.485 14.0142V31.2492H110.87ZM108.26 17.8842V15.0492H118.4V17.8842H108.26ZM120.337 12.5892V9.27422H123.952V12.5892H120.337ZM120.337 31.2492V15.0492H123.952V31.2492H120.337ZM138.45 31.2492V23.4492C138.45 22.9392 138.415 22.3742 138.345 21.7542C138.276 21.1342 138.111 20.5392 137.85 19.9692C137.601 19.3892 137.22 18.9142 136.71 18.5442C136.21 18.1742 135.531 17.9892 134.67 17.9892C134.211 17.9892 133.755 18.0642 133.305 18.2142C132.855 18.3642 132.445 18.6242 132.075 18.9942C131.715 19.3542 131.425 19.8542 131.205 20.4942C130.986 21.1242 130.875 21.9342 130.875 22.9242L128.73 22.0092C128.73 20.6292 128.995 19.3792 129.525 18.2592C130.065 17.1392 130.855 16.2492 131.895 15.5892C132.936 14.9192 134.215 14.5842 135.735 14.5842C136.935 14.5842 137.925 14.7842 138.705 15.1842C139.485 15.5842 140.106 16.0942 140.565 16.7142C141.025 17.3342 141.366 17.9942 141.585 18.6942C141.805 19.3942 141.945 20.0592 142.005 20.6892C142.075 21.3092 142.11 21.8142 142.11 22.2042V31.2492H138.45ZM127.215 31.2492V15.0492H130.44V20.0742H130.875V31.2492H127.215Z" fill="white"/>
</svg>
