<svg width="140" height="48" viewBox="0 0 140 48" fill="none" xmlns="http://www.w3.org/2000/svg">
<path d="M119.37 10C117.937 10 117.174 10.8206 117.174 11.41V32.3403C117.174 32.9412 117.937 33.7734 119.37 33.7734C120.803 33.7734 121.571 32.9412 121.571 32.3403V11.41C121.571 10.8379 120.866 10 119.37 10Z" fill="white"/>
<path d="M132.723 20.9125C134.237 20.9125 135.577 21.4499 135.577 22.6635C135.577 23.7787 134.318 24.6051 132.711 24.6051C131.018 24.6051 129.394 23.6632 128.903 23.1835C129.66 21.5771 131.243 20.9125 132.723 20.9125ZM138.108 28.8986C136.519 30.3895 134.208 30.6207 132.665 30.534C130.296 30.4011 128.261 28.8524 128.319 26.7085C129.66 27.6215 131.428 27.9625 132.717 27.9625C136.675 27.9625 139.969 26.0093 139.969 22.5652C139.969 20.0515 137.658 17.168 132.717 17.168C126.539 17.168 123.771 21.6291 123.771 25.5875C123.771 29.5458 126.47 34.0012 132.74 34.0012C136.103 34.0012 138.524 32.6085 138.871 30.7189C139.027 29.9041 138.519 29.1356 138.097 28.8986" fill="white"/>
<path d="M9.22851 17.168C7.21754 17.168 5.99246 17.5551 4.39755 18.8207V18.5953C4.39755 17.9943 3.63477 17.168 2.20167 17.168C0.768561 17.168 0 17.9943 0 18.5953V32.3658C0 32.9552 0.762782 33.7816 2.20167 33.7816C3.64055 33.7816 4.39755 32.9552 4.39755 32.3658V26.5178C4.39755 22.7733 5.84222 20.9125 8.4715 20.9125C10.2802 20.9125 10.8754 22.4323 10.8754 23.9406V32.3658C10.8754 32.9321 11.5689 33.7816 13.0598 33.7816C14.5506 33.7816 15.273 32.9321 15.273 32.3658V24.0099C15.273 19.2194 12.7997 17.168 9.22851 17.168Z" fill="white"/>
<path d="M43.3411 17.1645H40.2784V14.0036C40.2784 13.4084 39.5156 12.582 38.0941 12.582C36.6725 12.582 35.8809 13.4084 35.8809 14.0036V25.844C35.8809 27.8203 35.8809 32.4606 40.6598 33.6626C41.099 33.7319 41.4688 33.7723 41.7866 33.7723C42.7806 33.7723 43.3469 33.4487 43.7976 32.6051C44.2657 31.7614 44.1097 30.9408 44.023 30.6345C43.8149 30.6519 43.6185 30.6577 43.4336 30.6577C41.9831 30.6577 41.099 30.2011 40.6598 29.2188C40.2784 28.3462 40.2784 27.1731 40.2784 25.8151V20.5855H42.9308C44.3813 20.5855 45.3521 19.3546 45.3521 18.1989C45.3521 17.5228 45.0285 17.1587 43.3411 17.1587" fill="white"/>
<path d="M94.3713 17.168C91.9847 17.168 87.9512 18.734 87.9512 24.9403V32.3369C87.9512 32.9379 88.714 33.7758 90.1528 33.7758C91.5917 33.7758 92.3487 32.9379 92.3487 32.3369V25.7146C92.3487 21.8429 93.1866 20.2191 97.2144 20.2191C97.2953 19.9359 97.4571 19.1443 96.9832 18.2948C96.4169 17.2546 95.423 17.1737 94.3655 17.1737" fill="white"/>
<path d="M22.6013 23.1835C23.3583 21.5713 24.9416 20.9125 26.4209 20.9125C27.9003 20.9125 29.2698 21.4442 29.2698 22.6635C29.2698 23.773 28.0101 24.6051 26.3978 24.6051C24.7047 24.6051 23.0867 23.6632 22.5955 23.1835M33.6731 22.5652C33.6731 20.0515 31.3617 17.168 26.4209 17.168C20.2436 17.168 17.4756 21.6291 17.4756 25.5817C17.4756 29.5343 20.1742 33.9954 26.4498 33.9954C29.813 33.9954 32.2285 32.6027 32.581 30.7131C32.737 29.8983 32.2227 29.1356 31.8066 28.8929C30.2233 30.3837 27.9118 30.6149 26.3632 30.5282C23.9997 30.3953 21.9598 28.8466 22.0234 26.7027C23.3583 27.6158 25.1207 27.9567 26.4209 27.9567C30.3793 27.9567 33.6731 26.0035 33.6731 22.5595" fill="white"/>
<path d="M60.5717 17.168C58.919 17.1737 57.6131 17.6418 56.6422 18.4335C55.6714 17.636 54.3597 17.1737 52.707 17.168C48.7139 17.1795 46.6914 19.8782 46.6914 23.4956V32.4352C46.6914 32.9957 47.4137 33.7816 48.7833 33.7816C50.1528 33.7816 50.8694 32.9957 50.8694 32.4352V23.432C50.8694 21.9296 51.5108 20.9125 52.707 20.9125C53.9032 20.9125 54.5562 21.9296 54.5562 23.432V32.4352C54.5562 32.9957 55.2843 33.7816 56.6365 33.7816H56.648C58.006 33.7816 58.7341 32.9957 58.7341 32.4352V23.432C58.7341 21.9296 59.3755 20.9125 60.5775 20.9125C61.7795 20.9125 62.4209 21.9296 62.4209 23.432V32.4352C62.4209 32.9957 63.1432 33.7816 64.5012 33.7816C65.8592 33.7816 66.5989 32.9957 66.5989 32.4352V23.4956C66.5989 19.8782 64.5763 17.1795 60.5775 17.168" fill="white"/>
<path d="M80.2713 25.4199C80.1269 28.1243 78.6186 30.4646 76.0356 30.2219C74.0304 30.037 72.84 27.8931 73.2156 25.2465C73.5854 22.5941 75.2439 20.7392 77.3647 20.9125C79.4392 21.0281 80.4158 22.7733 80.2713 25.4199ZM84.6804 27.1593V24.9865C84.6804 19.6066 80.7972 17.168 77.2029 17.168C72.239 17.168 68.7949 21.1032 68.7949 25.8359C68.7949 30.8807 72.031 33.9954 76.076 33.9954C79.0289 33.9954 80.7163 32.8166 81.8027 31.7533C82.1089 32.2849 82.3748 32.6605 82.629 32.9784C83.0509 33.4811 83.5132 33.718 84.0563 33.718C84.3511 33.718 84.6689 33.6487 84.9983 33.5042C85.6512 33.2211 86.0731 32.805 86.2118 32.2849C86.3505 31.7533 86.1771 31.2448 85.9633 30.9443C85.2178 29.829 84.6862 28.263 84.6862 27.1535" fill="white"/>
<path d="M110.558 25.4156C110.408 28.12 108.9 30.4603 106.323 30.2176C104.317 30.0327 103.127 27.8888 103.497 25.2422C103.861 22.5898 105.525 20.7349 107.646 20.9082C109.726 21.0238 110.703 22.7689 110.558 25.4156ZM107.49 17.1637C105.976 17.1637 104.629 17.5104 103.474 18.1114V11.4081C103.474 10.836 102.775 10.0039 101.272 10.0039C99.7696 10.0039 99.0762 10.8187 99.0762 11.4081V25.8374C99.0762 30.8822 102.312 33.9969 106.357 33.9969C112.078 33.9969 114.967 29.5993 114.967 24.9822C114.967 19.9721 111.951 17.1637 107.49 17.1637Z" fill="white"/>
</svg>
