<svg width="191" height="48" viewBox="0 0 191 48" fill="none" xmlns="http://www.w3.org/2000/svg">
<path d="M25.664 22.4961H12.832V25.3761H25.664V22.4961Z" fill="white"/>
<path d="M32.064 12H23.584L25.632 14.912L31.84 16.8C32.992 17.152 33.728 18.24 33.696 19.36V28.64C33.696 29.792 32.96 30.848 31.84 31.2L25.664 33.088L23.584 36H32.064C35.616 36 38.464 33.12 38.464 29.6V18.4C38.496 14.88 35.616 12 32.064 12Z" fill="white"/>
<path d="M6.4 12H14.88L12.832 14.912L6.656 16.8C5.504 17.152 4.768 18.24 4.8 19.36V28.64C4.8 29.792 5.536 30.848 6.656 31.2L12.832 33.088L14.88 36H6.4C2.88 36 0 33.12 0 29.6V18.4C0 14.88 2.88 12 6.4 12Z" fill="white"/>
<path d="M142.368 28.768C142.368 30.848 140.672 32.512 138.56 32.512C136.448 32.512 134.752 30.816 134.752 28.768V19.584C134.752 17.504 136.448 15.84 138.56 15.84C140.672 15.84 142.368 17.536 142.368 19.584V19.68H145.28V19.552C145.28 15.936 142.272 12.96 138.56 12.96C134.848 12.96 131.84 15.936 131.84 19.584V28.736C131.84 32.384 134.848 35.36 138.56 35.36C142.272 35.36 145.248 32.384 145.28 28.736V28.64H142.368V28.768Z" fill="white"/>
<path d="M157.473 18.8809C154.401 18.8809 151.841 21.2809 151.713 24.3209V29.9529C151.873 32.9929 154.401 35.3929 157.473 35.3929C160.545 35.3929 163.073 32.9929 163.233 29.9529V24.3209C163.105 21.2809 160.577 18.8809 157.473 18.8809ZM160.321 29.6009C160.289 31.2009 159.041 32.4489 157.473 32.4489C155.905 32.4489 154.657 31.2009 154.625 29.6009V24.6409C154.625 23.0729 155.905 21.7929 157.473 21.7929C159.041 21.7929 160.321 23.0729 160.321 24.6409V29.6009Z" fill="white"/>
<path d="M149.632 12.96H146.72V35.04H149.632V12.96Z" fill="white"/>
<path d="M69.7284 18.8809H66.8164V35.0089H69.7284V18.8809Z" fill="white"/>
<path d="M63.9364 12.96H61.0244V35.04H63.9364V12.96Z" fill="white"/>
<path d="M53.6961 12.96H50.1441L44.2881 35.008V35.04H47.1681L48.7361 29.184L55.1361 29.216L56.6721 35.04V35.072H59.5521L53.6961 12.96ZM54.3681 26.304H49.5041L51.9361 17.152L54.3681 26.304Z" fill="white"/>
<path d="M173.952 29.9209C173.952 31.4889 172.672 32.7689 171.104 32.7689C169.536 32.7689 168.256 31.4889 168.256 29.9209V18.8809H165.344V30.4009C165.344 33.1529 167.584 35.3929 170.336 35.3929C170.848 35.3929 171.328 35.3289 171.808 35.1689C172.096 35.0729 172.352 34.9769 172.608 34.8489C173.056 34.6249 173.472 34.3369 173.824 33.9849L173.952 33.8569V35.0409H176.864V18.8809H173.952V29.9209Z" fill="white"/>
<path d="M69.7284 12.96H66.8164V15.872H69.7284V12.96Z" fill="white"/>
<path d="M79.1354 18.88C77.8234 18.88 76.5754 19.392 75.6474 20.32L75.5194 20.448V12.96H72.6074V35.04H75.5194V33.856L75.6474 33.984C76.5754 34.912 77.8234 35.424 79.1354 35.424C81.8874 35.424 84.1274 33.184 84.1274 30.432V23.872C84.1274 21.088 81.8874 18.88 79.1354 18.88ZM81.2474 24.384V29.856C81.2474 31.424 79.9674 32.736 78.3674 32.736C76.7674 32.736 75.4874 31.456 75.4874 29.856V24.384C75.4874 22.816 76.7674 21.504 78.3674 21.504C79.9674 21.536 81.2474 22.816 81.2474 24.384Z" fill="white"/>
<path d="M106.144 18.848C104.832 18.848 103.584 19.36 102.656 20.288L102.528 20.416V12.96H99.6162V35.04H102.528V33.856L102.656 33.984C103.584 34.912 104.832 35.424 106.144 35.424C108.896 35.424 111.136 33.184 111.136 30.432V23.84C111.136 21.088 108.896 18.848 106.144 18.848ZM108.256 24.384V29.856C108.256 31.424 106.976 32.736 105.376 32.736C103.776 32.736 102.496 31.456 102.496 29.856V24.384C102.496 22.816 103.776 21.504 105.376 21.504C106.976 21.504 108.256 22.816 108.256 24.384Z" fill="white"/>
<path d="M187.585 12.96V20.416L187.457 20.288C186.529 19.36 185.281 18.848 183.969 18.848C181.217 18.848 178.977 21.088 178.977 23.84V30.4C178.977 33.152 181.217 35.36 183.969 35.36C185.281 35.36 186.529 34.848 187.457 33.92L187.585 33.792V34.976H190.497V12.96H187.585ZM187.553 24.384V29.856C187.553 31.424 186.273 32.736 184.673 32.736C183.073 32.736 181.793 31.456 181.793 29.856V24.384C181.793 22.816 183.073 21.504 184.673 21.504C186.273 21.504 187.553 22.816 187.553 24.384Z" fill="white"/>
<path d="M97.5369 24.3529C97.5369 24.1929 97.5049 24.0009 97.4729 23.7769V23.7129C97.3129 22.8489 96.9929 22.0169 96.4809 21.2809C95.4569 19.8409 93.8889 18.9769 92.1609 18.8809H91.8409C90.4969 18.8809 89.1849 19.3609 88.1289 20.2249C87.1049 21.0889 86.4009 22.2729 86.1449 23.6169V23.6489H88.9929V23.6169C89.2489 22.2729 90.4329 21.3129 91.7769 21.3129C92.5129 21.3129 93.2169 21.6009 93.7609 22.1129C94.3049 22.6249 94.5929 23.3289 94.6249 24.0649V25.4089H90.4969C87.7449 25.4089 85.5049 27.6489 85.5049 30.4009C85.5049 32.7049 87.1049 34.6569 89.2489 35.2329C89.2809 35.2329 89.3129 35.2329 89.3129 35.2649C89.4089 35.2969 89.5049 35.2969 89.6009 35.3289C89.6969 35.3609 89.8249 35.3609 89.9529 35.3929H90.0169C90.2409 35.4249 90.4969 35.4249 90.7849 35.4249C91.4889 35.4249 92.0969 35.3289 92.5129 35.1689C93.2489 34.9449 93.9209 34.5289 94.4969 33.9849L94.6249 33.8569V35.0409H97.5369V24.3529ZM91.0729 27.5849H94.5929V29.6329C94.5929 31.1689 93.4729 32.5129 91.9689 32.8009C91.7449 32.8649 91.5209 32.8649 91.3289 32.8649C90.8169 32.8649 90.3369 32.7369 89.8569 32.4489C89.7289 32.3849 89.6009 32.2889 89.4729 32.2249C89.3129 32.0969 89.1529 31.9369 89.0249 31.7769L88.9929 31.7449C88.6409 31.2969 88.4489 30.7529 88.4489 30.1769C88.4809 28.7369 89.6329 27.5849 91.0729 27.5849Z" fill="white"/>
<path d="M124.576 24.3529C124.576 24.1929 124.544 24.0009 124.512 23.7769V23.7129C124.352 22.8489 124.032 22.0169 123.52 21.2809C122.496 19.8409 120.928 18.9769 119.2 18.8809H118.88C117.536 18.8809 116.224 19.3609 115.168 20.2249C114.144 21.0889 113.44 22.2729 113.184 23.6169V23.6489H116.032V23.6169C116.288 22.2729 117.472 21.3129 118.816 21.3129C119.552 21.3129 120.256 21.6009 120.8 22.1129C121.344 22.6249 121.632 23.3289 121.664 24.0649V25.4089H117.536C114.784 25.4089 112.544 27.6489 112.544 30.4009C112.544 32.7049 114.144 34.6569 116.288 35.2329C116.32 35.2329 116.352 35.2329 116.352 35.2649C116.448 35.2969 116.544 35.2969 116.64 35.3289C116.736 35.3609 116.864 35.3609 116.992 35.3929H117.056C117.28 35.4249 117.536 35.4249 117.824 35.4249C118.528 35.4249 119.136 35.3289 119.552 35.1689C120.288 34.9449 120.96 34.5289 121.536 33.9849L121.664 33.8569V35.0409H124.576V24.3529ZM118.112 27.5849H121.632V29.6329C121.632 31.1689 120.512 32.5129 119.008 32.8009C118.784 32.8649 118.56 32.8649 118.368 32.8649C117.856 32.8649 117.376 32.7369 116.896 32.4489C116.768 32.3849 116.64 32.2889 116.512 32.2249C116.352 32.0969 116.192 31.9369 116.064 31.7769L116.032 31.7449C115.68 31.2969 115.488 30.7529 115.488 30.1769C115.52 28.7689 116.672 27.5849 118.112 27.5849Z" fill="white"/>
</svg>
