<svg width="155" height="48" viewBox="0 0 155 48" fill="none" xmlns="http://www.w3.org/2000/svg">
<path d="M11.3498 37C8.32361 37 5.30764 35.8958 2.87441 33.1559C-2.15562 27.5125 0.880802 19.9674 1.18751 19.2415C2.70061 14.1502 7.93511 9.41663 13.9262 7.72973C14.284 7.62749 14.6316 7.5457 14.9894 7.46391C22.0233 5.95082 26.5012 8.50673 28.9038 9.87669L33.4533 12.4326L28.4948 11.3693C25.4891 10.7253 20.9396 9.75401 18.5472 11.5023C17.576 12.2179 17.0341 13.3221 16.891 14.8761C16.7479 16.43 17.1364 17.5853 18.0667 18.2907C19.3856 19.3029 21.5019 19.2109 22.6163 18.8224C24.4361 17.8307 25.8674 17.6467 27.2578 17.4626C28.5051 17.2991 31.6642 17.1355 34.2508 19.17C39.7306 23.4844 37.1134 30.1297 36.2444 32.3074L35.6003 33.9227L34.6904 31.8371C34.629 31.6837 33.075 28.2383 29.1696 28.1872C29.1594 28.1872 29.1389 28.1872 29.1287 28.1872C27.3805 28.1872 25.3255 29.8639 23.1377 31.6428C22.0233 32.5527 20.868 33.4933 19.631 34.3214C17.2182 35.947 14.284 36.9898 11.3498 36.9898V37ZM1.484 24.8441C1.41243 27.1649 1.90317 29.8946 3.95812 32.1949C8.17025 36.9284 14.4578 36.0696 18.8233 33.1355C19.999 32.338 21.1338 31.4179 22.2175 30.5387C24.6303 28.5757 26.8897 26.7457 29.1798 26.7559C32.5945 26.807 34.5472 28.9438 35.4265 30.2626C36.868 25.754 36.183 22.5744 33.3306 20.3252C31.1223 18.5872 28.2597 18.8019 27.4316 18.9144C26.0412 19.0984 24.845 19.262 23.2399 20.1412C22.0028 20.8262 20.6431 21.869 19.0891 23.3514C18.7006 23.7195 18.2917 24.1284 17.8623 24.5578C15.8073 26.6639 12.9754 28.5553 11.1249 29.0562C9.01882 29.6288 4.8169 29.7719 2.47569 26.7048C2.02585 26.1118 1.69869 25.4882 1.46355 24.8543L1.484 24.8441ZM2.5677 19.6812C2.51658 19.9163 1.78048 23.3617 3.65141 25.8153C5.53256 28.2792 9.13128 28.0952 10.7671 27.6454C11.9734 27.3182 14.1409 26.0607 16.0936 24.2613C14.376 24.4556 12.3108 24.2 10.4603 22.8403C8.54853 21.4294 7.46482 18.1578 7.87377 15.0703C7.99645 14.1297 8.32361 12.8211 9.12105 11.5227C5.95173 13.6288 3.45716 16.6141 2.55748 19.6709L2.5677 19.6812ZM14.3453 9.12014C10.491 10.623 9.54022 13.6185 9.3153 15.2748C8.91658 18.1783 10.0514 20.7444 11.3191 21.685C13.783 23.5048 16.8297 22.8505 18.1792 22.2166C18.854 21.5828 19.4878 21.0205 20.1012 20.5297C19.0482 20.4275 17.9952 20.0901 17.1671 19.4562C16.2469 18.7508 15.1939 17.3502 15.4393 14.7636C15.6233 12.7904 16.3798 11.308 17.6782 10.3572C19.3038 9.16104 21.5632 8.96679 23.8124 9.14059C21.6143 8.46583 18.8131 8.13867 15.2859 8.89522C14.969 8.96679 14.652 9.03835 14.3453 9.13037V9.12014Z" fill="white"/>
<path d="M51.6001 31.4491C49.9745 31.4491 48.5841 31.2037 47.4289 30.713C46.2736 30.2222 45.3944 29.5884 44.8014 28.7909C44.2084 27.9935 43.8915 27.1245 43.8506 26.1941C43.8506 26.051 43.9017 25.9283 44.0142 25.8159C44.1266 25.6932 44.2595 25.6216 44.4231 25.6216H46.887C47.0813 25.6216 47.2448 25.6625 47.3777 25.7545C47.5004 25.8465 47.6231 25.9692 47.7253 26.1328C47.9094 26.7462 48.3081 27.2574 48.942 27.6766C49.5963 28.0957 50.4755 28.3002 51.6001 28.3002C52.8678 28.3002 53.8084 28.0957 54.4423 27.6766C55.0966 27.2472 55.4135 26.6542 55.4135 25.9181C55.4135 25.4274 55.2499 25.0286 54.9228 24.7015C54.5956 24.3743 54.1049 24.0983 53.4301 23.8631C52.7758 23.6076 51.8046 23.3111 50.5062 22.9737C48.3797 22.4727 46.8154 21.798 45.8237 20.9699C44.8321 20.1417 44.3311 18.9456 44.3311 17.3916C44.3311 16.3488 44.6174 15.4184 45.2001 14.6005C45.7829 13.7724 46.6007 13.1181 47.664 12.6478C48.7477 12.1775 50.0052 11.9424 51.4263 11.9424C52.9292 11.9424 54.2174 12.2082 55.3011 12.7296C56.4052 13.251 57.2333 13.9155 57.7956 14.7028C58.3784 15.4798 58.6851 16.2568 58.7158 17.0338C58.7158 17.1769 58.6646 17.3098 58.5522 17.4427C58.4397 17.5552 58.3068 17.6063 58.1432 17.6063H55.5669C55.1682 17.6063 54.9023 17.4427 54.7592 17.1155C54.6672 16.5328 54.3196 16.0625 53.7062 15.6842C53.0928 15.2855 52.3362 15.0913 51.4263 15.0913C50.4346 15.0913 49.6474 15.2855 49.0646 15.6638C48.5023 16.0421 48.2263 16.5941 48.2263 17.32C48.2263 17.8108 48.3694 18.2095 48.6557 18.5366C48.942 18.8638 49.3918 19.15 50.0154 19.4056C50.6289 19.6408 51.5285 19.9066 52.694 20.2235C54.2991 20.5814 55.5771 20.9903 56.5177 21.4401C57.4787 21.89 58.1841 22.4625 58.634 23.1475C59.0838 23.8325 59.3087 24.7117 59.3087 25.775C59.3087 26.9507 58.9816 27.973 58.3375 28.8318C57.7036 29.6804 56.8039 30.3347 55.6282 30.7845C54.4729 31.2344 53.1234 31.4593 51.5899 31.4593L51.6001 31.4491Z" fill="white"/>
<path d="M63.0498 31.1831C62.8658 31.1831 62.7124 31.1217 62.5898 30.9888C62.4671 30.8661 62.3955 30.7128 62.3955 30.5288V12.893C62.3955 12.6987 62.4466 12.5352 62.5591 12.4023C62.6818 12.2796 62.8453 12.208 63.0498 12.208H65.5444C65.7386 12.208 65.9022 12.2693 66.0351 12.4023C66.1578 12.5249 66.2294 12.6885 66.2294 12.893V19.8553H74.1425V12.893C74.1425 12.6987 74.2038 12.5352 74.3367 12.4023C74.4594 12.2796 74.6128 12.208 74.7968 12.208H77.3118C77.506 12.208 77.6594 12.2693 77.7719 12.4023C77.8945 12.5249 77.9661 12.6885 77.9661 12.893V30.5288C77.9661 30.7128 77.9048 30.8661 77.7719 30.9888C77.6594 31.1115 77.506 31.1831 77.3118 31.1831H74.7968C74.6128 31.1831 74.4594 31.1217 74.3367 30.9888C74.214 30.8661 74.1425 30.7128 74.1425 30.5288V23.2904H66.2294V30.5288C66.2294 30.7128 66.168 30.8661 66.0351 30.9888C65.9124 31.1115 65.7489 31.1831 65.5444 31.1831H63.0498Z" fill="white"/>
<path d="M82.8438 31.1831C82.6597 31.1831 82.5064 31.1217 82.3837 30.9888C82.261 30.8661 82.1895 30.7128 82.1895 30.5288V12.8623C82.1895 12.6681 82.2508 12.5147 82.3837 12.4023C82.5064 12.2796 82.6597 12.208 82.8438 12.208H85.4406C85.6348 12.208 85.7882 12.2693 85.9006 12.4023C86.0233 12.5147 86.0949 12.6681 86.0949 12.8623V30.5288C86.0949 30.7128 86.0335 30.8661 85.9006 30.9888C85.7882 31.1115 85.6348 31.1831 85.4406 31.1831H82.8438Z" fill="white"/>
<path d="M90.9619 31.1831C90.7779 31.1831 90.6245 31.1217 90.5019 30.9888C90.3792 30.8661 90.3076 30.7128 90.3076 30.5288V12.893C90.3076 12.6987 90.3587 12.5352 90.4712 12.4023C90.5939 12.2796 90.7575 12.208 90.9619 12.208H93.0782C93.4258 12.208 93.6814 12.3614 93.8654 12.6681L101.615 24.7013V12.893C101.615 12.6987 101.666 12.5352 101.779 12.4023C101.901 12.2796 102.065 12.208 102.269 12.208H104.6C104.795 12.208 104.958 12.2693 105.091 12.4023C105.214 12.5249 105.275 12.6885 105.275 12.893V30.4981C105.275 30.6923 105.214 30.8559 105.091 30.9888C104.968 31.1115 104.815 31.1831 104.631 31.1831H102.494C102.136 31.1831 101.86 31.0297 101.676 30.723L93.9575 18.9658V30.539C93.9575 30.723 93.8961 30.8764 93.7632 30.9991C93.6507 31.1217 93.4974 31.1933 93.3031 31.1933H90.9722L90.9619 31.1831Z" fill="white"/>
<path d="M108.301 31.1816C108.137 31.1816 108.005 31.1305 107.892 31.0181C107.78 30.9056 107.729 30.7727 107.729 30.6091L107.78 30.3638L114.282 12.8916C114.466 12.4417 114.793 12.2168 115.253 12.2168H118.238C118.709 12.2168 119.036 12.4417 119.21 12.8916L125.712 30.3638L125.763 30.6091C125.763 30.7727 125.702 30.9056 125.569 31.0181C125.456 31.1305 125.334 31.1816 125.19 31.1816H122.778C122.399 31.1816 122.134 31.0078 121.99 30.6705L120.743 27.3887H112.728L111.481 30.6705C111.337 31.0181 111.072 31.1816 110.693 31.1816H108.281H108.301ZM113.689 24.2398H119.813L116.756 15.8973L113.699 24.2398H113.689Z" fill="white"/>
<path d="M128.932 31.1831C128.748 31.1831 128.595 31.1217 128.472 30.9888C128.349 30.8661 128.288 30.7128 128.288 30.5288V12.893C128.288 12.6987 128.339 12.5352 128.452 12.4023C128.574 12.2796 128.738 12.208 128.942 12.208H131.14C131.488 12.208 131.754 12.3818 131.948 12.7192L137.172 22.4214L142.407 12.7192C142.601 12.3716 142.877 12.208 143.215 12.208H145.382C145.576 12.208 145.74 12.2693 145.873 12.4023C145.995 12.5249 146.057 12.6885 146.057 12.893V30.5288C146.057 30.723 145.995 30.8866 145.873 31.0195C145.75 31.132 145.586 31.1831 145.382 31.1831H143.051C142.867 31.1831 142.714 31.1217 142.591 30.9888C142.468 30.8661 142.407 30.7128 142.407 30.5288V18.884L138.645 26.0406C138.45 26.4393 138.144 26.6336 137.755 26.6336H136.62C136.242 26.6336 135.935 26.4393 135.7 26.0406L131.938 18.884V30.5288C131.938 30.7128 131.877 30.8661 131.744 30.9888C131.631 31.1115 131.478 31.1831 131.284 31.1831H128.953H128.932Z" fill="white"/>
<path d="M150.913 31.1831C150.729 31.1831 150.576 31.1217 150.453 30.9888C150.33 30.8661 150.259 30.7128 150.259 30.5288V12.8623C150.259 12.6681 150.32 12.5147 150.453 12.4023C150.576 12.2796 150.729 12.208 150.913 12.208H153.51C153.714 12.208 153.868 12.2693 153.97 12.4023C154.093 12.5147 154.154 12.6681 154.154 12.8623V30.5288C154.154 30.7128 154.093 30.8661 153.97 30.9888C153.858 31.1115 153.704 31.1831 153.51 31.1831H150.913Z" fill="white"/>
</svg>
