<svg width="167" height="39" viewBox="0 0 167 39" fill="none" xmlns="http://www.w3.org/2000/svg">
<g clip-path="url(#clip0_1239_1975)">
<path d="M47.3959 28.6028C47.2599 28.6028 47.1408 28.553 47.0388 28.4533C46.9368 28.3536 46.8857 28.2373 46.8857 28.1044C46.8857 28.0213 46.8942 27.9299 46.9113 27.8302L53.2373 11.7062C53.3053 11.5401 53.3989 11.4072 53.5179 11.3075C53.637 11.2078 53.8155 11.158 54.0536 11.158H55.7882C56.0092 11.158 56.1793 11.2078 56.2983 11.3075C56.4344 11.4072 56.5364 11.5401 56.6044 11.7062L62.905 27.8302C62.939 27.9299 62.956 28.0213 62.956 28.1044C62.956 28.2373 62.905 28.3536 62.803 28.4533C62.7009 28.553 62.5819 28.6028 62.4458 28.6028H61.1449C60.9408 28.6028 60.7878 28.553 60.6858 28.4533C60.6007 28.3536 60.5412 28.2622 60.5072 28.1791L59.1042 24.6403H50.7375L49.3345 28.1791C49.3175 28.2622 49.258 28.3536 49.156 28.4533C49.054 28.553 48.9009 28.6028 48.6968 28.6028H47.3959ZM51.4772 22.4971H58.3645L54.9209 13.6501L51.4772 22.4971ZM66.7417 28.6028C66.5717 28.6028 66.4271 28.553 66.3081 28.4533C66.2061 28.337 66.155 28.1958 66.155 28.0296V17.6375H63.9868C63.8168 17.6375 63.6722 17.5876 63.5532 17.488C63.4512 17.3717 63.4001 17.2304 63.4001 17.0643V16.217C63.4001 16.0508 63.4512 15.9179 63.5532 15.8182C63.6722 15.7019 63.8168 15.6438 63.9868 15.6438H66.155V14.3977C66.155 13.5504 66.2996 12.8111 66.5887 12.1797C66.8778 11.5318 67.3369 11.0334 67.9661 10.6845C68.6123 10.3356 69.4711 10.1611 70.5425 10.1611H72.073C72.243 10.1611 72.3791 10.2193 72.4811 10.3356C72.5831 10.4353 72.6342 10.5682 72.6342 10.7343V11.5816C72.6342 11.7478 72.5831 11.889 72.4811 12.0053C72.3791 12.105 72.243 12.1548 72.073 12.1548H70.5935C69.7942 12.1548 69.2501 12.3625 68.961 12.7779C68.6719 13.1766 68.5273 13.7581 68.5273 14.5223V15.6438H71.8179C71.988 15.6438 72.124 15.7019 72.226 15.8182C72.3281 15.9179 72.3791 16.0508 72.3791 16.217V17.0643C72.3791 17.2304 72.3281 17.3717 72.226 17.488C72.124 17.5876 71.988 17.6375 71.8179 17.6375H68.5273V28.0296C68.5273 28.1958 68.4678 28.337 68.3488 28.4533C68.2467 28.553 68.1107 28.6028 67.9406 28.6028H66.7417ZM79.8216 28.6028C78.8693 28.6028 78.0955 28.4284 77.5003 28.0795C76.9051 27.7139 76.4715 27.2072 76.1994 26.5593C75.9273 25.8947 75.7912 25.1138 75.7912 24.2167V17.6375H73.8016C73.6315 17.6375 73.487 17.5876 73.368 17.488C73.2659 17.3717 73.2149 17.2304 73.2149 17.0643V16.217C73.2149 16.0508 73.2659 15.9179 73.368 15.8182C73.487 15.7019 73.6315 15.6438 73.8016 15.6438H75.7912V11.482C75.7912 11.3158 75.8423 11.1829 75.9443 11.0832C76.0633 10.9669 76.2079 10.9088 76.3779 10.9088H77.5768C77.7469 10.9088 77.8829 10.9669 77.985 11.0832C78.104 11.1829 78.1635 11.3158 78.1635 11.482V15.6438H81.3266C81.4966 15.6438 81.6327 15.7019 81.7347 15.8182C81.8537 15.9179 81.9133 16.0508 81.9133 16.217V17.0643C81.9133 17.2304 81.8537 17.3717 81.7347 17.488C81.6327 17.5876 81.4966 17.6375 81.3266 17.6375H78.1635V24.0422C78.1635 24.8231 78.2996 25.4378 78.5717 25.8864C78.8437 26.335 79.3284 26.5593 80.0256 26.5593H81.5816C81.7517 26.5593 81.8877 26.6174 81.9898 26.7337C82.1088 26.8334 82.1683 26.9663 82.1683 27.1325V28.0296C82.1683 28.1958 82.1088 28.337 81.9898 28.4533C81.8877 28.553 81.7517 28.6028 81.5816 28.6028H79.8216ZM89.8877 28.852C88.1362 28.852 86.7417 28.3287 85.7044 27.282C84.667 26.2187 84.0973 24.7732 83.9953 22.9457C83.9783 22.7297 83.9698 22.4556 83.9698 22.1233C83.9698 21.7744 83.9783 21.492 83.9953 21.276C84.0633 20.0964 84.3439 19.0663 84.8371 18.1858C85.3302 17.2886 86.002 16.5991 86.8522 16.1173C87.7195 15.6355 88.7314 15.3946 89.8877 15.3946C91.1802 15.3946 92.26 15.6604 93.1273 16.1921C94.0116 16.7237 94.6833 17.4796 95.1425 18.4599C95.6016 19.4401 95.8312 20.5865 95.8312 21.899V22.3227C95.8312 22.5054 95.7717 22.6466 95.6526 22.7463C95.5506 22.846 95.4145 22.8959 95.2445 22.8959H86.4186C86.4186 22.9125 86.4186 22.9457 86.4186 22.9955C86.4186 23.0454 86.4186 23.0869 86.4186 23.1201C86.4526 23.8013 86.6057 24.441 86.8777 25.0391C87.1498 25.6206 87.541 26.0941 88.0511 26.4596C88.5613 26.8251 89.1735 27.0078 89.8877 27.0078C90.4999 27.0078 91.0101 26.9165 91.4182 26.7337C91.8264 26.551 92.158 26.3516 92.4131 26.1356C92.6681 25.903 92.8382 25.7286 92.9232 25.6123C93.0763 25.3963 93.1953 25.2717 93.2803 25.2384C93.3654 25.1886 93.5014 25.1637 93.6885 25.1637H94.9129C95.0829 25.1637 95.219 25.2135 95.321 25.3132C95.4401 25.3963 95.4911 25.5209 95.4741 25.687C95.4571 25.9362 95.321 26.2436 95.0659 26.6091C94.8108 26.958 94.4452 27.3069 93.9691 27.6558C93.4929 28.0047 92.9147 28.2954 92.2345 28.528C91.5543 28.744 90.772 28.852 89.8877 28.852ZM86.4186 21.1763H93.4079V21.1015C93.4079 20.3539 93.2633 19.6893 92.9743 19.1078C92.7022 18.5263 92.3025 18.0695 91.7754 17.7372C91.2482 17.3883 90.619 17.2138 89.8877 17.2138C89.1565 17.2138 88.5273 17.3883 88.0001 17.7372C87.49 18.0695 87.0988 18.5263 86.8267 19.1078C86.5546 19.6893 86.4186 20.3539 86.4186 21.1015V21.1763ZM99.4681 28.6028C99.298 28.6028 99.1535 28.553 99.0345 28.4533C98.9324 28.337 98.8814 28.1958 98.8814 28.0296V16.2419C98.8814 16.0758 98.9324 15.9345 99.0345 15.8182C99.1535 15.7019 99.298 15.6438 99.4681 15.6438H100.641C100.812 15.6438 100.956 15.7019 101.075 15.8182C101.194 15.9345 101.254 16.0758 101.254 16.2419V17.3384C101.594 16.7735 102.061 16.3499 102.657 16.0675C103.252 15.785 103.966 15.6438 104.799 15.6438H105.82C105.99 15.6438 106.126 15.7019 106.228 15.8182C106.33 15.9179 106.381 16.0508 106.381 16.217V17.2387C106.381 17.4049 106.33 17.5378 106.228 17.6375C106.126 17.7372 105.99 17.787 105.82 17.787H104.289C103.371 17.787 102.648 18.0528 102.121 18.5845C101.594 19.0995 101.33 19.8056 101.33 20.7028V28.0296C101.33 28.1958 101.271 28.337 101.152 28.4533C101.033 28.553 100.888 28.6028 100.718 28.6028H99.4681ZM109.158 28.6028C108.988 28.6028 108.844 28.553 108.725 28.4533C108.622 28.337 108.571 28.1958 108.571 28.0296V16.217C108.571 16.0508 108.622 15.9179 108.725 15.8182C108.844 15.7019 108.988 15.6438 109.158 15.6438H110.306C110.476 15.6438 110.612 15.7019 110.714 15.8182C110.833 15.9179 110.893 16.0508 110.893 16.217V17.0892C111.284 16.5742 111.777 16.1671 112.372 15.8681C112.967 15.5524 113.682 15.3946 114.515 15.3946C116.437 15.378 117.797 16.1422 118.596 17.6873C118.987 16.9895 119.557 16.433 120.305 16.0176C121.054 15.6023 121.904 15.3946 122.856 15.3946C123.74 15.3946 124.54 15.594 125.254 15.9927C125.985 16.3914 126.555 16.9978 126.963 17.8119C127.388 18.6094 127.601 19.6146 127.601 20.8274V28.0296C127.601 28.1958 127.541 28.337 127.422 28.4533C127.32 28.553 127.184 28.6028 127.014 28.6028H125.815C125.645 28.6028 125.501 28.553 125.381 28.4533C125.279 28.337 125.228 28.1958 125.228 28.0296V21.0517C125.228 20.1213 125.092 19.3903 124.82 18.8586C124.548 18.327 124.183 17.9532 123.723 17.7372C123.264 17.5212 122.763 17.4132 122.218 17.4132C121.776 17.4132 121.326 17.5212 120.867 17.7372C120.407 17.9532 120.025 18.327 119.719 18.8586C119.43 19.3903 119.285 20.1213 119.285 21.0517V28.0296C119.285 28.1958 119.225 28.337 119.106 28.4533C119.004 28.553 118.868 28.6028 118.698 28.6028H117.499C117.329 28.6028 117.185 28.553 117.066 28.4533C116.964 28.337 116.913 28.1958 116.913 28.0296V21.0517C116.913 20.1213 116.768 19.3903 116.479 18.8586C116.19 18.327 115.816 17.9532 115.357 17.7372C114.898 17.5212 114.413 17.4132 113.903 17.4132C113.461 17.4132 113.01 17.5212 112.551 17.7372C112.092 17.9532 111.709 18.327 111.403 18.8586C111.114 19.3903 110.969 20.113 110.969 21.0268V28.0296C110.969 28.1958 110.91 28.337 110.791 28.4533C110.689 28.553 110.553 28.6028 110.383 28.6028H109.158ZM134.939 28.852C134.089 28.852 133.315 28.6859 132.618 28.3536C131.92 28.0213 131.359 27.5727 130.934 27.0078C130.509 26.443 130.296 25.8033 130.296 25.0889C130.296 23.9425 130.773 23.0288 131.725 22.3476C132.677 21.6664 133.919 21.2178 135.449 21.0018L139.25 20.4785V19.7558C139.25 18.9583 139.012 18.3353 138.536 17.8867C138.076 17.4381 137.32 17.2138 136.265 17.2138C135.5 17.2138 134.879 17.3633 134.403 17.6624C133.944 17.9615 133.621 18.3436 133.434 18.8088C133.332 19.058 133.153 19.1826 132.898 19.1826H131.75C131.563 19.1826 131.419 19.1328 131.317 19.0331C131.232 18.9168 131.189 18.7839 131.189 18.6343C131.189 18.3851 131.283 18.0778 131.47 17.7122C131.674 17.3467 131.98 16.9895 132.388 16.6406C132.796 16.2917 133.315 16.001 133.944 15.7684C134.59 15.5192 135.373 15.3946 136.291 15.3946C137.311 15.3946 138.17 15.5275 138.867 15.7933C139.564 16.0425 140.109 16.3831 140.5 16.8151C140.908 17.2471 141.197 17.7372 141.367 18.2854C141.554 18.8337 141.648 19.3903 141.648 19.9552V28.0296C141.648 28.1958 141.588 28.337 141.469 28.4533C141.367 28.553 141.231 28.6028 141.061 28.6028H139.888C139.7 28.6028 139.556 28.553 139.454 28.4533C139.352 28.337 139.301 28.1958 139.301 28.0296V26.958C139.08 27.2571 138.782 27.5561 138.408 27.8552C138.034 28.1376 137.566 28.3785 137.005 28.5779C136.444 28.7606 135.755 28.852 134.939 28.852ZM135.475 26.9829C136.172 26.9829 136.81 26.8417 137.388 26.5593C137.966 26.2602 138.417 25.8033 138.74 25.1886C139.08 24.5739 139.25 23.8013 139.25 22.8709V22.1731L136.291 22.5968C135.083 22.7629 134.174 23.0454 133.561 23.4441C132.949 23.8262 132.643 24.3164 132.643 24.9145C132.643 25.3797 132.779 25.7701 133.051 26.0858C133.34 26.3848 133.697 26.6091 134.123 26.7586C134.565 26.9082 135.015 26.9829 135.475 26.9829ZM150.368 28.6028C149.416 28.6028 148.642 28.4284 148.047 28.0795C147.452 27.7139 147.018 27.2072 146.746 26.5593C146.474 25.8947 146.338 25.1138 146.338 24.2167V17.6375H144.348C144.178 17.6375 144.033 17.5876 143.914 17.488C143.812 17.3717 143.761 17.2304 143.761 17.0643V16.217C143.761 16.0508 143.812 15.9179 143.914 15.8182C144.033 15.7019 144.178 15.6438 144.348 15.6438H146.338V11.482C146.338 11.3158 146.389 11.1829 146.491 11.0832C146.61 10.9669 146.754 10.9088 146.924 10.9088H148.123C148.293 10.9088 148.429 10.9669 148.531 11.0832C148.65 11.1829 148.71 11.3158 148.71 11.482V15.6438H151.873C152.043 15.6438 152.179 15.7019 152.281 15.8182C152.4 15.9179 152.46 16.0508 152.46 16.217V17.0643C152.46 17.2304 152.4 17.3717 152.281 17.488C152.179 17.5876 152.043 17.6375 151.873 17.6375H148.71V24.0422C148.71 24.8231 148.846 25.4378 149.118 25.8864C149.39 26.335 149.875 26.5593 150.572 26.5593H152.128C152.298 26.5593 152.434 26.6174 152.536 26.7337C152.655 26.8334 152.715 26.9663 152.715 27.1325V28.0296C152.715 28.1958 152.655 28.337 152.536 28.4533C152.434 28.553 152.298 28.6028 152.128 28.6028H150.368ZM155.766 28.6028C155.596 28.6028 155.452 28.553 155.333 28.4533C155.231 28.337 155.18 28.1958 155.18 28.0296V11.482C155.18 11.3158 155.231 11.1829 155.333 11.0832C155.452 10.9669 155.596 10.9088 155.766 10.9088H157.042C157.229 10.9088 157.374 10.9669 157.476 11.0832C157.578 11.1829 157.629 11.3158 157.629 11.482V17.2886C158.088 16.7237 158.649 16.2668 159.312 15.9179C159.975 15.569 160.817 15.3946 161.837 15.3946C162.943 15.3946 163.878 15.6355 164.643 16.1173C165.426 16.5825 166.012 17.2387 166.403 18.0861C166.812 18.9168 167.016 19.8887 167.016 21.0018V28.0296C167.016 28.1958 166.965 28.337 166.863 28.4533C166.761 28.553 166.616 28.6028 166.429 28.6028H165.154C164.983 28.6028 164.839 28.553 164.72 28.4533C164.618 28.337 164.567 28.1958 164.567 28.0296V21.1264C164.567 19.9635 164.278 19.058 163.7 18.41C163.121 17.7455 162.271 17.4132 161.149 17.4132C160.094 17.4132 159.244 17.7455 158.598 18.41C157.952 19.058 157.629 19.9635 157.629 21.1264V28.0296C157.629 28.1958 157.578 28.337 157.476 28.4533C157.374 28.553 157.229 28.6028 157.042 28.6028H155.766Z" fill="white"/>
<path d="M21.1763 0.320892C21.4896 0.175466 21.8247 0.0667286 22.1669 0.0144836C22.5555 -0.00245367 22.9468 -0.00809942 23.3368 0.0173152C24.2986 0.192403 25.1218 0.762851 25.828 1.39825C26.9502 2.42619 27.8557 3.65322 28.7064 4.90002C29.8964 6.6735 30.9767 8.51335 32.0382 10.3616C33.0823 12.2101 34.1091 14.0654 35.1288 15.925C37.3442 20.0128 39.5682 24.1005 41.5005 28.3252C42.0494 29.5239 42.549 30.7454 42.9418 32.0006C43.0213 32.4808 43.1931 32.9566 43.144 33.448C43.105 33.6626 43.0243 33.9026 42.8207 34.0184C42.6472 34.1341 42.4249 34.058 42.2357 34.1117C42.071 34.2132 41.9744 34.3953 41.8023 34.4899C41.6522 34.5126 41.4991 34.5 41.349 34.5226C41.1959 34.6326 41.0904 34.8007 40.9214 34.891C40.7973 34.9278 40.6673 34.9306 40.5417 34.9559C40.2787 34.9559 40.1906 35.2581 39.961 35.3316C39.8065 35.357 39.6491 35.3456 39.4932 35.3456C39.3574 35.4969 39.2274 35.6747 39.0266 35.7481C38.865 35.7778 38.7002 35.7595 38.537 35.7524C38.4273 35.9021 38.3306 36.0813 38.1501 36.159C37.9752 36.1971 37.7933 36.1731 37.6156 36.1718C37.5203 36.313 37.4323 36.4936 37.2488 36.5347C37.0669 36.5614 36.8834 36.5388 36.7015 36.5317C36.6062 36.6885 36.5021 36.8524 36.3419 36.9539C36.1456 36.995 35.9447 36.9596 35.7498 36.9385C35.6761 37.0684 35.6502 37.2505 35.5071 37.3225C35.2948 37.355 35.0811 37.3337 34.8688 37.331C34.788 37.4779 34.6954 37.6189 34.5988 37.7574C34.3634 37.7616 34.1294 37.7574 33.894 37.746C33.8405 37.8957 33.7698 38.0399 33.6845 38.1768C33.4477 38.1739 33.2094 38.1768 32.9768 38.1288C32.938 38.2812 32.909 38.4465 32.7978 38.5678C32.6144 38.6172 32.405 38.6158 32.2345 38.5269C31.8071 38.318 31.4663 37.9819 31.1341 37.653C30.7341 37.2617 30.3325 36.8734 29.9614 36.457C29.661 36.1674 29.4314 35.8173 29.131 35.5278C28.7583 35.1678 28.4261 34.771 28.0623 34.404C27.642 33.8984 27.1307 33.4761 26.6772 32.9989C26.4635 32.766 26.2021 32.5839 25.9739 32.3649C25.5003 31.9229 24.9775 31.5403 24.4489 31.1648C23.7471 30.6917 22.9657 30.2781 22.1064 30.1777C21.5142 30.1551 20.9596 30.4221 20.4701 30.7199C19.5906 31.2523 18.8064 31.9202 18.0525 32.6078C16.8957 33.6372 15.8168 34.7456 14.7091 35.8244C14.2787 36.3044 13.8181 36.7564 13.3428 37.1927C12.9068 37.5469 12.5341 37.9734 12.0705 38.2995C11.656 38.6046 11.22 38.9689 10.6813 39C10.4675 38.8926 10.3751 38.6611 10.2668 38.4662C10.0415 38.4634 9.80606 38.5072 9.58795 38.438C9.47968 38.3349 9.43924 38.1839 9.38291 38.0511C9.14325 38.0413 8.89758 38.0751 8.66075 38.0214C8.54525 37.9112 8.47884 37.7645 8.40661 37.6276C8.20298 37.626 7.99511 37.6416 7.79289 37.6077C7.64984 37.5145 7.59491 37.3437 7.48524 37.2208C7.2802 37.1799 7.06791 37.2066 6.85987 37.1997C6.74578 37.0627 6.6361 36.9257 6.53491 36.7788C6.36024 36.7788 6.18257 36.7973 6.00932 36.7633C5.83024 36.6828 5.72621 36.5091 5.61354 36.3594C5.459 36.3553 5.30306 36.3681 5.15135 36.3384C4.94489 36.279 4.83663 36.0799 4.67486 35.9572C4.53039 35.9218 4.38169 35.9218 4.23722 35.8907C4.08127 35.8738 3.99032 35.7325 3.88047 35.6409C3.7028 35.4262 3.3736 35.5405 3.15831 35.3909C3.02992 35.3047 2.9432 35.1692 2.81039 35.0915C2.63131 35.0295 2.43333 35.0407 2.25867 34.963C2.09831 34.8869 2.00152 34.7301 1.85865 34.6312C1.68522 34.5663 1.49183 34.5761 1.32282 34.5013C1.15239 34.3969 1.04413 34.1935 0.831841 34.1638C0.606488 34.1172 0.332037 34.1101 0.18916 33.904C-0.0406081 33.6231 -0.00298923 33.2503 0.0114927 32.9141C0.137062 31.9766 0.496638 31.0942 0.854802 30.223C1.79789 28.0923 2.92731 26.0448 4.09576 24.0242C4.43644 23.3761 4.83363 22.759 5.20769 22.1293C5.60347 21.3809 6.10892 20.6934 6.50612 19.9449C7.07939 19.023 7.63836 18.0937 8.21746 17.1745C8.53659 16.6987 8.80239 16.1904 9.13601 15.723C10.5441 13.4865 11.9723 11.2625 13.431 9.05697C14.9459 6.84013 16.4466 4.59645 18.2605 2.59987C19.1211 1.72301 20.018 0.824988 21.1691 0.319476L21.1763 0.320892ZM19.397 2.1438C18.4034 3.06584 17.5484 4.11918 16.7267 5.18666C16.0103 6.17084 15.2795 7.14652 14.6139 8.16599C13.6418 9.56949 12.7191 11.0056 11.7933 12.4373C9.5793 15.8967 7.37115 19.3603 5.26685 22.8847C5.13122 23.1375 4.97368 23.379 4.80484 23.6133C4.57808 23.9239 4.43078 24.277 4.22998 24.6031C3.54968 25.7483 2.93455 26.9274 2.30918 28.1021C1.70111 29.1907 1.17976 30.3247 0.716164 31.4796C0.59501 31.9103 0.376896 32.3268 0.381135 32.7829C0.376896 33.0018 0.362415 33.2235 0.395618 33.4409C0.440476 33.6358 0.651171 33.7149 0.821599 33.7755C0.979134 33.4903 0.947344 33.1571 1.02382 32.8506C1.1077 32.5203 1.19725 32.1926 1.30692 31.8708C1.75462 30.6691 2.26591 29.4873 2.89128 28.362C3.78086 26.58 4.76581 24.8474 5.75217 23.1148C6.03386 22.6349 6.32845 22.1604 6.57535 21.662C6.86428 21.1692 7.1488 20.6735 7.45787 20.192C7.71059 19.7614 7.95166 19.3223 8.23336 18.9085C8.47743 18.557 8.67382 18.1771 8.89193 17.8114C9.54468 16.8187 10.131 15.7852 10.7795 14.7897C11.8496 13.0628 12.9458 11.3514 14.0549 9.64856C14.5402 8.95672 14.9749 8.23377 15.4731 7.55036C16.5331 6.01269 17.6525 4.5075 18.9579 3.15902C19.696 2.46715 20.4614 1.75407 21.4347 1.39402C22.0226 1.18787 22.6726 0.985953 23.2921 1.19633C24.4662 1.40108 25.3934 2.21015 26.1876 3.02912C26.8607 3.76055 27.4802 4.54137 28.0275 5.3674C29.297 7.17477 30.3658 9.10498 31.4677 11.0125C32.5682 13.0232 33.6789 15.0283 34.7403 17.0589C36.0285 19.4579 37.285 21.8738 38.5155 24.301C38.927 25.1383 39.3286 25.9799 39.7429 26.8158C40.5965 28.6853 41.4876 30.5533 42.0522 32.5315C42.1549 32.9086 42.1303 33.3124 42.2991 33.671C42.4682 33.6754 42.6891 33.6386 42.7136 33.4381C42.7499 33.0188 42.7613 32.5782 42.6155 32.1757C42.2285 30.881 41.6581 29.6482 41.0948 28.4184C39.0541 24.0905 36.752 19.8885 34.4616 15.6835C33 13.0022 31.5196 10.3305 29.9498 7.70851C29.43 6.89802 28.9577 6.05646 28.3915 5.27422C27.7201 4.26321 27.0037 3.27763 26.1733 2.38524C25.3674 1.52392 24.4157 0.693668 23.2141 0.446566C22.869 0.426797 22.5209 0.419736 22.1786 0.457858C21.0954 0.713437 20.1741 1.38837 19.397 2.1452V2.1438ZM20.5465 2.42055C19.4 3.25787 18.4843 4.34935 17.6048 5.44366C17.2307 5.94068 16.8321 6.42217 16.4898 6.94179C14.6644 9.47919 13.0237 12.1381 11.3586 14.7784C10.5065 16.1481 9.66159 17.5233 8.8038 18.8888C8.1885 19.9182 7.5633 20.9418 6.92768 21.9584C6.64034 22.4047 6.39627 22.8762 6.11758 23.3267C5.50951 24.3081 4.97527 25.3303 4.39458 26.3259C3.88329 27.2732 3.35329 28.2095 2.88263 29.1781C2.52446 29.8262 2.25143 30.5124 1.92505 31.1747C1.7186 31.5826 1.62323 32.0317 1.45139 32.4525C1.29103 32.8394 1.23186 33.256 1.255 33.6724C1.49042 33.6754 1.75021 33.6569 1.92364 33.4818C2.01018 33.3067 2.02607 33.1104 2.08541 32.9269C2.27015 32.1942 2.59652 31.5079 2.86673 30.8033C3.60902 29.1102 4.47123 27.4695 5.35639 25.8443C6.58542 23.5511 7.9257 21.3189 9.23703 19.0696C9.49841 18.6486 9.76844 18.2322 9.98956 17.7888C10.5166 16.9092 11.0669 16.0421 11.5911 15.1597C12.0518 14.4608 12.4577 13.7308 12.9126 13.0262C13.4571 12.1084 14.0535 11.2187 14.6254 10.3166C15.3417 9.22359 16.058 8.12928 16.8335 7.07311C17.1498 6.66221 17.4315 6.2259 17.7752 5.83477C18.5189 4.91415 19.2946 3.99917 20.255 3.28611C20.8701 2.81026 21.5951 2.40642 22.3923 2.34853C22.5036 2.33441 22.6132 2.31041 22.7259 2.31464C23.2227 2.35841 23.7223 2.44879 24.163 2.68883C25.2735 3.26916 26.1083 4.22367 26.8722 5.1796C28.1662 6.88954 29.2523 8.73785 30.2906 10.6032C31.4778 12.6886 32.5841 14.8166 33.6962 16.9416C34.9079 19.2362 36.0876 21.5475 37.2402 23.8704C38.101 25.5872 38.9141 27.3255 39.7069 29.0736C40.0491 29.9787 40.481 30.8499 40.7655 31.7748C40.9431 32.204 41.0182 32.6643 41.1945 33.0949C41.2969 33.3378 41.5858 33.3929 41.814 33.4663C41.8341 33.3632 41.8703 33.2601 41.853 33.1543C41.3418 31.1845 40.4319 29.3475 39.5827 27.502C38.1615 24.5551 36.6452 21.6549 35.1216 18.7588C34.0616 16.7764 33.0145 14.7869 31.9212 12.8214C30.8091 10.7712 29.6582 8.73927 28.4088 6.7667C27.7619 5.80513 27.1279 4.83084 26.3739 3.9427C25.9739 3.49226 25.5912 3.02066 25.1031 2.65636C24.4358 2.07602 23.5954 1.57194 22.6696 1.62417C21.8913 1.61712 21.1661 1.97436 20.5568 2.41913L20.5465 2.42055ZM19.9964 4.10931C18.8628 5.14431 17.934 6.3657 17.0416 7.59696C15.5568 9.69794 14.1964 11.8782 12.836 14.0569C12.1154 15.2543 11.3615 16.4333 10.6624 17.6448C9.88695 18.852 9.14325 20.0791 8.42975 21.323C8.01666 21.9867 7.63112 22.6673 7.23534 23.3422C6.69385 24.3108 6.09886 25.2513 5.59482 26.2397C5.24089 26.892 4.85535 27.5289 4.52456 28.194C3.87764 29.4464 3.23355 30.703 2.71361 32.0134C2.56191 32.4214 2.377 32.8266 2.34097 33.2658C2.61542 33.2192 2.86956 33.0921 3.08908 32.9269C3.25368 32.7957 3.2913 32.5782 3.35488 32.3919C3.47038 31.9965 3.65512 31.6279 3.80965 31.2466C4.2517 30.1311 4.81632 29.0693 5.33626 27.9892C5.66846 27.4243 5.94132 26.8298 6.25904 26.2566C6.66206 25.4928 7.08663 24.7416 7.48948 23.979C7.89974 23.129 8.42392 22.3369 8.86438 21.5038C9.94911 19.6625 11.0178 17.8128 12.1226 15.9815C13.4571 13.7589 14.7914 11.5365 16.2371 9.38026C17.0299 8.22954 17.8056 7.05899 18.7414 6.01127C19.5197 5.11465 20.392 4.24063 21.5041 3.74642C22.0891 3.48661 22.7663 3.44001 23.3873 3.5911C24.2294 3.83537 24.9226 4.39876 25.5393 4.98899C26.8029 6.32616 27.7692 7.89207 28.7034 9.45795C29.8791 11.4602 30.9449 13.5217 32.0194 15.5777C33.9489 19.3434 35.8725 23.1135 37.6561 26.9471C38.4648 28.6966 39.2461 30.463 39.8831 32.2802C40.1011 32.5217 40.3828 32.7505 40.7063 32.8421C40.5576 32.2746 40.3278 31.7296 40.1214 31.1803C39.2405 29.0101 38.202 26.9048 37.1766 24.7967C36.1166 22.6447 35.0075 20.5168 33.9113 18.3819C32.3862 15.483 30.8785 12.5744 29.2465 9.73057C28.7541 8.91013 28.2875 8.07562 27.7503 7.28209C27.3373 6.65092 26.9228 6.01834 26.4448 5.43093C25.8729 4.69529 25.2461 3.98363 24.4807 3.43437C24.0821 3.16327 23.643 2.91898 23.1563 2.84697C22.8126 2.8272 22.4645 2.81874 22.1223 2.85967C21.2977 3.04607 20.6202 3.57698 19.9992 4.11214L19.9964 4.10931ZM22.3722 3.99211C21.5114 4.13189 20.7806 4.65292 20.1566 5.22337C19.1024 6.19625 18.2416 7.34563 17.4126 8.50064C16.8279 9.35488 16.2429 10.2106 15.6999 11.0916C14.9835 12.1479 14.3539 13.2563 13.678 14.3378C12.8287 15.7527 11.9796 17.1661 11.1463 18.5894C10.5441 19.5397 10.0055 20.5268 9.44207 21.4995C9.09556 22.1067 8.69112 22.6815 8.36917 23.3027C7.10835 25.4814 5.89523 27.6898 4.7787 29.9419C4.37144 30.7948 3.94687 31.642 3.63057 32.5315C3.93539 32.4525 4.20402 32.2788 4.45092 32.0939C4.7312 31.8736 4.7976 31.5093 4.93483 31.2028C5.78679 29.2627 6.76167 27.3763 7.7611 25.5054C7.92711 25.1269 8.1394 24.7697 8.33438 24.4054C9.10121 23.0344 9.84651 21.6521 10.6337 20.2895C11.4077 18.9466 12.1846 17.6053 12.9617 16.2638C13.5553 15.298 14.094 14.3012 14.7063 13.3466C15.5367 11.9742 16.3715 10.6018 17.3001 9.28994C18.1521 8.09681 19.007 6.88671 20.1147 5.90255C20.6809 5.41258 21.312 4.94804 22.0631 4.78001C22.3649 4.73623 22.671 4.74754 22.9758 4.7546C23.3931 4.75741 23.7817 4.93956 24.1326 5.14431C24.7421 5.49872 25.2244 6.0141 25.7053 6.51395C26.1979 7.12394 26.683 7.74099 27.0961 8.40463C28.3756 10.3758 29.4602 12.4571 30.5363 14.5385C30.8365 15.1667 31.2019 15.7612 31.4965 16.3924C32.0367 17.481 32.5913 18.564 33.1213 19.6583C34.4529 22.399 35.8061 25.1313 37.0307 27.9213C37.308 28.5695 37.6301 29.2007 37.8756 29.8615C38.0909 30.3231 38.241 30.8117 38.462 31.2706C38.6469 31.5319 38.9429 31.7012 39.2374 31.8199C39.2274 31.6772 39.2087 31.5333 39.1437 31.4034C38.9459 30.9685 38.761 30.5293 38.5833 30.0859C37.246 27.0403 35.7628 24.058 34.2839 21.076C33.2758 19.0977 32.2707 17.1181 31.2582 15.1427C30.1059 12.9471 28.9547 10.7485 27.6535 8.63196C26.9776 7.58708 26.2989 6.53514 25.4626 5.60462C25.0526 5.19796 24.6598 4.76166 24.1499 4.46936C23.6358 4.12201 22.9989 3.91587 22.3706 3.99494L22.3722 3.99211ZM21.2818 5.59756C20.6463 5.95761 20.1538 6.50265 19.6483 7.0138C19.1833 7.48824 18.802 8.03327 18.3919 8.55289C18.0569 9.04568 17.6812 9.51441 17.3738 10.0256C16.9621 10.5762 16.6242 11.1736 16.2472 11.7482C14.6817 14.2462 13.2173 16.8047 11.7341 19.3491C11.0957 20.4843 10.4284 21.6041 9.79741 22.7421C9.1678 23.8775 8.50057 24.9928 7.88809 26.1352C7.31199 27.2337 6.70533 28.3195 6.16526 29.4364C6.06565 29.6327 5.93408 29.8135 5.85761 30.021C5.65115 30.5505 5.33485 31.0348 5.17166 31.5812C5.48797 31.4556 5.77531 31.2706 6.04111 31.0631C6.17816 30.9543 6.2518 30.7934 6.32121 30.6408C6.6852 29.757 7.13131 28.9098 7.54741 28.0498C7.81303 27.5993 7.97922 27.1038 8.23477 26.6477C8.52794 26.1097 8.79374 25.5591 9.08691 25.0225C9.44931 24.3759 9.76279 23.7022 10.1527 23.0725C10.4906 22.4159 10.9023 21.7961 11.22 21.1297C11.4222 20.7908 11.6069 20.4434 11.7846 20.0919C13.314 17.3624 14.8493 14.6358 16.5029 11.9756C17.0892 11.0027 17.7261 10.0595 18.3919 9.13746C19.0923 8.18436 19.8592 7.25384 20.8238 6.5436C21.221 6.23861 21.6947 6.0381 22.1828 5.91949C22.4818 5.89126 22.7851 5.89408 23.0841 5.91808C23.9449 6.11999 24.6654 6.68198 25.2431 7.3188C25.7486 7.87512 26.2049 8.47381 26.6094 9.10357C27.8673 11.0324 28.9115 13.084 29.9528 15.13C30.4928 16.2116 31.0069 17.3059 31.5486 18.3874C31.9804 19.2657 32.3818 20.1582 32.8239 21.0321C33.0722 21.5857 33.3308 22.135 33.6022 22.6785C34.7185 25.086 35.8466 27.4894 36.8603 29.9405C36.9874 30.3274 37.3774 30.5251 37.7096 30.7214C37.6619 30.3247 37.4496 29.9787 37.2993 29.6144C37.0639 29.0325 36.7766 28.4721 36.5369 27.8932C34.6131 23.7264 32.5782 19.6117 30.5188 15.5084C29.3405 13.2097 28.1605 10.9053 26.7597 8.72656C26.0635 7.6732 25.327 6.6128 24.3189 5.81642C23.8495 5.45495 23.2819 5.14854 22.6667 5.1796C22.1685 5.14571 21.7063 5.36034 21.2846 5.59615L21.2818 5.59756ZM20.9293 7.05899C19.6194 8.12928 18.6662 9.53703 17.7434 10.9236C16.7975 12.3257 15.9627 13.7971 15.0962 15.2472C14.4823 16.3303 13.8368 17.3978 13.2533 18.4991C12.1905 20.3346 11.1665 22.1915 10.1425 24.0496C9.80023 24.6582 9.49558 25.288 9.14466 25.8937C8.902 26.3809 8.57562 26.8257 8.36617 27.3297C7.98487 28.0612 7.60215 28.7912 7.24258 29.5339C7.10253 29.829 6.89748 30.1099 6.88724 30.4474C7.23534 30.2794 7.57036 30.0564 7.81444 29.7584C8.05569 29.3376 8.20439 28.8716 8.44423 28.4495C8.86438 27.5854 9.29619 26.7281 9.74107 25.8768C10.4878 24.4703 11.1751 23.0344 11.9579 21.645C12.3492 20.9107 12.7205 20.1652 13.148 19.4494C13.4499 18.8859 13.7704 18.3325 14.0708 17.7676C14.4117 17.1082 14.8145 16.4813 15.154 15.822C15.9743 14.4114 16.7772 12.9908 17.6698 11.6211C18.3485 10.5664 19.0519 9.51735 19.9184 8.59949C20.59 7.85818 21.4492 7.20018 22.479 7.05476C22.8112 7.0378 23.136 7.13806 23.4481 7.23689C24.3073 7.58002 24.963 8.26483 25.5061 8.98072C25.9234 9.50457 26.2844 10.0652 26.644 10.6285C27.9221 12.7634 29.0125 14.9987 30.0741 17.2424C30.3383 17.7365 30.5564 18.2519 30.7932 18.7588C31.8736 21.0054 32.8845 23.2815 33.9229 25.5463C34.3922 26.6492 34.8948 27.7364 35.3467 28.8462C35.4999 29.1582 35.8033 29.3715 36.1051 29.5353C36.121 29.2953 36.0126 29.0805 35.9043 28.8744C35.3121 27.485 34.6566 26.1211 34.0427 24.7416C32.935 22.4216 31.849 20.0919 30.7196 17.7818C29.7288 15.7456 28.7296 13.7109 27.6305 11.7271C27.0267 10.6681 26.4216 9.60765 25.6966 8.62207C25.2504 8.04315 24.7954 7.45718 24.2163 6.99826C23.8785 6.73139 23.4855 6.53514 23.0726 6.40663C22.2969 6.23438 21.5156 6.57891 20.9308 7.0604L20.9293 7.05899ZM20.6592 8.54441C19.7161 9.40996 19.0115 10.4789 18.2921 11.521C17.8706 12.227 17.4026 12.9046 16.9953 13.6191C15.4327 16.2299 14.0131 18.9185 12.5371 21.5758C12.0432 22.5373 11.477 23.4608 10.9932 24.428C10.3592 25.5619 9.77003 26.7197 9.17786 27.8747C8.9684 28.3576 8.68388 28.8081 8.49332 29.2995C8.97123 29.1329 9.41187 28.7926 9.60526 28.3252C9.75114 27.992 9.91291 27.6644 10.0719 27.3367C11.064 25.3769 12.0156 23.3959 13.0569 21.46C14.3163 19.0483 15.6147 16.6564 16.9563 14.2871C17.7116 13.0374 18.4525 11.7751 19.3306 10.6018C19.9473 9.85609 20.5582 9.06403 21.4333 8.59101C21.7019 8.45827 21.9778 8.29873 22.2899 8.30437C22.6609 8.30437 23.0523 8.25637 23.399 8.41875C24.235 8.7788 24.8359 9.48627 25.3775 10.1809C26.3999 11.5845 27.1915 13.1306 27.967 14.674C28.9895 16.7425 29.9369 18.8449 30.8914 20.9432C31.82 23.0584 32.7762 25.1623 33.6686 27.2917C33.7668 27.5161 33.8362 27.7575 33.9807 27.9595C34.1423 28.1613 34.3821 28.2884 34.6276 28.3732C34.3936 27.7237 34.0918 27.0981 33.8058 26.4685C33.3943 25.5182 32.9523 24.5805 32.5291 23.6345C32.0973 22.7126 31.7045 21.7721 31.2454 20.8614C30.3556 18.9368 29.4574 17.015 28.5201 15.1103C27.606 13.3014 26.6931 11.4799 25.532 9.80671C25.1407 9.2377 24.6944 8.70256 24.173 8.24083C23.7614 7.87231 23.24 7.55177 22.6623 7.57154C21.8754 7.53624 21.1864 8.01633 20.6578 8.5416L20.6592 8.54441ZM21.9345 8.86776C21.5719 9.0132 21.247 9.24053 20.9669 9.50595C20.5783 9.87025 20.197 10.2459 19.8866 10.6779C19.3016 11.4065 18.7992 12.193 18.3038 12.9809C17.2293 14.7051 16.2703 16.4955 15.3013 18.2774C14.3467 20.0523 13.4108 21.8357 12.4692 23.6176C11.8742 24.7967 11.2359 25.9545 10.661 27.142C10.5137 27.43 10.3173 27.7095 10.3115 28.0427C10.5918 27.9143 10.9095 27.7689 11.0379 27.4738C11.2415 27.0191 11.4713 26.5743 11.6878 26.1252C12.0591 25.456 12.3478 24.7471 12.7132 24.0751C13.3314 22.8042 13.9899 21.5518 14.6282 20.2909C15.2075 19.1302 15.8371 17.9936 16.4363 16.8427C17.3333 15.1864 18.2474 13.5331 19.3262 11.9827C19.9632 11.1101 20.6419 10.2035 21.6297 9.68672C22.1599 9.39442 22.8428 9.3478 23.3873 9.62888C23.8726 9.86041 24.2944 10.2092 24.6308 10.6187C25.5276 11.6353 26.1544 12.8397 26.7929 14.0188C27.6796 15.7639 28.4825 17.5488 29.2797 19.3336C30.2964 21.6535 31.3031 23.979 32.2692 26.3188C32.3732 26.556 32.4454 26.8143 32.6114 27.0204C32.7343 27.1715 32.9205 27.2478 33.0939 27.3269C33.0823 27.0065 32.9263 26.7212 32.7949 26.436C31.2713 22.961 29.7274 19.4959 28.1157 16.0606C27.7676 15.3206 27.382 14.6004 27.0311 13.8634C26.6138 13.0783 26.182 12.3017 25.7226 11.5393C25.1608 10.6738 24.5904 9.77426 23.7368 9.15017C23.461 8.95248 23.1404 8.77033 22.7867 8.77316C22.5006 8.77316 22.2017 8.75056 21.9345 8.86776ZM21.3872 10.3927C20.5798 11.0395 19.9689 11.8782 19.397 12.7211C18.6302 13.9129 17.9024 15.1286 17.2408 16.381C16.0291 18.5696 14.9344 20.8175 13.7704 23.0316C13.2722 24.0059 12.7927 24.9887 12.2915 25.9629C12.1355 26.2918 11.945 26.6081 11.854 26.9626C12.2367 26.9231 12.5082 26.6097 12.641 26.2779C13.015 25.5182 13.3573 24.7443 13.7386 23.9874C14.0867 23.2519 14.4737 22.5346 14.8073 21.7904C15.7908 19.856 16.718 17.8933 17.7838 15.9998C18.5291 14.7446 19.2078 13.4399 20.1278 12.2933C20.6463 11.6481 21.2456 10.9956 22.0645 10.7289C22.3808 10.6809 22.7072 10.6878 23.0249 10.7204C23.6531 10.9039 24.1181 11.391 24.537 11.8584C25.0266 12.491 25.4886 13.1476 25.857 13.8579C26.9878 15.9079 27.8674 18.0754 28.806 20.2132C29.5902 22.1138 30.3874 24.0101 31.1572 25.9163C31.2424 26.1803 31.5082 26.3089 31.7406 26.4303C31.7319 26.3314 31.7291 26.2299 31.6872 26.138C31.2424 25.1086 30.8105 24.0736 30.3729 23.0415C29.6509 21.419 28.9634 19.7811 28.2328 18.163C27.3589 16.2455 26.4866 14.3209 25.4079 12.5022C24.9831 11.8499 24.5702 11.1778 23.994 10.6427C23.6777 10.3166 23.2805 10.051 22.8299 9.94225C22.3027 9.84055 21.7872 10.0793 21.3856 10.3941L21.3872 10.3927ZM21.4695 11.5562C20.8484 12.0617 20.3574 12.6999 19.9214 13.3594C19.3292 14.2023 18.8237 15.1003 18.3269 15.9998C17.4675 17.5473 16.6848 19.1331 15.8934 20.7144C15.0572 22.3679 14.2513 24.0356 13.4354 25.6989C13.3863 25.8062 13.3559 25.9206 13.3285 26.0363C13.5307 25.9602 13.7503 25.8795 13.8831 25.7031C13.9813 25.5506 14.0491 25.3797 14.1286 25.216C14.3726 24.6554 14.6672 24.1174 14.8968 23.5511C15.5844 22.0743 16.2963 20.61 17.0098 19.1457C17.2452 18.5908 17.5629 18.0754 17.8185 17.529C18.1521 16.8287 18.5608 16.1678 18.9247 15.4817C19.2815 14.8617 19.6556 14.2503 20.0759 13.6686C20.6073 12.9131 21.25 12.1351 22.1828 11.8584C22.5844 11.71 23.009 11.8698 23.3658 12.056C23.8785 12.33 24.2409 12.7945 24.5803 13.2479C24.9385 13.7166 25.223 14.2334 25.5031 14.7487C26.5776 16.7764 27.4297 18.9057 28.2947 21.0237C28.7857 22.1463 29.1743 23.3084 29.6495 24.4379C29.7823 24.7514 29.8618 25.0931 30.0654 25.3726C30.1534 25.4997 30.3238 25.4942 30.4596 25.5323C30.4178 25.3966 30.3729 25.2625 30.3224 25.1299C29.8372 23.9961 29.3952 22.8438 28.9056 21.7113C28.6674 21.1592 28.4696 20.5903 28.2082 20.048C27.6997 18.8013 27.151 17.5713 26.5862 16.3486C25.9436 15.01 25.2922 13.6672 24.4258 12.45C24.059 11.9333 23.604 11.4447 23.0118 11.1736C22.7462 11.0932 22.4545 11.1172 22.1814 11.1482C21.9214 11.2371 21.6904 11.3924 21.4737 11.5548L21.4695 11.5562ZM21.7613 12.5573C21.0997 13.0191 20.6131 13.6771 20.19 14.3449C19.7624 14.9634 19.3825 15.6129 19.0346 16.2766C18.6099 17.0008 18.2446 17.7578 17.872 18.509C16.9347 20.3375 16.0725 22.2013 15.1972 24.0596C15.0558 24.3743 14.865 24.668 14.7598 24.9971C14.858 25.1765 15.0934 25.0408 15.1699 24.9082C15.4413 24.503 15.5799 24.0299 15.7995 23.5991C16.3613 22.3213 16.9548 21.0577 17.5528 19.7952C17.973 18.8253 18.4901 17.9004 18.9479 16.9487C19.5602 15.8599 20.1668 14.7487 21.0188 13.8183C21.3929 13.3946 21.9086 13.0671 22.4862 13.0036C23.139 13.0289 23.6805 13.4497 24.0618 13.9383C24.8807 14.9846 25.4512 16.189 25.9912 17.3878C26.9084 19.462 27.7012 21.5856 28.497 23.7065C28.6298 24.0722 28.7497 24.4493 28.9706 24.7768C29.037 24.7754 29.1684 24.7727 29.2334 24.7711C28.9215 23.8208 28.5129 22.9032 28.1561 21.9684C27.7488 20.898 27.2911 19.8489 26.8607 18.7871C26.4303 17.8101 26.0289 16.8216 25.5349 15.8727C25.1131 15.01 24.6741 14.1486 24.095 13.3749C23.7412 12.9302 23.3281 12.4713 22.7549 12.306C22.4024 12.1902 22.0573 12.3922 21.7613 12.5573ZM21.3597 14.0921C20.5495 14.9281 20.0224 15.9701 19.4592 16.9699C18.8988 18.0204 18.3889 19.0936 17.8849 20.1694C17.2597 21.4981 16.6472 22.831 16.0363 24.1668C15.9872 24.2854 15.9584 24.4097 15.928 24.5339C17.4762 23.6571 19.0952 22.8495 20.8484 22.4498C21.3828 22.3284 21.9345 22.3736 22.4776 22.3693C23.1722 22.3723 23.8366 22.5869 24.498 22.7704C25.1709 22.9681 25.8411 23.1898 26.4679 23.5075C27.0456 23.7573 27.613 24.0285 28.1792 24.301C28.0911 23.8464 27.8774 23.4298 27.736 22.9907C26.8246 20.5888 25.9262 18.1757 24.7767 15.8713C24.4893 15.3446 24.2077 14.8109 23.8278 14.3392C23.503 13.9086 23.0581 13.4835 22.4804 13.4497C22.0414 13.5132 21.6486 13.7674 21.3597 14.0908V14.0921ZM20.8297 22.9455C20.4224 22.9864 20.0527 23.1685 19.6598 23.2688C19.1241 23.4325 18.6287 23.6953 18.1116 23.9042C17.5774 24.1456 17.0675 24.4351 16.549 24.7062C16.1794 24.935 15.7375 25.0748 15.4616 25.4236C15.5814 25.4419 15.7043 25.4362 15.8081 25.3685C16.5635 24.9703 17.274 24.4902 18.0525 24.133C19.2598 23.5852 20.5178 23.0542 21.8609 22.9681C22.1309 22.9512 22.3937 23.0273 22.6623 23.0358C23.0537 23.0641 23.4249 23.2053 23.8135 23.2561C25.1725 23.5865 26.4562 24.1584 27.6824 24.8106C27.9698 24.959 28.2342 25.1793 28.5692 25.2076C28.5114 25.1114 28.4623 25.0013 28.3583 24.9448C27.9857 24.7105 27.5798 24.5339 27.1885 24.3348C26.3798 23.9099 25.5248 23.5738 24.6554 23.2899C24.2034 23.1982 23.7817 22.9892 23.3181 22.961C23.0336 22.9327 22.7563 22.8495 22.4689 22.8452C21.9214 22.8396 21.3655 22.8127 20.8297 22.9441V22.9455ZM21.6196 23.5088C21.2037 23.4947 20.8023 23.6091 20.4123 23.7362C19.4374 23.9833 18.5348 24.4324 17.6424 24.8785C17.3549 25.0099 17.079 25.1637 16.809 25.3246C16.3353 25.6028 15.8429 25.8528 15.3793 26.1492C15.1972 26.258 15.0658 26.4232 14.9691 26.6068C15.4182 26.4797 15.7562 26.1423 16.1707 25.9446C17.6106 25.0846 19.0966 24.2431 20.7415 23.8279C21.1373 23.7758 21.5287 23.6994 21.9245 23.6416C22.3201 23.6359 22.6985 23.7941 23.0941 23.8011C23.5014 23.8011 23.8769 23.9734 24.264 24.0665C24.6266 24.1527 24.9586 24.3236 25.3111 24.4379C26.1343 24.7274 26.8925 25.1594 27.6621 25.5591C28.071 25.7751 28.4435 26.0562 28.8724 26.2354C28.861 25.9149 28.5056 25.8189 28.276 25.6734C27.1148 25.0197 25.9176 24.4139 24.6467 23.9904C24.2467 23.8295 23.8149 23.7728 23.4062 23.6416C22.8299 23.4595 22.216 23.5173 21.6182 23.5088H21.6196ZM20.3055 24.4324C19.6932 24.6582 19.072 24.8728 18.4958 25.1806C17.3939 25.7355 16.3252 26.3526 15.297 27.0289C15.0672 27.1815 14.8189 27.3127 14.6123 27.4963C14.5171 27.5641 14.5258 27.6898 14.4968 27.7901C14.803 27.6503 15.0731 27.4469 15.3548 27.2661C15.9021 26.8878 16.4754 26.5517 17.0444 26.2072C18.3312 25.4051 19.7292 24.7528 21.2138 24.3956C21.5069 24.3277 21.8104 24.3604 22.1092 24.3517C22.7923 24.3222 23.4466 24.551 24.1008 24.7091C25.7862 25.2513 27.3547 26.0957 28.8205 27.0671C28.972 27.1701 29.1382 27.2506 29.3087 27.3212C29.2479 26.9345 28.8233 26.8257 28.5402 26.6266C28.0941 26.3245 27.6174 26.0731 27.1394 25.826C26.6369 25.5253 26.0924 25.3063 25.5711 25.0408C25.1463 24.887 24.7334 24.6991 24.2958 24.5821C23.7382 24.3688 23.1432 24.2925 22.5569 24.1894C22.2869 24.1485 22.0124 24.0891 21.7381 24.1371C21.2556 24.2121 20.7791 24.3222 20.3055 24.4337V24.4324ZM20.8832 24.9704C19.8809 25.2385 18.9262 25.6608 18.0221 26.162C17.4243 26.5051 16.8134 26.8341 16.2502 27.2323C15.554 27.6912 14.8276 28.1106 14.1763 28.6316C14.0463 28.7249 13.974 28.8675 13.9336 29.017C14.4449 28.8039 14.8477 28.417 15.3057 28.119C15.9699 27.6544 16.643 27.1984 17.3506 26.7987C17.8185 26.5361 18.2619 26.2312 18.7543 26.0096C19.2525 25.7342 19.7855 25.528 20.3155 25.3191C20.5798 25.2131 20.8673 25.1891 21.1401 25.1073C21.5719 24.9674 22.0341 25.0099 22.4818 25.0239C23.2905 25.1482 24.0835 25.3685 24.8417 25.6663C25.7906 26.0349 26.6657 26.5546 27.548 27.0515C27.912 27.2677 28.2543 27.5204 28.6155 27.7406C28.9938 27.975 29.3201 28.2927 29.7391 28.4636C29.6783 28.3279 29.6278 28.1769 29.5036 28.0823C29.1324 27.797 28.7266 27.5557 28.3352 27.2988C27.538 26.8271 26.7611 26.3145 25.9061 25.946C25.3154 25.6679 24.7189 25.3925 24.0893 25.209C23.7326 25.1326 23.399 24.9464 23.0263 24.9464C22.6955 24.9322 22.3794 24.8136 22.0458 24.8262C21.65 24.8065 21.2687 24.9251 20.8802 24.9688L20.8832 24.9704ZM29.1773 25.4659C29.1815 25.7595 29.4906 25.864 29.7304 25.9376C29.622 25.7129 29.4632 25.4672 29.1773 25.4659ZM20.9033 25.6565C20.3719 25.7751 19.8851 26.0096 19.3898 26.2228C17.4402 27.1235 15.7013 28.3887 13.9712 29.6327C13.7718 29.7796 13.5451 29.9067 13.3963 30.1071C13.3241 30.1862 13.3849 30.2964 13.4108 30.3811C14.663 29.4448 15.9079 28.4975 17.2235 27.646C18.1666 27.0615 19.1211 26.4797 20.1638 26.0772C20.5409 25.9559 20.9077 25.7892 21.3077 25.7554C21.9086 25.6989 22.515 25.72 23.1114 25.8119C24.9529 26.2523 26.6035 27.214 28.1446 28.263C28.832 28.7149 29.4545 29.2599 30.1679 29.6722C30.1131 29.4153 29.9282 29.2176 29.7043 29.0835C28.133 27.951 26.5025 26.8638 24.693 26.1238C24.3348 26.0137 23.9982 25.84 23.63 25.7652C23.1273 25.6551 22.6335 25.4672 22.1108 25.4956C21.7005 25.4757 21.289 25.5111 20.9047 25.6551L20.9033 25.6565ZM14.1849 26.3202C14.4419 26.2143 14.8145 26.0928 14.7914 25.7568C14.5157 25.8372 14.2195 26.0151 14.1849 26.3202ZM21.2065 26.2694C20.2938 26.4429 19.4533 26.8609 18.6605 27.3212C18.1883 27.5655 17.7462 27.8592 17.3029 28.1473C16.7729 28.4566 16.2977 28.8435 15.788 29.1822C15.0385 29.7287 14.2889 30.2765 13.561 30.8513C13.2563 31.097 12.8056 31.296 12.784 31.7366C13.1869 31.5756 13.4714 31.2382 13.8209 30.9953C14.2817 30.6691 14.7034 30.292 15.1495 29.949C15.8472 29.4252 16.5607 28.9226 17.2712 28.4157C17.7752 28.0823 18.301 27.7801 18.8092 27.4554C19.4316 27.0855 20.0974 26.7763 20.7936 26.5672C21.1387 26.4543 21.4896 26.3188 21.8609 26.3259C22.3518 26.3117 22.8342 26.4275 23.3036 26.5588C24.1889 26.7635 25.0121 27.1589 25.7977 27.6009C26.1747 27.7844 26.5299 28.0089 26.8752 28.2447C27.736 28.7898 28.5634 29.387 29.3548 30.0239C29.7837 30.3373 30.1622 30.7144 30.6214 30.9897C30.6027 30.8837 30.6214 30.7594 30.5377 30.6776C30.3614 30.487 30.152 30.3302 29.9455 30.1721C28.5446 29.099 27.1206 28.0343 25.5349 27.2337C24.5948 26.7706 23.6127 26.3442 22.5585 26.2171C22.1092 26.2059 21.65 26.1691 21.2081 26.2694H21.2065ZM30.3355 26.1803C30.4423 26.4515 30.6733 26.6506 30.9492 26.748C30.916 26.6378 30.8987 26.5192 30.8337 26.4218C30.6979 26.2934 30.5131 26.2283 30.3341 26.1803H30.3355ZM29.5888 26.5291C29.6465 26.7832 29.8602 26.9429 30.1 27.0248C30.0697 26.9174 30.0465 26.8058 29.9874 26.7098C29.8733 26.6152 29.7274 26.5757 29.5888 26.5291ZM12.7132 27.2917C13.0483 27.1786 13.3587 26.9569 13.4613 26.6111C13.1364 26.7268 12.7422 26.9075 12.7132 27.2917ZM21.0592 26.9626C20.5524 27.1306 20.0584 27.3367 19.5775 27.5627C18.4712 28.1373 17.4229 28.8166 16.4422 29.5776C16.0695 29.8573 15.6725 30.1044 15.3172 30.4022C14.3453 31.1747 13.34 31.9117 12.4056 32.7278C12.2669 32.8677 12.1297 33.0638 12.2367 33.2631C13.9423 31.8679 15.5958 30.4038 17.4126 29.1456C18.5219 28.3887 19.6497 27.6107 20.9467 27.1927C21.39 27.1166 21.8333 26.9146 22.2913 27.0234C22.6104 27.0968 22.934 27.1518 23.2545 27.2181C24.0445 27.4441 24.8027 27.7717 25.5045 28.191C26.6426 28.8293 27.7012 29.5945 28.7034 30.4191C29.1541 30.737 29.5441 31.1237 29.9701 31.4697C30.3413 31.7732 30.6763 32.1192 31.0735 32.3919C31.0518 32.2449 31.0417 32.0854 30.9363 31.9695C30.6733 31.6633 30.3196 31.4485 30.0292 31.169C29.3837 30.6154 28.6919 30.1185 28.0261 29.5904C26.8722 28.7813 25.7025 27.9623 24.3767 27.4398C23.3643 26.9358 22.1786 26.7212 21.0592 26.9626ZM13.73 27.2407C13.6376 27.3086 13.6664 27.43 13.6563 27.5273C13.8167 27.4526 13.9785 27.3708 14.1084 27.2478C14.2036 27.1546 14.3336 27.0204 14.2153 26.892C14.0505 27.0021 13.8773 27.1066 13.73 27.2407ZM31.6295 27.0135C31.6786 27.1546 31.716 27.3171 31.8446 27.4131C31.9718 27.502 32.1205 27.5513 32.2635 27.6094C32.1899 27.3029 31.9313 27.0924 31.6295 27.0135ZM30.7673 27.3171C30.8626 27.6489 31.189 27.821 31.4749 27.9778C31.3623 27.6631 31.124 27.3692 30.7673 27.3171ZM21.2442 27.6164C20.0354 27.9143 18.9956 28.6189 17.9744 29.2882C17.4993 29.6411 16.9911 29.9533 16.5462 30.3457C16.1403 30.6719 15.7099 30.9685 15.3113 31.3017C14.4926 32.0034 13.6274 32.6545 12.8245 33.3746C12.4504 33.6683 12.0735 33.962 11.7442 34.305C11.5969 34.4378 11.6329 34.6396 11.6315 34.8163C12.1385 34.4053 12.6223 33.9691 13.1118 33.5397C13.496 33.1514 13.9523 32.8421 14.3453 32.4639C14.7366 32.1263 15.1395 31.8029 15.5266 31.4599C16.0522 30.9854 16.6385 30.5802 17.1947 30.1396C17.5022 29.8953 17.8199 29.6665 18.1376 29.4364C19.1169 28.7658 20.1379 28.1177 21.2918 27.7774C21.6196 27.6926 21.9619 27.725 22.2969 27.7223C22.7851 27.718 23.2328 27.9257 23.6935 28.0569C24.0604 28.1684 24.3954 28.3563 24.729 28.537C25.7313 29.0186 26.6108 29.6976 27.5062 30.343C27.9352 30.6367 28.2789 31.0307 28.6992 31.3369C29.4227 31.9695 30.152 32.5965 30.8395 33.2672C31.0749 33.5017 31.319 33.736 31.6194 33.8914C31.579 33.7247 31.5659 33.5328 31.4301 33.4084C31.2337 33.2192 31.0272 33.0428 30.8337 32.8522C30.4365 32.4582 29.9686 32.1391 29.5584 31.7577C29.0934 31.3074 28.5692 30.9205 28.0666 30.5124C27.0571 29.7387 26.0274 28.9775 24.888 28.393C24.4431 28.1981 24.0141 27.9707 23.5563 27.8057C23.1605 27.6955 22.7591 27.6037 22.3577 27.5161C21.985 27.4314 21.6009 27.4978 21.2456 27.6178L21.2442 27.6164ZM29.9715 27.5712C30.0119 27.6997 30.025 27.8493 30.1347 27.944C30.2777 28.0667 30.4423 28.1643 30.6011 28.266C30.5477 28.1261 30.5101 27.975 30.4077 27.8606C30.282 27.7392 30.1218 27.6587 29.9715 27.5712ZM11.1751 28.3323C11.5073 28.1713 11.9464 28.0018 11.9782 27.5824C11.6301 27.7195 11.2128 27.9172 11.1751 28.3323ZM12.0923 28.5992C12.4533 28.4367 12.8215 28.1967 12.9313 27.7986C12.5774 27.9693 12.1573 28.1727 12.0923 28.5992ZM32.9784 27.9257C33.0187 28.3295 33.4116 28.5427 33.7438 28.7064C33.6831 28.5496 33.6398 28.3718 33.504 28.2575C33.3481 28.1204 33.1617 28.0217 32.9784 27.9257ZM13.1263 28.5073C13.1032 28.5949 13.0989 28.6853 13.0887 28.7743C13.3921 28.6513 13.7386 28.4536 13.7632 28.095C13.5364 28.2052 13.2881 28.3069 13.1263 28.5059V28.5073ZM19.2988 29.2078C18.3269 29.8191 17.4199 30.5194 16.5216 31.2268C16.084 31.5742 15.684 31.964 15.2463 32.3112C14.8262 32.6417 14.4159 32.9847 14.0276 33.3506C13.1392 34.1032 12.2872 34.8938 11.3774 35.6224C11.1536 35.789 11.0293 36.0545 11.0784 36.3313C11.2272 36.2495 11.3673 36.1533 11.49 36.0362C11.9681 35.6013 12.4722 35.1945 12.9328 34.7441C13.5553 34.2147 14.1286 33.6315 14.7439 33.0935C15.229 32.6869 15.6753 32.2365 16.1779 31.8496C16.8017 31.2734 17.4748 30.7525 18.1521 30.237C18.5132 29.9433 18.9088 29.6935 19.2974 29.435C20.0441 28.9564 20.8484 28.5172 21.7424 28.3803C22.3114 28.3096 22.869 28.4806 23.4046 28.6458C23.8654 28.8109 24.2958 29.0481 24.7348 29.2599C25.5349 29.7401 26.3104 30.2653 27.0253 30.8625C27.4875 31.2537 27.977 31.6137 28.4291 32.0162C28.8942 32.4623 29.3302 32.9383 29.8055 33.376C30.2604 33.791 30.6777 34.2443 31.1341 34.6595C31.5009 34.9927 31.7969 35.4036 32.2245 35.6704C32.1392 35.3852 32.0973 35.0619 31.8663 34.8458C30.6633 33.7389 29.4775 32.6149 28.2428 31.5403C27.9496 31.2862 27.6275 31.0631 27.3329 30.8104C26.8434 30.3981 26.2989 30.0578 25.7761 29.6891C25.3009 29.3602 24.7954 29.0736 24.2726 28.8236C23.6241 28.4861 22.9078 28.2744 22.1772 28.1953C21.117 28.1373 20.1769 28.7023 19.3002 29.2078H19.2988ZM32.0641 28.1896C32.1277 28.5441 32.4368 28.8053 32.7804 28.8999C32.7877 28.513 32.3732 28.3238 32.0641 28.1896ZM31.2164 28.4566C31.2092 28.8349 31.6049 29.0072 31.8836 29.1795C31.875 28.8109 31.5355 28.5766 31.2164 28.4566ZM9.728 29.0892C9.6457 29.1795 9.49699 29.3785 9.67749 29.4435C10.0198 29.2373 10.3982 28.9959 10.5137 28.5935C10.1974 28.6527 9.95335 28.8801 9.728 29.0892ZM30.3441 28.753C30.4077 29.099 30.7168 29.2967 31.0228 29.4265C30.9854 29.0764 30.6763 28.8321 30.3441 28.753ZM11.1838 28.9507C10.8719 29.1244 10.5339 29.3602 10.4964 29.7401C10.8747 29.5536 11.2763 29.3178 11.4293 28.907C11.3456 28.9084 11.256 28.9041 11.1824 28.9507H11.1838ZM21.0854 29.0241C20.4514 29.2359 19.8968 29.6087 19.3306 29.949C18.841 30.3119 18.3167 30.6323 17.8575 31.0348C16.8957 31.7465 16.0291 32.5654 15.1409 33.3604C14.6282 33.842 14.0751 34.2797 13.5712 34.771C12.7565 35.4558 12.0027 36.2084 11.1564 36.8579C10.9816 36.9991 10.7852 37.1404 10.7001 37.355C10.6409 37.4877 10.6552 37.6345 10.6451 37.7757C11.3152 37.451 11.8077 36.8819 12.3651 36.4104C12.8722 35.9048 13.4267 35.4487 13.9336 34.9418C14.3308 34.548 14.7495 34.1766 15.1511 33.7869C16.0926 32.9086 16.9838 31.9766 18.0034 31.1817C18.3571 30.9205 18.6748 30.614 19.0561 30.3896C19.3825 30.1947 19.6614 29.9307 19.9978 29.7527C20.3719 29.5522 20.7459 29.3475 21.1445 29.2007C21.7337 29.0227 22.3677 29.0707 22.9627 29.1964C23.7873 29.4647 24.5586 29.877 25.2721 30.3585C25.7775 30.7214 26.2498 31.1237 26.7452 31.498C27.2969 32.0189 27.876 32.5132 28.4133 33.0498C29.43 34.0184 30.3773 35.0519 31.3796 36.0347C31.7349 36.3834 32.0786 36.745 32.4627 37.0656C32.4686 36.9214 32.4887 36.7733 32.4498 36.6321C32.3732 36.4865 32.2418 36.3807 32.1263 36.2678C31.7651 35.9402 31.4315 35.5858 31.0763 35.2539C30.555 34.7626 30.0741 34.2317 29.531 33.7629C28.7251 33.0272 27.9843 32.2251 27.1192 31.5531C26.7393 31.2 26.2975 30.9205 25.8989 30.5887C24.9284 29.8797 23.8769 29.2359 22.6971 28.9253C22.1641 28.8335 21.5908 28.8024 21.0854 29.0241ZM35.2371 29.8007C35.2081 29.3475 34.7272 29.1569 34.4052 28.9169C34.4081 29.3616 34.8499 29.661 35.2371 29.8007ZM11.49 29.9293C11.8438 29.7682 12.2931 29.5211 12.3219 29.0961C11.9595 29.2656 11.5261 29.4859 11.49 29.9293ZM33.4939 29.219C33.504 29.6185 33.9012 29.8192 34.1885 30.0308C34.2477 29.9462 34.2565 29.8431 34.1916 29.7598C34.0427 29.4958 33.7539 29.3573 33.4939 29.219ZM12.4836 30.1199C12.7335 29.9913 12.9891 29.8431 13.1595 29.6171C13.1841 29.531 13.174 29.4407 13.1796 29.3518C12.8909 29.5353 12.4404 29.7131 12.4836 30.1185V30.1199ZM21.7814 29.5255C21.507 29.5819 21.2369 29.6596 20.9784 29.7641C19.862 30.2653 18.9046 31.0348 17.9744 31.8059C17.4531 32.276 16.9043 32.718 16.3975 33.2023C15.9238 33.5821 15.5208 34.034 15.0703 34.4364C14.5749 34.8713 14.1185 35.3472 13.6289 35.789C13.2563 36.1238 12.8881 36.4625 12.5299 36.8142C11.9261 37.3394 11.3152 37.8605 10.6322 38.2856C10.6437 38.4197 10.6928 38.6202 10.8747 38.5918C11.217 38.5354 11.4987 38.3066 11.7659 38.1048C13.2376 36.8044 14.5704 35.3669 15.9944 34.0184C16.289 33.7247 16.5534 33.4027 16.8667 33.126C17.2625 32.7731 17.6207 32.3818 18.0307 32.0445C18.4871 31.69 18.896 31.2791 19.3769 30.953C20.0338 30.4305 20.7806 30.0084 21.5878 29.7542C22.0182 29.6228 22.4689 29.7442 22.8833 29.8756C23.5173 30.0845 24.1282 30.3727 24.6654 30.7665C24.9703 30.9671 25.2821 31.1605 25.5508 31.4105C26.1198 31.8948 26.6975 32.3734 27.2144 32.9114C27.4903 33.2037 27.8038 33.4564 28.0724 33.7558C28.4925 34.2033 28.9403 34.627 29.3405 35.093C29.7274 35.4969 30.1115 35.9021 30.4755 36.3256C31.0691 36.9271 31.6049 37.5922 32.2953 38.0949C32.3919 38.1809 32.5305 38.1585 32.6519 38.1725C32.6432 38.0623 32.6736 37.9423 32.6273 37.8392C32.4585 37.6543 32.2273 37.5442 32.0468 37.3733C31.2828 36.6602 30.5679 35.8978 29.8372 35.1536C29.5123 34.771 29.1628 34.4095 28.8002 34.0607C28.2066 33.4395 27.5597 32.8705 26.9301 32.2859C26.3393 31.8228 25.8035 31.2903 25.1681 30.8837C24.4735 30.4177 23.7831 29.8925 22.944 29.7005C22.5641 29.6201 22.1814 29.4604 21.7858 29.5239L21.7814 29.5255ZM32.636 29.4675C32.6577 29.5961 32.6217 29.7527 32.7271 29.8544C32.9032 30.0379 33.1185 30.1764 33.3278 30.3204C33.3885 29.8939 32.9235 29.6878 32.636 29.4675ZM8.00659 30.2907C7.90698 30.3867 7.8925 30.5265 7.87519 30.655C8.307 30.4673 8.78649 30.1974 8.8861 29.7033C8.5569 29.8361 8.24784 30.0324 8.00659 30.2907ZM31.7709 29.7696C31.784 29.8727 31.7768 29.9814 31.8158 30.0818C31.9472 30.2625 32.1537 30.3697 32.3486 30.4742C32.3372 30.3571 32.3746 30.2173 32.2822 30.1241C32.1408 29.9716 31.9544 29.8671 31.7709 29.7696ZM8.84142 30.8456C9.13018 30.864 9.33964 30.6353 9.55192 30.4799C9.72235 30.3599 9.80747 30.1665 9.82778 29.9673C9.40887 30.1382 8.99737 30.4079 8.84142 30.8456ZM30.8395 30.0027C30.8799 30.1834 30.9305 30.3811 31.0951 30.4941C31.2106 30.5731 31.3508 30.7313 31.5023 30.6394C31.4576 30.3133 31.1154 30.1311 30.8395 30.0013V30.0027ZM35.8667 30.0351C35.9403 30.4941 36.3578 30.8273 36.7939 30.9502C36.6885 30.4954 36.2552 30.2399 35.8667 30.0351ZM10.1296 30.6197C9.95918 30.751 9.88112 30.953 9.9115 31.1619C10.1829 30.9797 10.4646 30.8033 10.687 30.5647C10.7954 30.463 10.7765 30.3076 10.7896 30.175C10.5514 30.295 10.3246 30.439 10.1296 30.6197ZM35.0465 30.6536C35.2385 30.9107 35.5144 31.0983 35.8017 31.2423C35.783 31.1097 35.8104 30.953 35.7079 30.8485C35.4999 30.6225 35.2256 30.4673 34.9743 30.2936C34.9829 30.415 34.9598 30.5519 35.0465 30.6536ZM33.9386 30.4221C34.0109 30.6508 34.037 30.9191 34.2304 31.0871C34.4543 31.2805 34.7143 31.4288 34.9425 31.6194C34.8717 31.3991 34.8385 31.145 34.6507 30.9854C34.424 30.7864 34.1684 30.6197 33.9402 30.4221H33.9386ZM10.9787 30.977C10.8864 31.0686 10.9007 31.2028 10.8964 31.323C11.2691 31.1477 11.6432 30.8936 11.7846 30.4941C11.7615 30.4757 11.7154 30.4376 11.6922 30.4177C11.4351 30.5773 11.1852 30.7567 10.9787 30.977ZM11.7528 31.6886C11.9897 31.536 12.2265 31.3794 12.4287 31.1859C12.6064 31.0193 12.706 30.7934 12.8158 30.5816C12.3017 30.7313 11.8005 31.1351 11.7528 31.6886ZM6.50753 31.2325C6.29949 31.3879 6.22019 31.6448 6.15661 31.882C6.39344 31.7945 6.60573 31.6562 6.80353 31.5036C7.07798 31.3173 7.36832 31.0533 7.33494 30.6945C7.04901 30.8584 6.76891 31.032 6.50753 31.2325ZM33.1112 30.8499C33.1646 31.2649 33.5314 31.57 33.9084 31.7197C33.8795 31.2933 33.4853 30.9982 33.1112 30.8499ZM32.2086 31.0757C32.1985 31.416 32.4887 31.6393 32.7227 31.8439C32.7905 31.9159 32.8903 31.9216 32.9841 31.9245C32.938 31.5022 32.5394 31.2763 32.2072 31.0757H32.2086ZM7.40435 31.6208C7.27578 31.7337 7.26854 31.9074 7.25565 32.0642C7.57337 31.9469 7.83616 31.7268 8.07882 31.5022C8.20439 31.4034 8.20298 31.2396 8.21463 31.097C7.90839 31.2099 7.63977 31.4034 7.40294 31.6208H7.40435ZM37.373 31.1548C37.4207 31.3271 37.4496 31.5206 37.5824 31.6546C37.8048 31.8722 38.0692 32.0445 38.3392 32.2011C38.2887 32.0049 38.2569 31.7789 38.0851 31.6462C37.8625 31.464 37.6201 31.3045 37.373 31.1548ZM31.2669 31.2834C31.3363 31.7225 31.7118 32.002 32.0496 32.2534C32.0671 31.786 31.654 31.4683 31.2669 31.2834ZM8.46878 31.8199C8.30418 31.9611 8.24625 32.1786 8.18285 32.3763C8.47884 32.2166 8.77925 32.05 9.01891 31.8157C9.16779 31.6873 9.19959 31.4951 9.19376 31.3116C8.93962 31.4626 8.68689 31.6222 8.46736 31.8199H8.46878ZM37.3543 32.4383C37.3167 32.2689 37.2879 32.0811 37.1506 31.9597C36.9325 31.7536 36.6812 31.5842 36.4301 31.4176C36.4762 31.9117 36.9283 32.2435 37.3543 32.4383ZM9.22979 32.6149C9.47245 32.4863 9.6978 32.3254 9.89843 32.1391C10.0775 31.9894 10.2292 31.7789 10.1729 31.536C9.79599 31.8212 9.21107 32.0655 9.22979 32.6149ZM35.5172 31.7168C35.4912 32.2097 35.9824 32.4808 36.3405 32.7265C36.3347 32.5795 36.3838 32.4045 36.2683 32.2872C36.0617 32.0486 35.783 31.8877 35.5188 31.7182L35.5172 31.7168ZM10.1902 32.8451C10.4747 32.7221 10.7087 32.516 10.9369 32.3142C11.09 32.1871 11.1463 31.9922 11.2041 31.8143C10.7361 31.9837 10.2524 32.324 10.1902 32.8451ZM4.9131 32.3041C4.73985 32.4228 4.63441 32.6545 4.74409 32.8478C4.98958 32.6968 5.24531 32.5555 5.46483 32.3692C5.62802 32.2392 5.66846 32.026 5.71897 31.8383C5.43445 31.9654 5.16583 32.1249 4.91169 32.3028L4.9131 32.3041ZM34.5222 32.0246C34.59 32.1997 34.632 32.4045 34.7908 32.5274C35.0061 32.708 35.2327 32.8775 35.4681 33.0357C35.3958 32.7829 35.3079 32.5203 35.0956 32.3466C34.9294 32.2068 34.7604 32.0162 34.5207 32.0246H34.5222ZM5.92543 32.5825C5.71173 32.7391 5.62502 33.0018 5.60771 33.2544C5.86626 33.0978 6.13065 32.9495 6.37472 32.7715C6.59707 32.6134 6.73995 32.3423 6.71699 32.0712C6.44395 32.2294 6.17392 32.3932 5.92402 32.5825H5.92543ZM11.1896 33.054C11.4856 32.8888 11.7687 32.6911 11.9983 32.444C12.1068 32.3325 12.0663 32.1672 12.0764 32.0289C11.685 32.2689 11.2401 32.5612 11.1882 33.054H11.1896ZM33.7857 32.7265C33.9777 32.9495 34.2262 33.1218 34.502 33.2291C34.4427 33.0428 34.4022 32.8323 34.2507 32.6924C34.0775 32.5245 33.8722 32.396 33.6744 32.2605C33.6022 32.4243 33.6789 32.5951 33.7857 32.7265ZM38.8996 32.5174C39.0513 32.8069 39.3473 33.0003 39.6405 33.1374C39.6622 33.1118 39.7055 33.0624 39.7272 33.0371C39.6564 32.6318 39.2087 32.468 38.9125 32.2406C38.8606 32.3254 38.8346 32.4298 38.8996 32.516V32.5174ZM6.81077 32.9608C6.65341 33.1203 6.58118 33.3435 6.60714 33.5637C6.90031 33.3901 7.19931 33.2178 7.45062 32.9877C7.62529 32.8295 7.65991 32.5866 7.72649 32.3763C7.39711 32.5274 7.06933 32.7052 6.81077 32.9623V32.9608ZM32.639 32.4186C32.6939 32.9029 33.0967 33.2631 33.5155 33.4791C33.5026 33.3321 33.5026 33.1685 33.3913 33.0554C33.1718 32.8111 32.9148 32.6008 32.639 32.4186ZM38.0519 32.9932C38.2612 33.2206 38.5211 33.4041 38.8129 33.5186C38.7927 33.0201 38.2929 32.7829 37.9233 32.5414C37.9233 32.6995 37.9364 32.8705 38.0533 32.9918L38.0519 32.9932ZM7.86354 33.2108C7.68022 33.3534 7.61946 33.5892 7.63253 33.8093C8.05569 33.5412 8.63761 33.2629 8.64486 32.694C8.37058 32.8451 8.11203 33.0215 7.86354 33.2108ZM31.7854 32.6995C31.7985 32.8337 31.7551 32.9932 31.8577 33.1034C32.0613 33.3534 32.3082 33.5764 32.6044 33.7163C32.5191 33.2645 32.1609 32.9397 31.7854 32.6995ZM3.41546 33.2517C3.28689 33.3575 3.27823 33.5257 3.27099 33.6781C3.57282 33.5666 3.87764 33.4226 4.11165 33.2009C4.17364 33.0823 4.30221 32.8901 4.13461 32.8026C3.87906 32.9241 3.62774 33.0654 3.41546 33.2517ZM36.9426 32.8252C36.9196 33.328 37.402 33.6231 37.812 33.8052C37.8064 33.6894 37.8165 33.5723 37.7875 33.4592C37.5565 33.1925 37.2446 33.0074 36.9442 32.8252H36.9426ZM9.11005 33.2841C8.83983 33.4692 8.57421 33.7373 8.61466 34.0877C8.94244 33.89 9.27606 33.6767 9.5143 33.3774C9.62115 33.256 9.6125 33.0921 9.61974 32.9425C9.44348 33.0469 9.27323 33.1598 9.11005 33.2841ZM5.06764 33.1529C4.82639 33.2771 4.58673 33.4141 4.39034 33.6004C4.30221 33.7049 4.18229 33.8884 4.34266 33.9846C4.62417 33.88 4.9131 33.7389 5.10949 33.5101C5.18455 33.4057 5.2914 33.0878 5.06764 33.1514V33.1529ZM40.1083 33.1655C40.2095 33.5412 40.556 33.8475 40.9604 33.8546C40.9562 33.7954 40.9474 33.6781 40.9431 33.6174C40.686 33.4409 40.4419 33.1783 40.1099 33.1655H40.1083ZM9.75555 33.8674C9.63139 33.9944 9.60102 34.1695 9.59961 34.3389C9.89419 34.1921 10.1469 33.9775 10.3837 33.7544C10.531 33.6187 10.5729 33.4169 10.6178 33.2334C10.2638 33.3406 9.9938 33.6018 9.75696 33.8674H9.75555ZM36.0979 33.5694C36.3347 33.8221 36.6293 34.0198 36.9384 34.1793C36.8848 33.9986 36.8373 33.8052 36.7073 33.6598C36.5397 33.4621 36.3116 33.3266 36.0862 33.2009C36.0848 33.3237 36.0733 33.448 36.0965 33.5707L36.0979 33.5694ZM35.0926 33.424C35.1085 33.5595 35.0781 33.7149 35.1677 33.8335C35.3483 34.0792 35.6025 34.2598 35.858 34.4264C35.8957 34.3333 35.9317 34.2287 35.8769 34.1357C35.7325 33.8024 35.3785 33.6287 35.094 33.424H35.0926ZM5.21775 34.2344C5.24672 34.2683 5.30729 34.3347 5.33767 34.3686C5.6425 34.2118 5.98318 34.0452 6.13771 33.7247C6.2027 33.6329 6.15078 33.5298 6.12341 33.4366C5.79703 33.6653 5.32619 33.8109 5.21775 34.2344ZM10.765 34.0776C10.6365 34.2063 10.6393 34.3884 10.651 34.555C10.9079 34.3939 11.152 34.209 11.3629 33.9915C11.5029 33.8504 11.5405 33.6484 11.5983 33.4677C11.2806 33.6075 10.9902 33.815 10.7665 34.0776H10.765ZM2.22105 33.8475C2.22547 33.911 2.23129 34.0367 2.23553 34.1003C2.45223 34.0806 2.67599 34.0296 2.84501 33.887C2.92148 33.7769 2.92007 33.64 2.94321 33.5143C2.67741 33.5623 2.44057 33.6978 2.22246 33.8475H2.22105ZM39.2823 33.5369C39.2795 33.6514 39.2779 33.767 39.2765 33.8815C39.4946 34.0241 39.7184 34.1638 39.9683 34.2513C39.9582 34.1469 39.9813 34.0367 39.9379 33.9394C39.7705 33.7373 39.5177 33.64 39.2823 33.5369ZM6.33428 34.2415C6.15219 34.3841 6.16085 34.6213 6.1695 34.8261C6.43812 34.6876 6.69668 34.5281 6.9321 34.3375C7.12849 34.1766 7.17176 33.9154 7.2281 33.6866C6.91038 33.8377 6.60997 34.0255 6.33428 34.2415ZM34.0962 33.6626C34.1063 34.1496 34.5149 34.4956 34.9266 34.7018C34.9107 34.5592 34.9743 34.3827 34.8616 34.2669C34.6435 34.0241 34.3662 33.8434 34.0962 33.6626ZM41.31 33.8052C41.3071 33.8941 41.3041 33.9817 41.3013 34.0706C41.4414 34.0706 41.5814 34.0678 41.7216 34.0637C41.6162 33.9323 41.4846 33.8221 41.31 33.8052ZM1.47011 34.1935C1.60292 34.1992 1.7359 34.2033 1.87013 34.2063C1.86589 34.1187 1.86289 34.031 1.86147 33.945C1.67957 33.935 1.54375 34.0367 1.47011 34.1935ZM3.14401 34.274C3.14966 34.3615 3.15549 34.449 3.15831 34.5366C3.46014 34.4844 3.82554 34.3855 3.91667 34.0566C3.88912 34.0212 3.8342 33.9492 3.80541 33.914C3.56275 33.9901 3.34322 34.1201 3.14401 34.274ZM7.30174 34.5861C7.15162 34.7272 7.15021 34.9404 7.14438 35.131C7.43756 35.0053 7.72066 34.843 7.94743 34.6213C8.11203 34.4547 8.14381 34.2147 8.14523 33.993C7.86212 34.1864 7.54741 34.3432 7.30174 34.5861ZM33.1921 33.9337C33.2066 34.1073 33.1762 34.3135 33.3177 34.449C33.5459 34.6821 33.7899 34.9038 34.0644 35.0859C34.0775 34.5493 33.5893 34.2147 33.1921 33.935V33.9337ZM38.3378 33.9337C38.2988 34.3249 38.706 34.5126 39.0209 34.6213C39.1654 34.5466 39.067 34.3926 39.0006 34.2993C38.8201 34.1229 38.6107 33.9309 38.3378 33.9337ZM8.31424 34.8627C8.12792 35.0195 8.12068 35.2779 8.05851 35.4953C8.35168 35.3867 8.60159 35.1989 8.83842 35.0026C9.0666 34.8176 9.14325 34.5169 9.1851 34.2415C8.8861 34.4364 8.58569 34.6326 8.31424 34.8627ZM32.2245 34.2118C32.2621 34.3912 32.2722 34.593 32.405 34.7372C32.6072 34.9589 32.8412 35.1522 33.0881 35.3259C33.1185 34.8007 32.6563 34.4307 32.2245 34.2118ZM40.4073 34.4744C40.5387 34.548 40.6874 34.4703 40.8174 34.4293C40.7178 34.3178 40.595 34.2303 40.4622 34.1624C40.4218 34.2613 40.351 34.3672 40.4087 34.476L40.4073 34.4744ZM37.4482 34.5775C37.6215 34.7822 37.8569 34.9489 38.1255 35.0082C38.1155 34.891 38.1255 34.771 38.0923 34.6566C37.9247 34.4703 37.6893 34.3601 37.4814 34.2232C37.4396 34.3361 37.3991 34.4604 37.4482 34.5775ZM4.0509 34.8458C4.20684 35.0224 4.45675 34.8782 4.6141 34.7781C4.77447 34.6906 4.82939 34.5112 4.84087 34.3432C4.52456 34.3699 4.1332 34.5098 4.0509 34.8458ZM2.36834 34.593C2.52729 34.6863 2.70196 34.6552 2.86673 34.6001C2.83918 34.5395 2.81181 34.4801 2.78284 34.4223C2.62266 34.4179 2.47961 34.483 2.36834 34.5946V34.593ZM36.6047 35.011C36.7882 35.1776 36.9933 35.3472 37.2547 35.3726C37.2502 34.9079 36.7621 34.7116 36.4474 34.4575C36.3275 34.6552 36.4633 34.867 36.6047 35.0124V35.011ZM39.4527 34.5338C39.457 34.6426 39.4642 34.7527 39.4686 34.8627C39.59 34.9038 39.7199 34.9164 39.8469 34.8981C39.8397 34.8275 39.8324 34.7569 39.8268 34.6862C39.6996 34.6396 39.5755 34.5889 39.4527 34.5338ZM9.27888 35.1989C9.11569 35.3259 9.17928 35.549 9.17204 35.7255C9.45655 35.5618 9.73683 35.3753 9.9447 35.1212C10.0689 34.9813 10.0429 34.7879 10.0415 34.6186C9.77569 34.7964 9.51289 34.9829 9.27888 35.2002V35.1989ZM5.08636 35.0026C4.98534 35.0859 5.00264 35.227 4.97951 35.3429C5.27709 35.3867 5.51534 35.1762 5.74493 35.0266C5.74352 34.9022 5.74211 34.7767 5.74069 34.6524C5.51252 34.7484 5.27551 34.8403 5.08636 35.0026ZM3.28689 35.0309C3.42994 35.0407 3.57282 35.0464 3.71587 35.0506C3.71004 34.9573 3.7058 34.8656 3.7028 34.7738C3.54103 34.8176 3.39532 34.9022 3.28689 35.0309ZM35.5317 34.8021C35.5274 34.9376 35.5144 35.0746 35.5347 35.2101C35.6978 35.4502 35.9665 35.5999 36.2176 35.7382C36.2307 35.6902 36.2566 35.5942 36.2711 35.5476C36.186 35.1819 35.8033 35.0181 35.5317 34.8021ZM10.0775 35.8201C10.0242 35.9092 10.0616 36.0065 10.0906 36.0968C10.3707 35.8991 10.6568 35.7001 10.8892 35.4473C11.025 35.3019 11.0337 35.1015 11.0307 34.9164C10.6654 35.155 10.2234 35.3838 10.0775 35.8201ZM38.537 34.9349C38.5414 35.0364 38.5414 35.1395 38.5602 35.2398C38.6425 35.3273 38.7724 35.333 38.8851 35.3556C38.9169 35.3076 38.9791 35.2101 39.0093 35.1621C38.8577 35.0746 38.7002 34.9984 38.537 34.9333V34.9349ZM6.04252 35.4022C5.92402 35.5024 5.98035 35.6747 6.03228 35.7947C6.2677 35.6747 6.53349 35.5773 6.70392 35.3682C6.73571 35.2469 6.72264 35.1212 6.72706 34.9984C6.47998 35.0944 6.23591 35.2201 6.04252 35.4022ZM4.2185 35.4813C4.37303 35.5067 4.53039 35.5138 4.68634 35.5193L4.69499 35.2016C4.48553 35.1904 4.31952 35.309 4.2185 35.4798V35.4813ZM34.6608 35.5858C34.8385 35.799 35.0622 36.0207 35.3626 36.0292C35.3425 35.6182 34.967 35.3556 34.6218 35.1945C34.4616 35.2935 34.5916 35.4699 34.6608 35.5858ZM6.99851 35.7298C6.83814 35.8555 6.9162 36.0799 6.90755 36.2536C7.1299 36.1251 7.37256 36.0278 7.57619 35.871C7.74079 35.7355 7.75669 35.5095 7.76693 35.3147C7.47217 35.3682 7.22245 35.5433 6.99851 35.7284V35.7298ZM37.5551 35.5533C37.6605 35.6832 37.8309 35.7085 37.9897 35.7185L38.0893 35.5449C37.9392 35.4544 37.7847 35.3712 37.6243 35.2976C37.5941 35.381 37.571 35.4658 37.5551 35.5533ZM33.6139 35.4375C33.5589 35.919 34.0081 36.2184 34.3676 36.447C34.3676 36.3073 34.3777 36.1688 34.359 36.0319C34.1612 35.7805 33.894 35.5913 33.6139 35.4375ZM5.12398 35.8612C5.2771 35.9092 5.51393 36.0376 5.62219 35.8555C5.60912 35.765 5.58457 35.6775 5.54572 35.5929C5.40125 35.6747 5.2582 35.7636 5.12398 35.8612ZM32.6448 35.6464C32.5754 36.183 33.0621 36.5347 33.4434 36.8254C33.5068 36.6645 33.5185 36.4837 33.4014 36.3425C33.1891 36.0728 32.9235 35.8456 32.6432 35.6464H32.6448ZM36.6899 35.6507C36.6899 35.7862 36.6943 35.9231 36.6987 36.0602C36.882 36.135 37.1001 36.1633 37.2416 35.9967C37.0639 35.8724 36.8806 35.7565 36.6915 35.6507H36.6899ZM7.88809 36.2042C7.8925 36.3199 7.79289 36.5388 7.97339 36.553C8.20015 36.4499 8.42109 36.3171 8.59735 36.1421C8.65934 36.0122 8.62031 35.8582 8.63338 35.7199C8.35751 35.8258 8.07158 35.9684 7.88967 36.2042H7.88809ZM6.10451 36.3525C6.24898 36.3694 6.39485 36.3624 6.54073 36.3638C6.56387 36.2564 6.58259 36.1478 6.58842 36.039C6.39927 36.039 6.05683 36.1039 6.10451 36.3525ZM8.89617 36.5091C8.7676 36.6447 8.71426 36.841 8.80239 37.0133C9.08832 36.865 9.38732 36.7027 9.57647 36.4385C9.64005 36.313 9.5996 36.1604 9.61108 36.0262C9.35253 36.1548 9.09556 36.3002 8.89476 36.5091H8.89617ZM35.7945 36.4527C35.9679 36.5331 36.1643 36.4824 36.3289 36.4074C36.1902 36.2621 36.0198 36.1548 35.8393 36.0687C35.7657 36.183 35.7556 36.3242 35.7945 36.4527ZM9.88253 36.8099C9.73383 36.9511 9.6948 37.1785 9.78734 37.362C10.0646 37.2066 10.3447 37.0302 10.5296 36.769C10.625 36.6433 10.5874 36.4781 10.6019 36.3341C10.3389 36.4541 10.0934 36.6151 9.88112 36.8099H9.88253ZM34.7936 36.3834C34.8125 36.5642 34.8183 36.793 35.0017 36.8947C35.1345 36.9342 35.2645 36.8748 35.383 36.8227C35.2471 36.6081 35.032 36.4668 34.7936 36.3834ZM6.95665 36.6956C7.05767 36.7534 7.15445 36.8636 7.28302 36.8396C7.39852 36.824 7.46069 36.7139 7.54016 36.6447C7.51985 36.5967 7.47941 36.5036 7.45928 36.4556C7.25706 36.4513 7.08946 36.5557 6.95523 36.6956H6.95665ZM7.8434 37.1163C7.90981 37.1657 7.98063 37.2123 8.05286 37.2546C8.20157 37.2999 8.33438 37.2025 8.45712 37.136C8.44705 37.019 8.44281 36.9004 8.43699 36.7831C8.22894 36.8764 8.02831 36.9836 7.84199 37.115L7.8434 37.1163ZM34.073 37.331C34.2376 37.3268 34.4543 37.3563 34.5308 37.17C34.3403 37.0147 34.1366 36.8734 33.93 36.7393C33.7841 36.9484 33.9618 37.1559 34.073 37.331ZM32.9553 37.0485C32.9537 37.2066 32.9291 37.3705 32.9726 37.5273C33.0953 37.6516 33.2658 37.7122 33.4259 37.7771C33.4809 37.6925 33.5372 37.6077 33.5935 37.5229C33.4 37.3408 33.1835 37.1856 32.9567 37.0485H32.9553ZM8.76477 37.5414C8.92937 37.6656 9.1851 37.7771 9.35112 37.588C9.3656 37.4539 9.43341 37.2786 9.29336 37.1883C9.1028 37.2843 8.93379 37.4128 8.76477 37.5414ZM9.69921 37.9494C9.7801 38.0285 9.86099 38.1089 9.94329 38.188C10.0733 38.1174 10.235 38.0723 10.3159 37.9423C10.3564 37.8337 10.3419 37.7165 10.3505 37.605C10.0833 37.602 9.88112 37.7871 9.6978 37.9508L9.69921 37.9494Z" fill="white"/>
</g>
<defs>
<clipPath id="clip0_1239_1975">
<rect width="167" height="39" fill="white"/>
</clipPath>
</defs>
</svg>
