<svg width="150" height="22" viewBox="0 0 150 22" fill="none" xmlns="http://www.w3.org/2000/svg">
<path fill-rule="evenodd" clip-rule="evenodd" d="M0 7.26855C0 3.25424 3.25424 0 7.26855 0C11.2828 0 14.5371 3.25424 14.5371 7.26855V14.6149C14.5371 15.6882 13.667 16.5583 12.5936 16.5583C11.5203 16.5583 10.6502 15.6882 10.6502 14.6149V7.26855C10.6502 5.40093 9.13617 3.88693 7.26855 3.88693C5.40093 3.88693 3.88693 5.40093 3.88693 7.26855V19.5901C3.88693 20.6634 3.0168 21.5336 1.94346 21.5336C0.870118 21.5336 0 20.6634 0 19.5901V7.26855Z" fill="white"/>
<path d="M27.0541 8.31836H24.9552C23.8818 8.31836 23.0117 9.18848 23.0117 10.2618C23.0117 11.3352 23.8818 12.2053 24.9552 12.2053H27.0541C28.1275 12.2053 28.9976 11.3352 28.9976 10.2618C28.9976 9.18848 28.1275 8.31836 27.0541 8.31836Z" fill="white"/>
<path fill-rule="evenodd" clip-rule="evenodd" d="M35.8369 7.26855C35.8369 3.25424 32.5827 0 28.5684 0C24.5541 0 21.2998 3.25424 21.2998 7.26855V14.6149C21.2998 15.6882 22.17 16.5583 23.2433 16.5583C24.3167 16.5583 25.1868 15.6882 25.1868 14.6149V7.26855C25.1868 5.40093 26.7007 3.88693 28.5684 3.88693C30.436 3.88693 31.9501 5.40093 31.9501 7.26855V14.6149C31.9501 15.6882 32.8201 16.5583 33.8935 16.5583C34.9669 16.5583 35.8369 15.6882 35.8369 14.6149V7.26855Z" fill="white"/>
<path fill-rule="evenodd" clip-rule="evenodd" d="M57.1376 7.26855C57.1376 3.25424 53.8834 0 49.8691 0C45.8548 0 42.6006 3.25424 42.6006 7.26855V14.6149C42.6006 15.6882 43.4707 16.5583 44.544 16.5583C45.6174 16.5583 46.4875 15.6882 46.4875 14.6149V7.26855C46.4875 5.40093 48.0015 3.88693 49.8691 3.88693C51.7367 3.88693 53.2507 5.40093 53.2507 7.26855V19.5901C53.2507 20.6634 54.1208 21.5336 55.1942 21.5336C56.2675 21.5336 57.1376 20.6634 57.1376 19.5901V7.26855Z" fill="white"/>
<path fill-rule="evenodd" clip-rule="evenodd" d="M10.6494 14.7311C10.6494 18.7454 13.9036 21.9996 17.9179 21.9996C21.9322 21.9996 25.1865 18.7454 25.1865 14.7311V7.38477H21.2996V14.7311C21.2996 16.5987 19.7855 18.1127 17.9179 18.1127C16.0503 18.1127 14.5363 16.5987 14.5363 14.7311V7.38477H10.6494V14.7311Z" fill="white"/>
<path fill-rule="evenodd" clip-rule="evenodd" d="M31.9502 14.7311C31.9502 18.7454 35.2044 21.9996 39.2187 21.9996C43.233 21.9996 46.4872 18.7454 46.4872 14.7311V7.38477H42.6004V14.7311C42.6004 16.5987 41.0863 18.1127 39.2187 18.1127C37.3511 18.1127 35.8371 16.5987 35.8371 14.7311V7.38477H31.9502V14.7311Z" fill="white"/>
<path d="M86.3912 1.42871V19.9985H83.8195L74.393 6.37945H74.2209V19.9985H71.4229V1.42871H74.0127L83.4482 15.0659H83.6202V1.42871H86.3912Z" fill="white"/>
<path d="M99.6877 19.9985H96.7178L103.392 1.42871H106.624L113.298 19.9985H110.328L105.085 4.80175H104.94L99.6877 19.9985ZM100.186 12.7266H109.82V15.084H100.186V12.7266Z" fill="white"/>
<path d="M123.305 1.42871L128.467 16.553H128.675L133.837 1.42871H136.861L130.188 19.9985H126.954L120.281 1.42871H123.305Z" fill="white"/>
<path d="M149.987 1.42871V19.9985H147.188V1.42871H149.987Z" fill="white"/>
</svg>
