<svg width="89" height="33" viewBox="0 0 89 33" fill="none" xmlns="http://www.w3.org/2000/svg">
<path d="M0 27.1299V22.8633L8.67558 27.841L17.4935 26.8455L21.4757 28.9788L19.3423 31.681L9.67116 32.8188L0 27.1299Z" fill="white"/>
<path d="M4.83558 19.3076L0 22.8632L8.67558 27.8409L13.5112 24.4276L4.83558 19.3076Z" fill="url(#paint0_linear_2982_3343)"/>
<path d="M13.5113 24.4278L8.67578 27.8411L17.4936 26.8456L22.4714 23.29L13.5113 24.4278Z" fill="url(#paint1_linear_2982_3343)"/>
<path d="M22.471 23.29L17.4932 26.8456L21.4754 28.9789L26.4532 25.4234L22.471 23.29Z" fill="white" fill-opacity="0.9"/>
<path d="M19.3418 31.6806L21.4751 28.9784L26.453 25.4229L24.3196 28.125L19.3418 31.6806Z" fill="white" fill-opacity="0.6"/>
<path d="M22.1871 17.7434L20.0537 20.4456L24.8893 16.8901L27.0227 14.3301L22.1871 17.7434Z" fill="white" fill-opacity="0.6"/>
<path d="M22.1873 17.7439L18.2051 15.6106L22.8984 12.1973L27.0229 14.3306L22.1873 17.7439Z" fill="white" fill-opacity="0.9"/>
<path d="M10.8089 13.6195L5.83105 17.175L18.2044 15.6106L22.8978 12.1973L10.8089 13.6195Z" fill="url(#paint2_linear_2982_3343)"/>
<path d="M18.2054 15.6104L5.83203 17.1748L7.68092 21.8681L20.0543 20.4458L22.1877 17.7437L18.2054 15.6104Z" fill="white"/>
<path d="M8.53411 11.3438L6.54297 6.65054L19.9119 4.375L25.8853 7.7883L29.5831 12.0549H25.8853L20.7653 9.21051L8.53411 11.3438Z" fill="white"/>
<path d="M11.5208 3.0939L6.54297 6.64943L19.9119 4.37389L24.6053 0.818359L11.5208 3.0939Z" fill="url(#paint3_linear_2982_3343)"/>
<path d="M25.8845 7.78719L19.9111 4.37389L24.6045 0.818359L30.7201 4.37389L25.8845 7.78719Z" fill="url(#paint4_linear_2982_3343)"/>
<path d="M29.5825 12.0549L25.8848 7.7883L30.7203 4.375L34.4182 8.64167L29.5825 12.0549Z" fill="url(#paint5_linear_2982_3343)"/>
<path d="M79.5822 23.1581C75.7469 23.1581 74.1299 22.117 74.1299 19.0758C74.1299 18.2539 74.2127 17.3498 74.5141 15.7059L75.9383 7.76054C76.6782 3.56867 78.021 2.41797 81.9935 2.41797H88.8428L87.583 5.45912H82.432C80.2401 5.45912 79.8565 6.33585 79.363 9.04826L78.3766 14.5278C78.0481 16.2812 77.8288 17.6511 77.8288 18.3909C77.8288 19.8703 78.788 20.117 81.0893 20.117H86.1852L84.8975 23.1581H79.5822Z" fill="white"/>
<path d="M69.0938 2.41797C72.0528 2.41797 73.3401 2.99332 73.3401 5.04815C73.3401 5.76049 73.2037 6.71943 72.9569 8.17149L72.4911 10.7743C71.7514 14.9661 70.3815 16.1717 66.3813 16.1717H61.2031L59.9702 23.1581H56.2988L59.9428 2.41797H69.0938ZM69.2856 8.17149C69.4226 7.40436 69.5321 6.692 69.5321 6.36324C69.5321 5.51391 69.0116 5.34953 67.4773 5.34953H63.0936L61.7237 13.2401H65.943C68.1348 13.2401 68.5732 12.3633 69.039 9.62356L69.2856 8.17149Z" fill="white"/>
<path d="M51.5978 2.41797C54.5568 2.41797 55.8446 2.99332 55.8446 5.04815C55.8446 5.76049 55.7349 6.71943 55.461 8.17149L54.8856 11.3497C54.3103 14.5004 52.7486 15.0209 49.7896 15.0209L53.4609 23.1581H49.7622L45.899 14.4456L46.2552 12.473H49.0772C50.4745 12.473 51.1046 12.199 51.3787 10.6373L51.7897 8.17149C51.8992 7.45914 52.0362 6.74678 52.0362 6.36324C52.0362 5.51391 51.5157 5.34953 49.9813 5.34953H45.5154L42.3921 23.1581H38.7207L42.3647 2.41797H51.5978Z" fill="white"/>
<path d="M87.8502 25.1738H88.7815L87.7225 31.1659H85.8379C84.8838 31.1659 84.4863 30.8956 84.4863 30.1823C84.4863 30.0095 84.5164 29.7617 84.5839 29.3788L84.7562 28.3802C84.9593 27.1862 85.2666 26.9084 86.5133 26.9084H87.5421L87.8502 25.1738ZM86.0931 30.4075H86.9261L87.4072 27.6668H86.4612C85.9127 27.6668 85.7924 27.817 85.6949 28.3802L85.5145 29.3938C85.4543 29.7167 85.4323 29.8894 85.4323 30.0246C85.4323 30.3475 85.6047 30.4075 86.0931 30.4075Z" fill="white"/>
<path d="M83.0665 26.9082H83.9978L83.2469 31.1658H81.1371C80.1757 31.1658 79.875 30.9405 79.875 30.3999C79.875 30.1971 79.9205 29.9193 79.9953 29.4838L80.4463 26.9082H81.3769L80.9193 29.4838C80.8665 29.7766 80.8437 29.9643 80.8437 30.077C80.8437 30.3398 80.9567 30.3924 81.3094 30.3924H82.4512L83.0665 26.9082Z" fill="white"/>
<path d="M76.6777 31.2192C75.7244 31.2192 75.3262 30.9563 75.3262 30.2355C75.3262 30.0628 75.3562 29.815 75.4237 29.432L75.6195 28.3282C75.8292 27.1267 76.1226 26.8564 77.3766 26.8564H77.8943C78.8484 26.8564 79.2459 27.1192 79.2459 27.8401C79.2459 28.0128 79.2158 28.2606 79.1483 28.6436L78.9533 29.7474C78.7428 30.9488 78.4502 31.2192 77.1962 31.2192H76.6777ZM76.9182 30.4608H77.2563C77.8269 30.4608 77.9244 30.288 78.0219 29.7399L78.2177 28.636C78.2771 28.3131 78.3072 28.1254 78.3072 27.9902C78.3072 27.6674 78.1422 27.6073 77.6545 27.6073H77.3164C76.7459 27.6073 76.6476 27.78 76.5501 28.3282L76.355 29.432C76.2949 29.7549 76.2648 29.9426 76.2648 30.0777C76.2648 30.4006 76.4225 30.4608 76.9182 30.4608Z" fill="white"/>
<path d="M73.9342 31.1659C73.1004 31.1659 72.7324 30.9707 72.7324 30.3324C72.7324 30.0772 72.785 29.7617 72.8526 29.3788L73.5961 25.1738H74.5268L73.7839 29.3788C73.7238 29.7017 73.6783 29.9495 73.6783 30.1072C73.6783 30.4 73.866 30.4075 74.3544 30.4075H74.79L74.4674 31.1659H73.9342Z" fill="white"/>
<path d="M70.09 31.1667C69.0387 31.1667 68.5957 30.8814 68.5957 30.0479C68.5957 29.8226 68.6182 29.5748 68.7008 29.1243L69.0913 26.9467C69.2941 25.7978 69.662 25.4824 70.7508 25.4824H72.628L72.2826 26.3159H70.871C70.2702 26.3159 70.1651 26.5562 70.0299 27.2996L69.7596 28.8014C69.6695 29.282 69.6094 29.6574 69.6094 29.8602C69.6094 30.2656 69.8722 30.3332 70.503 30.3332H71.8997L71.5467 31.1667H70.09Z" fill="white"/>
<path d="M65.062 27.6674L64.7241 29.5822C64.6866 29.7849 64.6565 29.9802 64.6565 30.1003C64.6565 30.4007 64.8442 30.4082 65.3323 30.4082H65.843L65.5201 31.1666H64.9719C64.1308 31.1666 63.7104 30.9413 63.7104 30.2805C63.7104 30.0853 63.7479 29.8224 63.793 29.5822L64.1308 27.6674H63.5752L63.7029 26.909H64.266L64.4913 25.6475H65.4224L65.1972 26.909H66.3911L66.2559 27.6674H65.062Z" fill="white"/>
<path d="M61.531 26.9082C62.4922 26.9082 62.7926 27.1335 62.7926 27.6741C62.7926 27.8769 62.7475 28.1547 62.6724 28.5902L62.2219 31.1658H61.2908L61.7488 28.5902C61.8013 28.2973 61.8239 28.1096 61.8239 27.997C61.8239 27.7342 61.7113 27.6816 61.3583 27.6816H60.262L59.6538 31.1658H58.7227L59.466 26.9082H61.531Z" fill="white"/>
<path d="M57.2075 26.8564C57.9959 26.8564 58.4164 27.0667 58.4164 27.6974C58.4164 27.7875 58.4089 27.9077 58.3864 28.0278L58.2812 28.6211C58.1611 29.2893 57.9133 29.5221 57.29 29.5221H55.638L55.6005 29.7549C55.578 29.8825 55.563 30.0026 55.563 30.0853C55.563 30.3481 55.6981 30.4082 56.1336 30.4082H57.643L57.3351 31.1666H55.9535C54.9772 31.1666 54.6318 30.9188 54.6318 30.3106C54.6318 30.1528 54.6544 29.9651 54.6844 29.7849L54.9772 28.1029C55.1575 27.0667 55.593 26.8564 56.6968 26.8564H57.2075ZM57.4553 28.0278C57.4703 27.9377 57.4778 27.8852 57.4778 27.8326C57.4778 27.6524 57.3651 27.6073 57.0197 27.6073H56.4866C56.1411 27.6073 55.976 27.6524 55.8933 28.1029L55.7732 28.7938H57.0497C57.26 28.7938 57.3426 28.7111 57.3726 28.5159L57.4553 28.0278Z" fill="white"/>
<path d="M52.3106 31.1658C51.357 31.1658 50.959 30.8955 50.959 30.1821C50.959 30.0094 50.9891 29.7616 51.0566 29.3786L51.2293 28.395C51.4395 27.1861 51.7324 26.9082 52.9864 26.9082H54.3756L54.0603 27.6666H52.9339C52.3857 27.6666 52.2731 27.8168 52.168 28.3799L51.9877 29.3786C51.9277 29.7015 51.8977 29.8893 51.8977 30.0244C51.8977 30.3473 52.0628 30.4074 52.5584 30.4074H53.8725L53.5496 31.1658H52.3106Z" fill="white"/>
<path d="M49.0506 26.9082C50.0118 26.9082 50.3121 27.1335 50.3121 27.6741C50.3121 27.8769 50.267 28.1547 50.1919 28.5902L49.7414 31.1658H48.8103L49.2683 28.5902C49.3209 28.2973 49.3434 28.1096 49.3434 27.997C49.3434 27.7342 49.2308 27.6816 48.8779 27.6816H47.7815L47.1733 31.1658H46.2422L46.9856 26.9082H49.0506Z" fill="white"/>
<path d="M44.7259 26.8564C45.5144 26.8564 45.9349 27.0667 45.9349 27.6974C45.9349 27.7875 45.9274 27.9077 45.9049 28.0278L45.7998 28.6211C45.6796 29.2893 45.4319 29.5221 44.8086 29.5221H43.1566L43.1191 29.7549C43.0965 29.8825 43.0815 30.0026 43.0815 30.0853C43.0815 30.3481 43.2167 30.4082 43.6522 30.4082H45.1615L44.8536 31.1666H43.4719C42.4958 31.1666 42.1504 30.9188 42.1504 30.3106C42.1504 30.1528 42.1729 29.9651 42.2029 29.7849L42.4958 28.1029C42.676 27.0667 43.1115 26.8564 44.2153 26.8564H44.7259ZM44.9737 28.0278C44.9888 27.9377 44.9963 27.8852 44.9963 27.8326C44.9963 27.6524 44.8837 27.6073 44.5382 27.6073H44.0051C43.6597 27.6073 43.4945 27.6524 43.4119 28.1029L43.2918 28.7938H44.5683C44.7785 28.7938 44.8612 28.7111 44.8912 28.5159L44.9737 28.0278Z" fill="white"/>
<path d="M42.6555 25.4814L42.5053 26.3149H41.1236L40.2676 31.1658H39.2538L40.1099 26.3149H38.7207L38.8709 25.4814H42.6555Z" fill="white"/>
<defs>
<linearGradient id="paint0_linear_2982_3343" x1="4.12447" y1="17.3166" x2="8.81775" y2="27.9832" gradientUnits="userSpaceOnUse">
<stop stop-color="white" stop-opacity="0.8"/>
<stop offset="1" stop-color="white" stop-opacity="0.95"/>
</linearGradient>
<linearGradient id="paint1_linear_2982_3343" x1="23.0403" y1="23.1478" x2="9.52913" y2="27.699" gradientUnits="userSpaceOnUse">
<stop stop-color="white" stop-opacity="0.9"/>
<stop offset="1" stop-color="white" stop-opacity="0.7"/>
</linearGradient>
<linearGradient id="paint2_linear_2982_3343" x1="23.3245" y1="12.3395" x2="5.97331" y2="16.8907" gradientUnits="userSpaceOnUse">
<stop stop-color="white" stop-opacity="0.9"/>
<stop offset="1" stop-color="white" stop-opacity="0.7"/>
</linearGradient>
<linearGradient id="paint3_linear_2982_3343" x1="22.1875" y1="0.391702" x2="9.52967" y2="6.22289" gradientUnits="userSpaceOnUse">
<stop stop-color="white" stop-opacity="0.9"/>
<stop offset="1" stop-color="white" stop-opacity="0.7"/>
</linearGradient>
<linearGradient id="paint4_linear_2982_3343" x1="27.8756" y1="6.79163" x2="22.329" y2="2.38273" gradientUnits="userSpaceOnUse">
<stop stop-color="white" stop-opacity="0.9"/>
<stop offset="1" stop-color="white" stop-opacity="0.8"/>
</linearGradient>
<linearGradient id="paint5_linear_2982_3343" x1="28.4448" y1="6.08166" x2="32.7114" y2="10.775" gradientUnits="userSpaceOnUse">
<stop stop-color="white" stop-opacity="0.8"/>
<stop offset="1" stop-color="white" stop-opacity="0.9"/>
</linearGradient>
</defs>
</svg>
