<svg width="746" height="347" viewBox="0 0 746 347" fill="none" xmlns="http://www.w3.org/2000/svg">
<path d="M221 296.278C151.221 303.44 34.5 300.278 4 300.278V347H668V101C652.5 101 654.033 166.789 642 183.5C630.207 199.877 631.606 167.758 617.5 160.5C604.112 153.611 591 254.912 568.5 236.5C546 218.088 550.097 280.064 536 273C522.264 266.117 495.04 233.002 485.5 232.5C470.03 231.686 462.5 217.097 444.5 218.088C426.5 219.078 427 252.5 400.5 243C388.733 238.782 394.747 214.611 377 220.5C360.257 226.056 329.645 257.419 305.5 271C273.69 288.892 248.219 293.484 221 296.278Z" fill="url(#paint0_linear_5723_708)"/>
<g filter="url(#filter0_f_5723_708)">
<path d="M4 300.278C34.5 300.278 151.221 303.44 221 296.278C248.219 293.484 273.69 288.892 305.5 271C329.645 257.419 360.257 226.056 377 220.5C394.747 214.611 388.733 238.782 400.5 243C427 252.5 426.5 219.078 444.5 218.088C462.5 217.097 470.03 231.686 485.5 232.5C495.04 233.002 522.264 266.117 536 273C550.097 280.064 546 218.088 568.5 236.5C591 254.912 604.112 153.611 617.5 160.5C631.606 167.758 630.207 199.877 642 183.5C654.033 166.789 652.5 101 668 101" stroke="url(#paint1_linear_5723_708)" stroke-width="2"/>
</g>
<path d="M4 300.278C34.5 300.278 151.221 303.44 221 296.278C248.219 293.484 273.69 288.892 305.5 271C329.645 257.419 360.257 226.056 377 220.5C394.747 214.611 388.733 238.782 400.5 243C427 252.5 426.5 219.078 444.5 218.088C462.5 217.097 470.03 231.686 485.5 232.5C495.04 233.002 522.264 266.117 536 273C550.097 280.064 546 218.088 568.5 236.5C591 254.912 604.112 153.611 617.5 160.5C631.606 167.758 630.207 199.877 642 183.5C654.033 166.789 652.5 101 668 101" stroke="url(#paint2_linear_5723_708)" stroke-width="2"/>
<path opacity="0.2" d="M744.883 60.9936C745.432 61.0582 745.929 60.666 745.993 60.1175C746.058 59.569 745.665 59.072 745.117 59.0074L744.883 60.9936ZM670.564 97.2453C670.916 96.8198 670.856 96.1894 670.431 95.8373C670.005 95.4852 669.375 95.5446 669.023 95.9701L670.564 97.2453ZM672.561 92.0876C672.174 92.4815 672.179 93.1146 672.573 93.5018C672.967 93.889 673.6 93.8836 673.987 93.4897L672.561 92.0876ZM678.287 89.3837C678.697 89.0136 678.729 88.3813 678.359 87.9713C677.989 87.5614 677.357 87.529 676.947 87.8991L678.287 89.3837ZM680.878 84.4966C680.453 84.8496 680.395 85.4801 680.748 85.9049C681.101 86.3296 681.731 86.3877 682.156 86.0347L680.878 84.4966ZM686.836 82.3153C687.276 81.9811 687.361 81.3537 687.027 80.914C686.692 80.4744 686.065 80.389 685.625 80.7232L686.836 82.3153ZM689.813 77.6575C689.361 77.9757 689.253 78.5995 689.571 79.051C689.889 79.5024 690.513 79.6105 690.965 79.2924L689.813 77.6575ZM695.921 75.9566C696.386 75.6583 696.521 75.0397 696.223 74.5749C695.924 74.1101 695.306 73.9752 694.841 74.2735L695.921 75.9566ZM699.27 71.5501C698.794 71.8301 698.635 72.4429 698.915 72.919C699.195 73.3951 699.807 73.5541 700.284 73.2741L699.27 71.5501ZM705.5 70.3744C705.989 70.1182 706.178 69.5139 705.922 69.0246C705.665 68.5353 705.061 68.3464 704.572 68.6026L705.5 70.3744ZM709.234 66.2953C708.733 66.5285 708.516 67.1234 708.75 67.6241C708.983 68.1247 709.578 68.3415 710.078 68.1082L709.234 66.2953ZM715.549 65.7544C716.063 65.5519 716.316 64.9713 716.113 64.4574C715.911 63.9436 715.33 63.6911 714.816 63.8936L715.549 65.7544ZM719.72 62.1234C719.196 62.2952 718.909 62.86 719.081 63.3849C719.253 63.9098 719.818 64.196 720.343 64.0242L719.72 62.1234ZM726.052 62.3961C726.589 62.2663 726.919 61.7259 726.789 61.1891C726.659 60.6523 726.119 60.3224 725.582 60.4521L726.052 62.3961ZM730.714 59.4175C730.169 59.5049 729.797 60.0178 729.885 60.5631C729.972 61.1084 730.485 61.4797 731.03 61.3923L730.714 59.4175ZM736.904 60.7589C737.455 60.7296 737.878 60.2587 737.849 59.7072C737.82 59.1557 737.349 58.7324 736.797 58.7618L736.904 60.7589ZM742.054 58.7503C741.502 58.7222 741.032 59.1466 741.004 59.6982C740.976 60.2498 741.4 60.7197 741.952 60.7477L742.054 58.7503ZM668.838 99.5455C669.263 98.8929 669.839 98.1203 670.564 97.2453L669.023 95.9701C668.266 96.884 667.64 97.7199 667.162 98.4555L668.838 99.5455ZM673.987 93.4897C675.252 92.2035 676.692 90.8235 678.287 89.3837L676.947 87.8991C675.325 89.3632 673.856 90.7706 672.561 92.0876L673.987 93.4897ZM682.156 86.0347C683.629 84.8107 685.192 83.5649 686.836 82.3153L685.625 80.7232C683.959 81.9905 682.372 83.2543 680.878 84.4966L682.156 86.0347ZM690.965 79.2924C692.562 78.167 694.217 77.0507 695.921 75.9566L694.841 74.2735C693.111 75.3837 691.432 76.5162 689.813 77.6575L690.965 79.2924ZM700.284 73.2741C701.986 72.2731 703.727 71.3027 705.5 70.3744L704.572 68.6026C702.768 69.547 700.999 70.5334 699.27 71.5501L700.284 73.2741ZM710.078 68.1082C711.88 67.2691 713.706 66.4808 715.549 65.7544L714.816 63.8936C712.933 64.6357 711.069 65.4402 709.234 66.2953L710.078 68.1082ZM720.343 64.0242C722.236 63.4044 724.142 62.8579 726.052 62.3961L725.582 60.4521C723.617 60.9272 721.661 61.4884 719.72 62.1234L720.343 64.0242ZM731.03 61.3923C732.993 61.0778 734.953 60.8627 736.904 60.7589L736.797 58.7618C734.772 58.8696 732.741 59.0926 730.714 59.4175L731.03 61.3923ZM741.952 60.7477C742.934 60.7977 743.911 60.8791 744.883 60.9936L745.117 59.0074C744.1 58.8875 743.078 58.8025 742.054 58.7503L741.952 60.7477Z" fill="white"/>
<path d="M668 320V100" stroke="url(#paint3_linear_5723_708)" stroke-width="2"/>
<circle cx="668" cy="100" r="7" fill="white"/>
<g filter="url(#filter1_f_5723_708)">
<circle cx="668" cy="100" r="7" fill="white"/>
</g>
<g filter="url(#filter2_b_5723_708)">
<rect x="449.5" y="108" width="184" height="74" rx="37" fill="#F7F7F8" fill-opacity="0.1" style="mix-blend-mode:luminosity"/>
<path d="M497.986 156.464H497.944C497.146 157.85 496.012 158.942 494.542 159.782C493.072 160.622 491.35 161.168 489.376 161.378V166.502H485.512V161.336C483.706 161.126 482.068 160.58 480.598 159.698C479.128 158.816 477.952 157.682 477.028 156.254C476.104 154.826 475.558 153.188 475.348 151.382H479.632C479.842 153.146 480.472 154.616 481.522 155.75C482.572 156.884 483.916 157.64 485.554 157.976V145.754L484.504 145.502C481.858 144.788 479.8 143.822 478.33 142.604C476.86 141.386 476.146 139.664 476.146 137.438C476.146 135.884 476.566 134.498 477.364 133.238C478.162 131.978 479.296 130.97 480.724 130.172C482.152 129.374 483.79 128.87 485.596 128.702V123.788H489.46V128.744C492.106 129.122 494.248 130.046 495.886 131.558C497.524 133.07 498.49 135.002 498.784 137.396H494.5C494.206 136.01 493.618 134.876 492.736 133.994C491.854 133.112 490.72 132.524 489.376 132.23V142.688L490.804 143.066C493.618 143.864 495.718 144.914 497.104 146.258C498.49 147.602 499.162 149.45 499.162 151.76C499.162 153.524 498.784 155.078 497.986 156.464ZM480.934 139.16L481.018 139.202C481.396 139.748 481.942 140.21 482.656 140.546C483.37 140.882 484.336 141.218 485.554 141.596V132.104C484.504 132.272 483.58 132.566 482.782 133.028C481.984 133.49 481.396 134.078 480.976 134.792C480.556 135.506 480.346 136.262 480.346 137.102C480.346 137.942 480.556 138.614 480.934 139.16ZM489.46 158.06L489.418 158.102C491.14 157.808 492.484 157.178 493.45 156.17C494.416 155.162 494.92 153.86 494.92 152.264C494.92 150.962 494.5 149.87 493.66 149.03C492.82 148.19 491.434 147.476 489.46 146.888V158.06ZM509.331 129.08L512.481 129.122V161.042H508.281V137.228H501.519V133.784H502.947C504.291 133.784 505.383 133.658 506.223 133.406C507.063 133.154 507.693 132.734 508.113 132.188C508.533 131.642 508.869 130.928 509.079 130.046L509.331 129.08ZM523.814 161H518.858V155.96H523.814V161ZM546.548 141.26L546.38 141.218C548.061 142.1 549.363 143.36 550.244 144.998C551.127 146.636 551.589 148.526 551.589 150.71C551.589 152.852 551.085 154.742 550.035 156.38C548.985 158.018 547.557 159.278 545.751 160.16C543.945 161.042 541.929 161.504 539.703 161.504C537.099 161.504 534.83 160.874 532.94 159.656C531.05 158.438 529.58 156.59 528.53 154.154C527.48 151.718 526.976 148.694 526.976 145.082C526.976 141.596 527.522 138.614 528.572 136.136C529.622 133.658 531.092 131.768 533.024 130.508C534.957 129.248 537.183 128.618 539.744 128.618C542.727 128.618 545.163 129.332 547.095 130.76C549.027 132.188 550.287 134.204 550.917 136.85H546.633C546.213 135.38 545.457 134.204 544.323 133.322C543.189 132.44 541.676 131.978 539.787 131.978C537.855 131.978 536.258 132.566 534.999 133.742C533.739 134.918 532.815 136.472 532.226 138.446C531.638 140.42 531.344 142.688 531.344 145.25L531.386 146.51C531.764 145.25 532.437 144.116 533.361 143.108C534.285 142.1 535.376 141.344 536.636 140.798C537.896 140.252 539.241 139.958 540.669 139.958C542.895 139.958 544.869 140.378 546.548 141.26ZM543.567 157.22L543.524 157.262C544.701 156.632 545.625 155.75 546.297 154.616C546.968 153.482 547.305 152.18 547.305 150.71C547.305 149.24 547.011 147.938 546.423 146.804C545.835 145.67 544.953 144.788 543.818 144.158C542.685 143.528 541.298 143.234 539.703 143.234C538.149 143.234 536.763 143.528 535.545 144.158C534.327 144.788 533.403 145.628 532.73 146.72C532.058 147.812 531.722 149.03 531.722 150.332C531.722 151.844 532.016 153.188 532.604 154.364C533.192 155.54 534.075 156.464 535.251 157.136C536.426 157.808 537.896 158.144 539.619 158.144C541.089 158.144 542.391 157.85 543.567 157.22ZM573.615 145.25L573.489 145.292C574.749 145.88 575.841 146.72 576.723 147.854C577.605 148.988 578.067 150.374 578.067 152.054C578.067 154.07 577.521 155.792 576.429 157.22C575.337 158.648 573.867 159.698 572.019 160.412C570.171 161.126 568.155 161.462 565.929 161.462C563.745 161.462 561.855 161.084 560.217 160.37C558.579 159.656 557.277 158.606 556.311 157.262C555.345 155.918 554.757 154.322 554.547 152.516H558.831C559.041 154.238 559.755 155.582 560.931 156.59C562.107 157.598 563.787 158.102 565.929 158.102C567.147 158.102 568.365 157.892 569.583 157.472C570.801 157.052 571.809 156.38 572.607 155.456C573.405 154.532 573.783 153.314 573.783 151.844C573.783 150.542 573.405 149.45 572.691 148.526C571.977 147.602 570.969 146.93 569.709 146.468C568.449 146.006 567.021 145.796 565.467 145.796H563.493V142.352H565.467C566.937 142.352 568.239 142.1 569.331 141.638C570.423 141.176 571.263 140.546 571.851 139.748C572.439 138.95 572.733 138.026 572.733 137.018C572.733 136.052 572.439 135.17 571.893 134.372C571.347 133.574 570.549 132.944 569.541 132.524C568.533 132.104 567.357 131.894 565.971 131.894C564.081 131.894 562.569 132.356 561.477 133.28C560.385 134.204 559.755 135.464 559.629 137.018H555.345C555.513 135.296 556.101 133.784 557.109 132.524C558.117 131.264 559.419 130.298 560.973 129.626C562.527 128.954 564.207 128.618 566.013 128.618C568.029 128.618 569.877 128.954 571.557 129.626C573.237 130.298 574.581 131.264 575.589 132.482C576.597 133.7 577.101 135.128 577.101 136.724C577.101 138.95 576.387 140.63 574.959 141.764C573.531 142.898 571.767 143.696 569.709 144.116C571.053 144.284 572.355 144.662 573.615 145.25ZM605.127 146.636H605.085C606.597 147.896 607.353 149.744 607.353 152.138C607.353 154.028 606.891 155.624 605.967 156.926C605.043 158.228 603.699 159.236 601.935 159.908C600.171 160.58 598.029 160.916 595.551 160.916H583.539V128.996H595.551C598.029 128.996 600.087 129.374 601.683 130.13C603.279 130.886 604.455 131.894 605.211 133.154C605.967 134.414 606.345 135.8 606.345 137.354C606.345 138.74 606.009 139.958 605.337 141.008C604.665 142.058 603.741 142.856 602.523 143.444C601.305 144.032 599.919 144.41 598.365 144.578C601.347 144.704 603.615 145.376 605.127 146.636ZM600.213 134.078V134.036C599.121 133.238 597.567 132.818 595.509 132.818H587.739V142.604H595.509C599.751 142.604 601.851 140.966 601.851 137.732C601.851 136.094 601.305 134.876 600.213 134.078ZM595.635 157.178L595.551 157.262C597.987 157.262 599.835 156.8 601.053 155.876C602.271 154.952 602.901 153.608 602.901 151.844C602.901 150.038 602.313 148.694 601.095 147.77C599.877 146.846 598.071 146.384 595.635 146.384H587.739V157.178H595.635Z" fill="white"/>
</g>
<path d="M34.948 42V32.88H37.396L40.24 41.928V32.88H41.452V42H39.004L36.16 32.952V42H34.948ZM46.6023 42.132C44.2743 42.132 42.7623 40.416 42.7623 37.44C42.7623 34.464 44.2743 32.748 46.6023 32.748C48.9303 32.748 50.4423 34.464 50.4423 37.44C50.4423 40.416 48.9303 42.132 46.6023 42.132ZM44.0223 37.44C44.0223 39.78 44.9943 41.112 46.6023 41.112C48.2103 41.112 49.1823 39.78 49.1823 37.44C49.1823 35.1 48.2103 33.768 46.6023 33.768C44.9943 33.768 44.0223 35.1 44.0223 37.44ZM53.7687 42L51.2247 32.88H52.5567L55.0047 41.952L57.4527 32.88H58.7847L56.2407 42H53.7687ZM68.6414 42V40.68L72.5414 37.284C73.2374 36.684 73.8014 36.072 73.8014 35.364C73.8014 34.428 73.1054 33.696 71.8814 33.696C70.7414 33.696 69.9974 34.272 69.9014 35.424H68.6774C68.7854 33.612 70.2494 32.748 71.8814 32.748C73.6694 32.748 75.0254 33.756 75.0254 35.364C75.0254 36.432 74.3774 37.2 73.4774 37.98L69.9974 41.016H75.2534V42H68.6414ZM80.2117 42.132C78.0397 42.132 76.6837 40.476 76.6837 37.44C76.6837 34.404 78.0397 32.748 80.2117 32.748C82.3837 32.748 83.7397 34.404 83.7397 37.44C83.7397 40.476 82.3837 42.132 80.2117 42.132ZM77.9077 37.44C77.9077 38.232 77.9917 38.904 78.1597 39.444L81.6277 34.284C81.2557 33.9 80.7757 33.696 80.2117 33.696C78.7717 33.696 77.9077 34.98 77.9077 37.44ZM78.7957 40.584C79.1677 40.98 79.6477 41.184 80.2117 41.184C81.6517 41.184 82.5157 39.9 82.5157 37.44C82.5157 36.648 82.4317 35.976 82.2517 35.424L78.7957 40.584ZM85.4461 42V40.68L89.3461 37.284C90.0421 36.684 90.6061 36.072 90.6061 35.364C90.6061 34.428 89.9101 33.696 88.6861 33.696C87.5461 33.696 86.8021 34.272 86.7061 35.424H85.4821C85.5901 33.612 87.0541 32.748 88.6861 32.748C90.4741 32.748 91.8301 33.756 91.8301 35.364C91.8301 36.432 91.1821 37.2 90.2821 37.98L86.8021 41.016H92.0581V42H85.4461ZM93.4644 39.336V38.016L96.9204 32.88H99.3564V38.352H100.688V39.336H99.3564V42H98.1564V39.336H93.4644ZM94.5084 38.352H98.1564V32.928L94.5084 38.352Z" fill="#F7F7F8"/>
<path d="M34.756 57.08H60.25V60.86H49.624V89H45.382V60.86H34.756V57.08ZM61.1953 87.992H61.1533C59.4733 87.026 58.2133 85.64 57.3313 83.876C56.4493 82.112 55.9873 80.054 55.9873 77.744C55.9873 75.434 56.4493 73.376 57.3313 71.612C58.2133 69.848 59.5153 68.462 61.1953 67.496C62.8753 66.53 64.8073 66.026 66.9913 66.026C69.1753 66.026 71.1073 66.53 72.7453 67.496C74.3833 68.462 75.6433 69.848 76.5253 71.612C77.4073 73.376 77.8693 75.434 77.8693 77.744C77.8693 80.054 77.4073 82.112 76.5253 83.876C75.6433 85.64 74.3833 87.026 72.7453 87.992C71.1073 88.958 69.1753 89.462 66.9913 89.462C64.8073 89.462 62.8753 88.958 61.1953 87.992ZM70.5193 85.388L70.4773 85.556C71.4853 84.842 72.2413 83.834 72.7873 82.532C73.3333 81.23 73.5853 79.676 73.5853 77.912C73.5853 76.148 73.3333 74.594 72.7873 73.292C72.2413 71.99 71.4853 70.982 70.4773 70.268C69.4693 69.554 68.2513 69.176 66.8653 69.176C65.4793 69.176 64.2613 69.512 63.2533 70.226C62.2453 70.94 61.4893 71.948 60.9433 73.25C60.3973 74.552 60.1453 76.064 60.1453 77.828C60.1453 79.592 60.3973 81.104 60.9433 82.406C61.4893 83.708 62.2873 84.716 63.2953 85.43C64.3033 86.144 65.5213 86.48 66.9073 86.48C68.2933 86.48 69.5113 86.102 70.5193 85.388ZM92.8479 85.892L92.7639 89H89.8239C88.4799 89 87.3039 88.79 86.2539 88.328C85.2039 87.866 84.3639 87.194 83.7759 86.27C83.1879 85.346 82.8939 84.212 82.8939 82.826V82.742V69.596H78.1479V66.488H82.8939V61.154H87.0099V66.488H92.7219V69.596H87.0099V82.742V82.826C87.0099 83.96 87.3039 84.758 87.8499 85.22C88.3959 85.682 89.2359 85.892 90.3279 85.892H92.8479ZM109.719 67.244L109.635 67.496C111.021 68.294 112.029 69.344 112.659 70.604C113.289 71.864 113.625 73.25 113.625 74.762V74.846V89.252H109.509V84.632C108.963 85.766 108.375 86.69 107.745 87.404C107.115 88.118 106.317 88.664 105.351 89.042C104.385 89.42 103.209 89.63 101.823 89.63C100.437 89.63 99.1771 89.294 98.0431 88.664C96.9091 88.034 95.9851 87.152 95.3131 86.06C94.6411 84.968 94.3051 83.75 94.3051 82.364C94.3051 80.726 94.7671 79.424 95.6911 78.5C96.6151 77.576 97.7491 76.904 99.0511 76.526C100.353 76.148 101.865 75.854 103.587 75.686L109.635 75.056V74.678V74.594C109.635 73.586 109.467 72.662 109.089 71.822C108.711 70.982 108.123 70.31 107.325 69.848C106.527 69.386 105.561 69.134 104.427 69.134C103.419 69.134 102.537 69.302 101.781 69.68C101.025 70.058 100.437 70.562 100.017 71.192C99.5971 71.822 99.3451 72.494 99.2191 73.208H95.0191C95.1871 71.822 95.6911 70.562 96.5311 69.47C97.3711 68.378 98.4631 67.538 99.8071 66.95C101.151 66.362 102.705 66.068 104.427 66.068C106.569 66.068 108.333 66.446 109.719 67.244ZM106.653 86.06V86.186C107.577 85.556 108.291 84.674 108.753 83.582C109.215 82.49 109.467 81.23 109.467 79.844V78.164L104.973 78.626C103.587 78.752 102.453 78.92 101.571 79.13C100.689 79.34 99.9331 79.718 99.3031 80.264C98.6731 80.81 98.3791 81.608 98.3791 82.616C98.3791 83.54 98.5891 84.338 99.0091 85.01C99.4291 85.682 100.017 86.186 100.773 86.522C101.529 86.858 102.369 87.026 103.251 87.026C104.595 87.026 105.729 86.69 106.653 86.06ZM122.445 89H118.329V57.08H122.445V89ZM147.414 88.832L158.082 57.08H162.744L151.824 89H142.962L132.042 57.08H136.704L147.414 88.832ZM176.581 67.244L176.497 67.496C177.883 68.294 178.891 69.344 179.521 70.604C180.151 71.864 180.487 73.25 180.487 74.762V74.846V89.252H176.371V84.632C175.825 85.766 175.237 86.69 174.607 87.404C173.977 88.118 173.179 88.664 172.213 89.042C171.247 89.42 170.071 89.63 168.685 89.63C167.299 89.63 166.039 89.294 164.905 88.664C163.771 88.034 162.847 87.152 162.175 86.06C161.503 84.968 161.167 83.75 161.167 82.364C161.167 80.726 161.629 79.424 162.553 78.5C163.477 77.576 164.611 76.904 165.913 76.526C167.215 76.148 168.727 75.854 170.449 75.686L176.497 75.056V74.678V74.594C176.497 73.586 176.329 72.662 175.951 71.822C175.573 70.982 174.985 70.31 174.187 69.848C173.389 69.386 172.423 69.134 171.289 69.134C170.281 69.134 169.399 69.302 168.643 69.68C167.887 70.058 167.299 70.562 166.879 71.192C166.459 71.822 166.207 72.494 166.081 73.208H161.881C162.049 71.822 162.553 70.562 163.393 69.47C164.233 68.378 165.325 67.538 166.669 66.95C168.013 66.362 169.567 66.068 171.289 66.068C173.431 66.068 175.195 66.446 176.581 67.244ZM173.515 86.06V86.186C174.439 85.556 175.153 84.674 175.615 83.582C176.077 82.49 176.329 81.23 176.329 79.844V78.164L171.835 78.626C170.449 78.752 169.315 78.92 168.433 79.13C167.551 79.34 166.795 79.718 166.165 80.264C165.535 80.81 165.241 81.608 165.241 82.616C165.241 83.54 165.451 84.338 165.871 85.01C166.291 85.682 166.879 86.186 167.635 86.522C168.391 86.858 169.231 87.026 170.113 87.026C171.457 87.026 172.591 86.69 173.515 86.06ZM189.307 89H185.191V57.08H189.307V89ZM208.582 66.488L212.656 66.446V88.958H208.54V84.464C207.994 85.892 207.154 87.068 205.978 87.992C204.802 88.916 203.332 89.378 201.61 89.378C199.972 89.378 198.586 89 197.41 88.244C196.234 87.488 195.352 86.438 194.764 85.094C194.176 83.75 193.882 82.196 193.882 80.474V80.39V66.446H197.998V79.76V79.844C197.998 82.07 198.46 83.708 199.384 84.8C200.308 85.892 201.61 86.438 203.29 86.438C204.97 86.438 206.272 85.892 207.196 84.8C208.12 83.708 208.582 82.028 208.582 79.802V66.488ZM237.338 78.962L220.286 79.046C220.454 81.44 221.126 83.288 222.26 84.59C223.394 85.892 224.906 86.522 226.796 86.522C228.35 86.522 229.61 86.186 230.534 85.514C231.458 84.842 232.172 83.834 232.634 82.532H236.834C236.204 84.884 235.028 86.648 233.306 87.824C231.584 89 229.442 89.588 226.838 89.588C224.612 89.588 222.722 89.084 221.126 88.076C219.53 87.068 218.312 85.682 217.472 83.918C216.632 82.154 216.212 80.138 216.212 77.87C216.212 75.56 216.632 73.544 217.472 71.78C218.312 70.016 219.53 68.63 221.126 67.622C222.722 66.614 224.612 66.11 226.796 66.11C228.896 66.11 230.744 66.572 232.34 67.496C233.936 68.42 235.196 69.764 236.078 71.486C236.96 73.208 237.422 75.182 237.422 77.45C237.422 77.744 237.38 78.248 237.338 78.962ZM222.386 70.898L222.344 70.856C221.21 72.032 220.538 73.712 220.286 75.938H233.138C233.054 74.594 232.76 73.418 232.214 72.41C231.668 71.402 230.912 70.604 229.988 70.016C229.064 69.428 228.014 69.134 226.796 69.134C224.99 69.134 223.52 69.722 222.386 70.898ZM254.631 57.08V85.22H269.247V89H250.389V57.08H254.631ZM274.742 87.992H274.7C273.02 87.026 271.76 85.64 270.878 83.876C269.996 82.112 269.534 80.054 269.534 77.744C269.534 75.434 269.996 73.376 270.878 71.612C271.76 69.848 273.062 68.462 274.742 67.496C276.422 66.53 278.354 66.026 280.538 66.026C282.722 66.026 284.654 66.53 286.292 67.496C287.93 68.462 289.19 69.848 290.072 71.612C290.954 73.376 291.416 75.434 291.416 77.744C291.416 80.054 290.954 82.112 290.072 83.876C289.19 85.64 287.93 87.026 286.292 87.992C284.654 88.958 282.722 89.462 280.538 89.462C278.354 89.462 276.422 88.958 274.742 87.992ZM284.066 85.388L284.024 85.556C285.032 84.842 285.788 83.834 286.334 82.532C286.88 81.23 287.132 79.676 287.132 77.912C287.132 76.148 286.88 74.594 286.334 73.292C285.788 71.99 285.032 70.982 284.024 70.268C283.016 69.554 281.798 69.176 280.412 69.176C279.026 69.176 277.808 69.512 276.8 70.226C275.792 70.94 275.036 71.948 274.49 73.25C273.944 74.552 273.692 76.064 273.692 77.828C273.692 79.592 273.944 81.104 274.49 82.406C275.036 83.708 275.834 84.716 276.842 85.43C277.85 86.144 279.068 86.48 280.454 86.48C281.84 86.48 283.058 86.102 284.066 85.388ZM298.656 87.992L298.446 88.076C296.766 87.11 295.506 85.724 294.624 83.96C293.742 82.196 293.28 80.138 293.28 77.828C293.28 75.518 293.742 73.46 294.624 71.696C295.506 69.932 296.808 68.546 298.488 67.58C300.168 66.614 302.1 66.11 304.284 66.11C306.09 66.11 307.728 66.446 309.156 67.118C310.584 67.79 311.76 68.756 312.642 69.974C313.524 71.192 314.154 72.578 314.49 74.174H310.29C309.954 72.704 309.282 71.486 308.274 70.52C307.266 69.554 305.964 69.092 304.326 69.092C302.94 69.092 301.722 69.428 300.714 70.142C299.706 70.856 298.95 71.864 298.404 73.166C297.858 74.468 297.606 75.98 297.606 77.744C297.606 79.508 297.858 81.02 298.404 82.322C298.95 83.624 299.748 84.632 300.756 85.346C301.764 86.06 302.982 86.396 304.368 86.396C307.56 86.396 309.618 84.758 310.584 81.44H314.784C314.406 83.12 313.734 84.548 312.768 85.766C311.802 86.984 310.584 87.908 309.156 88.538C307.728 89.168 306.174 89.462 304.452 89.462C302.268 89.462 300.336 88.958 298.656 87.992ZM326.709 76.442L337.755 89H332.631L321.963 76.862V89H317.847V57.08H321.963V76.106L332.211 66.488H337.335L326.709 76.442ZM357.975 78.962L340.923 79.046C341.091 81.44 341.763 83.288 342.897 84.59C344.031 85.892 345.543 86.522 347.433 86.522C348.987 86.522 350.247 86.186 351.171 85.514C352.095 84.842 352.809 83.834 353.271 82.532H357.471C356.841 84.884 355.665 86.648 353.943 87.824C352.221 89 350.079 89.588 347.475 89.588C345.249 89.588 343.359 89.084 341.763 88.076C340.167 87.068 338.949 85.682 338.109 83.918C337.269 82.154 336.849 80.138 336.849 77.87C336.849 75.56 337.269 73.544 338.109 71.78C338.949 70.016 340.167 68.63 341.763 67.622C343.359 66.614 345.249 66.11 347.433 66.11C349.533 66.11 351.381 66.572 352.977 67.496C354.573 68.42 355.833 69.764 356.715 71.486C357.597 73.208 358.059 75.182 358.059 77.45C358.059 77.744 358.017 78.248 357.975 78.962ZM343.023 70.898L342.981 70.856C341.847 72.032 341.175 73.712 340.923 75.938H353.775C353.691 74.594 353.397 73.418 352.851 72.41C352.305 71.402 351.549 70.604 350.625 70.016C349.701 69.428 348.651 69.134 347.433 69.134C345.627 69.134 344.157 69.722 343.023 70.898ZM377.619 57.08L381.861 57.206V89.126H377.745V84.212C377.283 85.262 376.653 86.186 375.813 86.984C374.973 87.782 374.049 88.412 372.999 88.874C371.949 89.336 370.857 89.546 369.723 89.546C367.917 89.546 366.279 89.042 364.809 88.034C363.339 87.026 362.205 85.64 361.365 83.876C360.525 82.112 360.105 80.096 360.105 77.828C360.105 75.56 360.525 73.544 361.365 71.78C362.205 70.016 363.339 68.63 364.809 67.622C366.279 66.614 367.917 66.11 369.723 66.11C371.067 66.11 372.285 66.362 373.335 66.908C374.385 67.454 375.267 68.168 375.981 69.05C376.695 69.932 377.241 70.898 377.619 71.948V57.08ZM374.763 85.514L374.721 85.682C375.729 84.968 376.527 83.96 377.073 82.658C377.619 81.356 377.871 79.802 377.871 78.038C377.871 76.274 377.619 74.72 377.073 73.418C376.527 72.116 375.771 71.108 374.763 70.394C373.755 69.68 372.537 69.302 371.151 69.302C369.765 69.302 368.547 69.638 367.539 70.352C366.531 71.066 365.775 72.074 365.229 73.376C364.683 74.678 364.431 76.19 364.431 77.954C364.431 79.718 364.683 81.23 365.229 82.532C365.775 83.834 366.531 84.842 367.539 85.556C368.547 86.27 369.765 86.606 371.151 86.606C372.537 86.606 373.755 86.228 374.763 85.514Z" fill="#F7F7F8"/>
<defs>
<filter id="filter0_f_5723_708" x="0" y="96" width="672" height="209.973" filterUnits="userSpaceOnUse" color-interpolation-filters="sRGB">
<feFlood flood-opacity="0" result="BackgroundImageFix"/>
<feBlend mode="normal" in="SourceGraphic" in2="BackgroundImageFix" result="shape"/>
<feGaussianBlur stdDeviation="2" result="effect1_foregroundBlur_5723_708"/>
</filter>
<filter id="filter1_f_5723_708" x="652.666" y="84.6663" width="30.6674" height="30.6674" filterUnits="userSpaceOnUse" color-interpolation-filters="sRGB">
<feFlood flood-opacity="0" result="BackgroundImageFix"/>
<feBlend mode="normal" in="SourceGraphic" in2="BackgroundImageFix" result="shape"/>
<feGaussianBlur stdDeviation="4.16685" result="effect1_foregroundBlur_5723_708"/>
</filter>
<filter id="filter2_b_5723_708" x="69.1118" y="-272.388" width="944.776" height="834.776" filterUnits="userSpaceOnUse" color-interpolation-filters="sRGB">
<feFlood flood-opacity="0" result="BackgroundImageFix"/>
<feGaussianBlur in="BackgroundImageFix" stdDeviation="190.194"/>
<feComposite in2="SourceAlpha" operator="in" result="effect1_backgroundBlur_5723_708"/>
<feBlend mode="normal" in="SourceGraphic" in2="effect1_backgroundBlur_5723_708" result="shape"/>
</filter>
<linearGradient id="paint0_linear_5723_708" x1="438" y1="241.96" x2="438" y2="333.699" gradientUnits="userSpaceOnUse">
<stop stop-color="#A744DE"/>
<stop offset="1" stop-color="#A744DE" stop-opacity="0"/>
</linearGradient>
<linearGradient id="paint1_linear_5723_708" x1="4" y1="249.975" x2="668" y2="249.975" gradientUnits="userSpaceOnUse">
<stop stop-color="#FDADC4"/>
<stop offset="1" stop-color="#C357FF"/>
</linearGradient>
<linearGradient id="paint2_linear_5723_708" x1="4" y1="249.975" x2="668" y2="249.975" gradientUnits="userSpaceOnUse">
<stop stop-color="#FDADC4"/>
<stop offset="1" stop-color="#C357FF"/>
</linearGradient>
<linearGradient id="paint3_linear_5723_708" x1="668.5" y1="186" x2="668.5" y2="320" gradientUnits="userSpaceOnUse">
<stop stop-color="white"/>
<stop offset="1" stop-color="white" stop-opacity="0"/>
</linearGradient>
</defs>
</svg>
