<svg width="306" height="181" viewBox="0 0 306 181" fill="none" xmlns="http://www.w3.org/2000/svg">
<path d="M3.37 9.11C1.81 9.11 0.86 8.29 0.72 6.99H1.74C1.83 7.77 2.35 8.32 3.37 8.32C4.16 8.32 5.18 7.92 5.18 6.82C5.18 5.86 4.3 5.39 3.25 5.39H2.79V4.57H3.25C4.29 4.57 4.94 4.01 4.94 3.3C4.94 2.59 4.33 2.08 3.36 2.08C2.46 2.08 1.95 2.58 1.89 3.31H0.87C0.98 2.04 2.11 1.29 3.36 1.29C4.77 1.29 5.96 2.04 5.96 3.22C5.96 4.38 5.02 4.82 4.21 4.98C5.03 5.08 6.2 5.56 6.2 6.86C6.2 8.36 4.88 9.11 3.37 9.11ZM10.202 9.11C8.39195 9.11 7.26195 7.73 7.26195 5.2C7.26195 2.67 8.39195 1.29 10.202 1.29C12.012 1.29 13.142 2.67 13.142 5.2C13.142 7.73 12.012 9.11 10.202 9.11ZM8.28195 5.2C8.28195 5.86 8.35195 6.42 8.49195 6.87L11.382 2.57C11.072 2.25 10.672 2.08 10.202 2.08C9.00195 2.08 8.28195 3.15 8.28195 5.2ZM9.02195 7.82C9.33195 8.15 9.73195 8.32 10.202 8.32C11.402 8.32 12.122 7.25 12.122 5.2C12.122 4.54 12.052 3.98 11.902 3.52L9.02195 7.82ZM14.1239 9V1.4H15.8639L16.9039 7.23L17.9439 1.4H19.6839V9H18.8139V1.46L17.7739 7.29H16.0339L14.9939 1.46V9H14.1239Z" fill="#ACC8E5"/>
<path d="M0.86 57V55.9L4.11 53.07C4.69 52.57 5.16 52.06 5.16 51.47C5.16 50.69 4.58 50.08 3.56 50.08C2.61 50.08 1.99 50.56 1.91 51.52H0.89C0.98 50.01 2.2 49.29 3.56 49.29C5.05 49.29 6.18 50.13 6.18 51.47C6.18 52.36 5.64 53 4.89 53.65L1.99 56.18H6.37V57H0.86ZM10.202 57.11C8.39195 57.11 7.26195 55.73 7.26195 53.2C7.26195 50.67 8.39195 49.29 10.202 49.29C12.012 49.29 13.142 50.67 13.142 53.2C13.142 55.73 12.012 57.11 10.202 57.11ZM8.28195 53.2C8.28195 53.86 8.35195 54.42 8.49195 54.87L11.382 50.57C11.072 50.25 10.672 50.08 10.202 50.08C9.00195 50.08 8.28195 51.15 8.28195 53.2ZM9.02195 55.82C9.33195 56.15 9.73195 56.32 10.202 56.32C11.402 56.32 12.122 55.25 12.122 53.2C12.122 52.54 12.052 51.98 11.902 51.52L9.02195 55.82ZM14.1239 57V49.4H15.8639L16.9039 55.23L17.9439 49.4H19.6839V57H18.8139V49.46L17.7739 55.29H16.0339L14.9939 49.46V57H14.1239Z" fill="#ACC8E5"/>
<path d="M1.13 105V104.18H3.41V99.33H1.28V98.51H2.14C3.13 98.51 3.46 98.21 3.61 97.63L3.67 97.4H4.41V104.18H6.57V105H1.13ZM10.202 105.11C8.39195 105.11 7.26195 103.73 7.26195 101.2C7.26195 98.67 8.39195 97.29 10.202 97.29C12.012 97.29 13.142 98.67 13.142 101.2C13.142 103.73 12.012 105.11 10.202 105.11ZM8.28195 101.2C8.28195 101.86 8.35195 102.42 8.49195 102.87L11.382 98.57C11.072 98.25 10.672 98.08 10.202 98.08C9.00195 98.08 8.28195 99.15 8.28195 101.2ZM9.02195 103.82C9.33195 104.15 9.73195 104.32 10.202 104.32C11.402 104.32 12.122 103.25 12.122 101.2C12.122 100.54 12.052 99.98 11.902 99.52L9.02195 103.82ZM14.1239 105V97.4H15.8639L16.9039 103.23L17.9439 97.4H19.6839V105H18.8139V97.46L17.7739 103.29H16.0339L14.9939 97.46V105H14.1239Z" fill="#ACC8E5"/>
<path d="M3.5 153.11C1.69 153.11 0.56 151.73 0.56 149.2C0.56 146.67 1.69 145.29 3.5 145.29C5.31 145.29 6.44 146.67 6.44 149.2C6.44 151.73 5.31 153.11 3.5 153.11ZM1.58 149.2C1.58 149.86 1.65 150.42 1.79 150.87L4.68 146.57C4.37 146.25 3.97 146.08 3.5 146.08C2.3 146.08 1.58 147.15 1.58 149.2ZM2.32 151.82C2.63 152.15 3.03 152.32 3.5 152.32C4.7 152.32 5.42 151.25 5.42 149.2C5.42 148.54 5.35 147.98 5.2 147.52L2.32 151.82Z" fill="#ACC8E5"/>
<path opacity="0.3" d="M24.3906 1L24.3906 180" stroke="#ACC8E5" stroke-linecap="round" stroke-dasharray="1 2 1 2"/>
<path opacity="0.3" d="M101.168 1L101.168 180" stroke="#ACC8E5" stroke-linecap="round" stroke-dasharray="1 2 1 2"/>
<path opacity="0.3" d="M179.109 1L179.109 180" stroke="#ACC8E5" stroke-linecap="round" stroke-dasharray="1 2 1 2"/>
<path opacity="0.3" d="M255.887 1L255.887 180" stroke="#ACC8E5" stroke-linecap="round" stroke-dasharray="1 2 1 2"/>
<path d="M31.4005 180V179.18H33.6805V174.33H31.5505V173.51H32.4105C33.4005 173.51 33.7305 173.21 33.8805 172.63L33.9405 172.4H34.6805V179.18H36.8405V180H31.4005ZM38.1025 180V179.18H40.3825V174.33H38.2525V173.51H39.1125C40.1025 173.51 40.4325 173.21 40.5825 172.63L40.6425 172.4H41.3825V179.18H43.5425V180H38.1025ZM44.9744 180L48.3244 172.4H49.3844L46.0344 180H44.9744ZM53.8764 180.11C52.0664 180.11 50.9364 178.73 50.9364 176.2C50.9364 173.67 52.0664 172.29 53.8764 172.29C55.6864 172.29 56.8164 173.67 56.8164 176.2C56.8164 178.73 55.6864 180.11 53.8764 180.11ZM51.9564 176.2C51.9564 176.86 52.0264 177.42 52.1664 177.87L55.0564 173.57C54.7464 173.25 54.3464 173.08 53.8764 173.08C52.6764 173.08 51.9564 174.15 51.9564 176.2ZM52.6964 178.82C53.0064 179.15 53.4064 179.32 53.8764 179.32C55.0764 179.32 55.7964 178.25 55.7964 176.2C55.7964 175.54 55.7264 174.98 55.5764 174.52L52.6964 178.82ZM60.5783 180.11C58.9983 180.11 57.7483 179.31 57.7483 177.85C57.7483 176.63 58.7683 176.09 59.5983 175.94C58.8083 175.74 57.9783 175.34 57.9783 174.25C57.9783 173.04 59.0483 172.29 60.5783 172.29C62.1083 172.29 63.1783 173.04 63.1783 174.25C63.1783 175.34 62.3483 175.74 61.5583 175.94C62.3883 176.09 63.4083 176.63 63.4083 177.85C63.4083 179.31 62.1583 180.11 60.5783 180.11ZM58.7683 177.8C58.7683 178.89 59.7083 179.32 60.5783 179.32C61.4483 179.32 62.3883 178.89 62.3883 177.8C62.3883 176.87 61.5883 176.33 60.5783 176.33C59.5683 176.33 58.7683 176.87 58.7683 177.8ZM58.9883 174.31C58.9883 174.98 59.4383 175.54 60.5783 175.54C61.7183 175.54 62.1683 174.98 62.1683 174.31C62.1683 173.6 61.6483 173.08 60.5783 173.08C59.5083 173.08 58.9883 173.6 58.9883 174.31Z" fill="#ACC8E5"/>
<path d="M108.775 180V179.18H111.055V174.33H108.925V173.51H109.785C110.775 173.51 111.105 173.21 111.255 172.63L111.315 172.4H112.055V179.18H114.215V180H108.775ZM115.476 180V179.18H117.756V174.33H115.626V173.51H116.486C117.476 173.51 117.806 173.21 117.956 172.63L118.016 172.4H118.756V179.18H120.916V180H115.476ZM122.348 180L125.698 172.4H126.758L123.408 180H122.348ZM128.88 180V179.18H131.16V174.33H129.03V173.51H129.89C130.88 173.51 131.21 173.21 131.36 172.63L131.42 172.4H132.16V179.18H134.32V180H128.88ZM135.312 180V178.9L138.562 176.07C139.142 175.57 139.612 175.06 139.612 174.47C139.612 173.69 139.032 173.08 138.012 173.08C137.062 173.08 136.442 173.56 136.362 174.52H135.342C135.432 173.01 136.652 172.29 138.012 172.29C139.502 172.29 140.632 173.13 140.632 174.47C140.632 175.36 140.092 176 139.342 176.65L136.442 179.18H140.822V180H135.312Z" fill="#ACC8E5"/>
<path d="M186.148 180V179.18H188.428V174.33H186.298V173.51H187.158C188.148 173.51 188.478 173.21 188.628 172.63L188.688 172.4H189.428V179.18H191.588V180H186.148ZM192.85 180V179.18H195.13V174.33H193V173.51H193.86C194.85 173.51 195.18 173.21 195.33 172.63L195.39 172.4H196.13V179.18H198.29V180H192.85ZM199.721 180L203.071 172.4H204.131L200.781 180H199.721ZM206.253 180V179.18H208.533V174.33H206.403V173.51H207.263C208.253 173.51 208.583 173.21 208.733 172.63L208.793 172.4H209.533V179.18H211.693V180H206.253ZM215.585 180.11C213.795 180.11 212.605 178.84 212.605 176.2C212.605 173.68 213.805 172.29 215.575 172.29C216.955 172.29 217.885 173 218.165 174.25H217.145C216.955 173.6 216.475 173.08 215.575 173.08C214.105 173.08 213.555 174.66 213.625 176.52C213.895 175.61 214.775 174.98 215.775 174.98C217.345 174.98 218.345 175.98 218.345 177.55C218.345 179.1 217.135 180.11 215.585 180.11ZM213.735 177.46C213.735 178.52 214.355 179.32 215.565 179.32C216.565 179.32 217.325 178.62 217.325 177.55C217.325 176.49 216.675 175.77 215.565 175.77C214.455 175.77 213.735 176.51 213.735 177.46Z" fill="#ACC8E5"/>
<path d="M263.521 180V179.18H265.801V174.33H263.671V173.51H264.531C265.521 173.51 265.851 173.21 266.001 172.63L266.061 172.4H266.801V179.18H268.961V180H263.521ZM270.223 180V179.18H272.503V174.33H270.373V173.51H271.233C272.223 173.51 272.553 173.21 272.703 172.63L272.763 172.4H273.503V179.18H275.663V180H270.223ZM277.095 180L280.445 172.4H281.505L278.155 180H277.095ZM283.356 180V178.9L286.606 176.07C287.186 175.57 287.656 175.06 287.656 174.47C287.656 173.69 287.076 173.08 286.056 173.08C285.106 173.08 284.486 173.56 284.406 174.52H283.386C283.476 173.01 284.696 172.29 286.056 172.29C287.546 172.29 288.676 173.13 288.676 174.47C288.676 175.36 288.136 176 287.386 176.65L284.486 179.18H288.866V180H283.356ZM292.698 180.11C290.888 180.11 289.758 178.73 289.758 176.2C289.758 173.67 290.888 172.29 292.698 172.29C294.508 172.29 295.638 173.67 295.638 176.2C295.638 178.73 294.508 180.11 292.698 180.11ZM290.778 176.2C290.778 176.86 290.848 177.42 290.988 177.87L293.878 173.57C293.568 173.25 293.168 173.08 292.698 173.08C291.498 173.08 290.778 174.15 290.778 176.2ZM291.518 178.82C291.828 179.15 292.228 179.32 292.698 179.32C293.898 179.32 294.618 178.25 294.618 176.2C294.618 175.54 294.548 174.98 294.398 174.52L291.518 178.82Z" fill="#ACC8E5"/>
<path d="M24 42L303 26" stroke="url(#paint0_linear_5723_710)" stroke-width="4.66969" stroke-linecap="round"/>
<defs>
<linearGradient id="paint0_linear_5723_710" x1="204.018" y1="14.17" x2="-51.1752" y2="24.5626" gradientUnits="userSpaceOnUse">
<stop offset="0.249146" stop-color="#4DA2FF"/>
<stop offset="1" stop-color="#4DA2FF" stop-opacity="0"/>
</linearGradient>
</defs>
</svg>
