<svg width="306" height="181" viewBox="0 0 306 181" fill="none" xmlns="http://www.w3.org/2000/svg">
<path d="M3.5 9.11C1.92 9.11 0.67 8.31 0.67 6.85C0.67 5.63 1.69 5.09 2.52 4.94C1.73 4.74 0.9 4.34 0.9 3.25C0.9 2.04 1.97 1.29 3.5 1.29C5.03 1.29 6.1 2.04 6.1 3.25C6.1 4.34 5.27 4.74 4.48 4.94C5.31 5.09 6.33 5.63 6.33 6.85C6.33 8.31 5.08 9.11 3.5 9.11ZM1.69 6.8C1.69 7.89 2.63 8.32 3.5 8.32C4.37 8.32 5.31 7.89 5.31 6.8C5.31 5.87 4.51 5.33 3.5 5.33C2.49 5.33 1.69 5.87 1.69 6.8ZM1.91 3.31C1.91 3.98 2.36 4.54 3.5 4.54C4.64 4.54 5.09 3.98 5.09 3.31C5.09 2.6 4.57 2.08 3.5 2.08C2.43 2.08 1.91 2.6 1.91 3.31ZM7.70195 9V1.4H10.382C12.192 1.4 12.902 2.32 12.902 3.37C12.902 4.37 12.142 4.98 11.042 5.09C12.422 5.14 13.152 5.74 13.152 6.89C13.152 8.26 12.142 9 10.382 9H7.70195ZM8.71195 8.1H10.412C11.542 8.1 12.102 7.65 12.102 6.82C12.102 5.98 11.542 5.53 10.412 5.53H8.71195V8.1ZM8.71195 4.63H10.372C11.302 4.63 11.852 4.28 11.852 3.47C11.852 2.67 11.302 2.3 10.372 2.3H8.71195V4.63Z" fill="#ACC8E5"/>
<path d="M3.76 45.11C1.97 45.11 0.78 43.84 0.78 41.2C0.78 38.68 1.98 37.29 3.75 37.29C5.13 37.29 6.06 38 6.34 39.25H5.32C5.13 38.6 4.65 38.08 3.75 38.08C2.28 38.08 1.73 39.66 1.8 41.52C2.07 40.61 2.95 39.98 3.95 39.98C5.52 39.98 6.52 40.98 6.52 42.55C6.52 44.1 5.31 45.11 3.76 45.11ZM1.91 42.46C1.91 43.52 2.53 44.32 3.74 44.32C4.74 44.32 5.5 43.62 5.5 42.55C5.5 41.49 4.85 40.77 3.74 40.77C2.63 40.77 1.91 41.51 1.91 42.46ZM7.70195 45V37.4H10.382C12.192 37.4 12.902 38.32 12.902 39.37C12.902 40.37 12.142 40.98 11.042 41.09C12.422 41.14 13.152 41.74 13.152 42.89C13.152 44.26 12.142 45 10.382 45H7.70195ZM8.71195 44.1H10.412C11.542 44.1 12.102 43.65 12.102 42.82C12.102 41.98 11.542 41.53 10.412 41.53H8.71195V44.1ZM8.71195 40.63H10.372C11.302 40.63 11.852 40.28 11.852 39.47C11.852 38.67 11.302 38.3 10.372 38.3H8.71195V40.63Z" fill="#ACC8E5"/>
<path d="M0.54 78.78V77.68L3.42 73.4H5.45V77.96H6.56V78.78H5.45V81H4.45V78.78H0.54ZM1.41 77.96H4.45V73.44L1.41 77.96ZM7.70195 81V73.4H10.382C12.192 73.4 12.902 74.32 12.902 75.37C12.902 76.37 12.142 76.98 11.042 77.09C12.422 77.14 13.152 77.74 13.152 78.89C13.152 80.26 12.142 81 10.382 81H7.70195ZM8.71195 80.1H10.412C11.542 80.1 12.102 79.65 12.102 78.82C12.102 77.98 11.542 77.53 10.412 77.53H8.71195V80.1ZM8.71195 76.63H10.372C11.302 76.63 11.852 76.28 11.852 75.47C11.852 74.67 11.302 74.3 10.372 74.3H8.71195V76.63Z" fill="#ACC8E5"/>
<path d="M0.86 117V115.9L4.11 113.07C4.69 112.57 5.16 112.06 5.16 111.47C5.16 110.69 4.58 110.08 3.56 110.08C2.61 110.08 1.99 110.56 1.91 111.52H0.89C0.98 110.01 2.2 109.29 3.56 109.29C5.05 109.29 6.18 110.13 6.18 111.47C6.18 112.36 5.64 113 4.89 113.65L1.99 116.18H6.37V117H0.86ZM7.70195 117V109.4H10.382C12.192 109.4 12.902 110.32 12.902 111.37C12.902 112.37 12.142 112.98 11.042 113.09C12.422 113.14 13.152 113.74 13.152 114.89C13.152 116.26 12.142 117 10.382 117H7.70195ZM8.71195 116.1H10.412C11.542 116.1 12.102 115.65 12.102 114.82C12.102 113.98 11.542 113.53 10.412 113.53H8.71195V116.1ZM8.71195 112.63H10.372C11.302 112.63 11.852 112.28 11.852 111.47C11.852 110.67 11.302 110.3 10.372 110.3H8.71195V112.63Z" fill="#ACC8E5"/>
<path d="M3.5 153.11C1.69 153.11 0.56 151.73 0.56 149.2C0.56 146.67 1.69 145.29 3.5 145.29C5.31 145.29 6.44 146.67 6.44 149.2C6.44 151.73 5.31 153.11 3.5 153.11ZM1.58 149.2C1.58 149.86 1.65 150.42 1.79 150.87L4.68 146.57C4.37 146.25 3.97 146.08 3.5 146.08C2.3 146.08 1.58 147.15 1.58 149.2ZM2.32 151.82C2.63 152.15 3.03 152.32 3.5 152.32C4.7 152.32 5.42 151.25 5.42 149.2C5.42 148.54 5.35 147.98 5.2 147.52L2.32 151.82Z" fill="#ACC8E5"/>
<path opacity="0.3" d="M24.3906 1L24.3906 180" stroke="#ACC8E5" stroke-linecap="round" stroke-dasharray="1 2 1 2"/>
<path opacity="0.3" d="M101.168 1L101.168 180" stroke="#ACC8E5" stroke-linecap="round" stroke-dasharray="1 2 1 2"/>
<path opacity="0.3" d="M179.109 1L179.109 180" stroke="#ACC8E5" stroke-linecap="round" stroke-dasharray="1 2 1 2"/>
<path opacity="0.3" d="M255.887 1L255.887 180" stroke="#ACC8E5" stroke-linecap="round" stroke-dasharray="1 2 1 2"/>
<path d="M31.4005 180V179.18H33.6805V174.33H31.5505V173.51H32.4105C33.4005 173.51 33.7305 173.21 33.8805 172.63L33.9405 172.4H34.6805V179.18H36.8405V180H31.4005ZM38.1025 180V179.18H40.3825V174.33H38.2525V173.51H39.1125C40.1025 173.51 40.4325 173.21 40.5825 172.63L40.6425 172.4H41.3825V179.18H43.5425V180H38.1025ZM44.9744 180L48.3244 172.4H49.3844L46.0344 180H44.9744ZM53.8764 180.11C52.0664 180.11 50.9364 178.73 50.9364 176.2C50.9364 173.67 52.0664 172.29 53.8764 172.29C55.6864 172.29 56.8164 173.67 56.8164 176.2C56.8164 178.73 55.6864 180.11 53.8764 180.11ZM51.9564 176.2C51.9564 176.86 52.0264 177.42 52.1664 177.87L55.0564 173.57C54.7464 173.25 54.3464 173.08 53.8764 173.08C52.6764 173.08 51.9564 174.15 51.9564 176.2ZM52.6964 178.82C53.0064 179.15 53.4064 179.32 53.8764 179.32C55.0764 179.32 55.7964 178.25 55.7964 176.2C55.7964 175.54 55.7264 174.98 55.5764 174.52L52.6964 178.82ZM60.5783 180.11C58.9983 180.11 57.7483 179.31 57.7483 177.85C57.7483 176.63 58.7683 176.09 59.5983 175.94C58.8083 175.74 57.9783 175.34 57.9783 174.25C57.9783 173.04 59.0483 172.29 60.5783 172.29C62.1083 172.29 63.1783 173.04 63.1783 174.25C63.1783 175.34 62.3483 175.74 61.5583 175.94C62.3883 176.09 63.4083 176.63 63.4083 177.85C63.4083 179.31 62.1583 180.11 60.5783 180.11ZM58.7683 177.8C58.7683 178.89 59.7083 179.32 60.5783 179.32C61.4483 179.32 62.3883 178.89 62.3883 177.8C62.3883 176.87 61.5883 176.33 60.5783 176.33C59.5683 176.33 58.7683 176.87 58.7683 177.8ZM58.9883 174.31C58.9883 174.98 59.4383 175.54 60.5783 175.54C61.7183 175.54 62.1683 174.98 62.1683 174.31C62.1683 173.6 61.6483 173.08 60.5783 173.08C59.5083 173.08 58.9883 173.6 58.9883 174.31Z" fill="#ACC8E5"/>
<path d="M108.775 180V179.18H111.055V174.33H108.925V173.51H109.785C110.775 173.51 111.105 173.21 111.255 172.63L111.315 172.4H112.055V179.18H114.215V180H108.775ZM115.476 180V179.18H117.756V174.33H115.626V173.51H116.486C117.476 173.51 117.806 173.21 117.956 172.63L118.016 172.4H118.756V179.18H120.916V180H115.476ZM122.348 180L125.698 172.4H126.758L123.408 180H122.348ZM128.88 180V179.18H131.16V174.33H129.03V173.51H129.89C130.88 173.51 131.21 173.21 131.36 172.63L131.42 172.4H132.16V179.18H134.32V180H128.88ZM135.312 180V178.9L138.562 176.07C139.142 175.57 139.612 175.06 139.612 174.47C139.612 173.69 139.032 173.08 138.012 173.08C137.062 173.08 136.442 173.56 136.362 174.52H135.342C135.432 173.01 136.652 172.29 138.012 172.29C139.502 172.29 140.632 173.13 140.632 174.47C140.632 175.36 140.092 176 139.342 176.65L136.442 179.18H140.822V180H135.312Z" fill="#ACC8E5"/>
<path d="M186.148 180V179.18H188.428V174.33H186.298V173.51H187.158C188.148 173.51 188.478 173.21 188.628 172.63L188.688 172.4H189.428V179.18H191.588V180H186.148ZM192.85 180V179.18H195.13V174.33H193V173.51H193.86C194.85 173.51 195.18 173.21 195.33 172.63L195.39 172.4H196.13V179.18H198.29V180H192.85ZM199.721 180L203.071 172.4H204.131L200.781 180H199.721ZM206.253 180V179.18H208.533V174.33H206.403V173.51H207.263C208.253 173.51 208.583 173.21 208.733 172.63L208.793 172.4H209.533V179.18H211.693V180H206.253ZM215.585 180.11C213.795 180.11 212.605 178.84 212.605 176.2C212.605 173.68 213.805 172.29 215.575 172.29C216.955 172.29 217.885 173 218.165 174.25H217.145C216.955 173.6 216.475 173.08 215.575 173.08C214.105 173.08 213.555 174.66 213.625 176.52C213.895 175.61 214.775 174.98 215.775 174.98C217.345 174.98 218.345 175.98 218.345 177.55C218.345 179.1 217.135 180.11 215.585 180.11ZM213.735 177.46C213.735 178.52 214.355 179.32 215.565 179.32C216.565 179.32 217.325 178.62 217.325 177.55C217.325 176.49 216.675 175.77 215.565 175.77C214.455 175.77 213.735 176.51 213.735 177.46Z" fill="#ACC8E5"/>
<path d="M263.521 180V179.18H265.801V174.33H263.671V173.51H264.531C265.521 173.51 265.851 173.21 266.001 172.63L266.061 172.4H266.801V179.18H268.961V180H263.521ZM270.223 180V179.18H272.503V174.33H270.373V173.51H271.233C272.223 173.51 272.553 173.21 272.703 172.63L272.763 172.4H273.503V179.18H275.663V180H270.223ZM277.095 180L280.445 172.4H281.505L278.155 180H277.095ZM283.356 180V178.9L286.606 176.07C287.186 175.57 287.656 175.06 287.656 174.47C287.656 173.69 287.076 173.08 286.056 173.08C285.106 173.08 284.486 173.56 284.406 174.52H283.386C283.476 173.01 284.696 172.29 286.056 172.29C287.546 172.29 288.676 173.13 288.676 174.47C288.676 175.36 288.136 176 287.386 176.65L284.486 179.18H288.866V180H283.356ZM292.698 180.11C290.888 180.11 289.758 178.73 289.758 176.2C289.758 173.67 290.888 172.29 292.698 172.29C294.508 172.29 295.638 173.67 295.638 176.2C295.638 178.73 294.508 180.11 292.698 180.11ZM290.778 176.2C290.778 176.86 290.848 177.42 290.988 177.87L293.878 173.57C293.568 173.25 293.168 173.08 292.698 173.08C291.498 173.08 290.778 174.15 290.778 176.2ZM291.518 178.82C291.828 179.15 292.228 179.32 292.698 179.32C293.898 179.32 294.618 178.25 294.618 176.2C294.618 175.54 294.548 174.98 294.398 174.52L291.518 178.82Z" fill="#ACC8E5"/>
<path d="M24 36L303 27" stroke="url(#paint0_linear_5720_867)" stroke-width="4.66969" stroke-linecap="round"/>
<defs>
<linearGradient id="paint0_linear_5720_867" x1="204.018" y1="14.1692" x2="-51.1752" y2="24.5617" gradientUnits="userSpaceOnUse">
<stop offset="0.249146" stop-color="#4DA2FF"/>
<stop offset="1" stop-color="#4DA2FF" stop-opacity="0"/>
</linearGradient>
</defs>
</svg>
